{"glyphs":{"0":{"ha":903,"x_min":98,"x_max":806,"o":"m 452 -12 q 344 11 393 -12 q 255 72 294 33 q 186 163 216 111 q 137 275 157 215 q 108 397 117 334 q 98 521 98 460 q 106 647 98 583 q 133 770 115 711 q 179 881 151 829 q 246 971 207 933 q 336 1031 285 1009 q 452 1053 388 1053 q 560 1031 511 1053 q 649 969 610 1008 q 718 878 688 931 q 767 767 747 826 q 797 644 787 708 q 806 521 806 581 q 798 394 806 458 q 772 272 790 331 q 725 161 753 213 q 658 71 697 109 q 567 10 619 33 q 452 -12 516 -12 m 242 551 q 244 462 242 510 q 256 365 247 414 q 279 270 264 316 q 318 189 294 224 q 376 131 342 153 q 458 110 410 110 q 532 126 500 110 q 586 170 563 142 q 624 236 609 199 q 647 315 638 273 q 659 403 656 358 q 663 491 663 448 q 660 580 663 531 q 649 676 657 628 q 625 771 640 725 q 586 853 610 817 q 528 910 563 888 q 447 931 494 931 q 373 915 404 931 q 318 871 341 899 q 281 806 295 843 q 257 726 266 768 q 245 639 249 683 q 242 551 242 594 z "},"1":{"ha":903,"x_min":128,"x_max":790,"o":"m 165 0 l 165 111 l 405 111 l 405 782 l 445 940 l 351 810 l 203 680 l 128 764 l 447 1056 l 551 1042 l 551 111 l 790 111 l 790 0 l 165 0 z "},"2":{"ha":903,"x_min":127,"x_max":776,"o":"m 127 0 l 127 117 q 197 217 159 167 q 273 312 234 266 q 348 400 311 358 q 416 478 385 442 q 486 555 452 519 q 545 624 519 590 q 586 694 571 658 q 601 774 601 731 q 589 837 601 808 q 554 889 576 867 q 500 923 531 910 q 431 936 469 936 q 358 925 389 936 q 304 894 327 913 q 264 852 281 876 q 232 806 247 829 l 134 847 q 180 930 152 892 q 247 995 208 968 q 333 1038 285 1023 q 442 1053 382 1053 q 567 1028 512 1053 q 659 963 622 1003 q 717 871 697 922 q 737 767 737 819 q 717 665 737 713 q 668 573 697 617 q 604 492 638 530 q 542 420 570 453 q 469 337 506 378 q 400 257 433 296 q 339 181 367 217 q 290 111 310 144 l 776 111 l 776 0 l 127 0 z "},"3":{"ha":903,"x_min":158,"x_max":778,"o":"m 158 931 l 168 1042 l 710 1042 l 710 944 q 682 886 701 917 q 635 825 662 856 q 577 765 608 794 q 513 708 545 735 l 422 656 q 439 658 428 658 q 460 658 450 658 q 585 642 527 658 q 686 591 643 625 q 753 506 728 558 q 778 384 778 454 q 753 262 778 317 q 684 164 728 207 q 583 91 641 122 q 458 40 524 60 q 321 10 392 19 q 182 0 250 0 l 182 111 q 295 122 240 113 q 401 145 351 130 q 493 181 451 160 q 566 232 535 203 q 615 297 597 260 q 632 377 632 333 q 611 460 632 427 q 553 513 590 494 q 466 541 516 533 q 360 549 417 549 q 311 548 338 549 q 265 545 285 547 l 265 653 q 326 700 293 674 q 394 755 360 726 q 460 814 428 784 q 519 870 492 843 q 563 920 545 897 q 587 958 581 943 l 481 931 l 158 931 z "},"4":{"ha":903,"x_min":105,"x_max":799,"o":"m 789 208 l 664 208 l 664 0 l 518 0 l 518 208 l 105 208 l 105 327 l 441 1056 l 572 1042 l 284 417 l 219 319 l 518 319 l 518 602 l 664 590 l 664 319 l 799 319 l 789 208 z "},"5":{"ha":903,"x_min":172,"x_max":762,"o":"m 317 682 q 334 691 322 685 q 364 703 346 697 q 405 714 382 710 q 457 719 428 719 q 586 696 529 719 q 682 634 642 674 q 741 542 721 595 q 762 430 762 490 q 737 300 762 360 q 668 193 712 241 q 567 110 625 146 q 443 49 509 74 q 308 12 378 24 q 172 0 239 0 l 172 111 q 278 124 224 113 q 381 154 331 135 q 474 201 431 174 q 550 261 517 228 q 601 333 582 294 q 619 415 619 372 q 608 484 619 451 q 574 543 597 517 q 517 585 551 569 q 438 601 483 601 q 374 597 403 601 q 324 585 346 592 q 285 570 301 578 q 258 556 269 563 l 172 556 l 172 1042 l 695 1042 l 695 931 l 317 931 l 317 682 z "},"6":{"ha":903,"x_min":106,"x_max":803,"o":"m 666 933 q 652 935 661 935 q 635 935 642 935 q 538 920 585 935 q 449 876 490 904 q 372 808 407 847 q 310 720 337 768 q 266 619 283 673 q 243 507 249 565 l 301 588 q 341 609 318 599 q 390 627 365 619 q 442 639 416 635 q 492 644 469 644 q 609 627 553 644 q 708 576 665 610 q 777 486 751 541 q 803 356 803 432 q 778 214 803 281 q 707 97 753 147 q 597 17 661 47 q 456 -12 533 -12 q 335 10 388 -12 q 244 68 283 32 q 179 151 205 104 q 136 246 153 197 q 113 343 120 295 q 106 431 106 391 q 123 592 106 513 q 173 739 140 670 q 251 866 205 808 q 357 966 298 924 q 488 1030 417 1007 q 641 1053 559 1053 q 664 1053 651 1053 q 683 1051 676 1053 l 666 933 m 249 415 q 250 379 249 395 q 251 348 250 363 q 256 317 253 333 q 263 283 258 301 q 290 211 273 243 q 331 155 307 178 q 386 119 355 132 q 458 106 418 106 q 551 127 513 106 q 614 182 590 148 q 650 260 638 217 q 661 349 661 304 q 648 426 661 393 q 612 482 635 460 q 555 515 588 503 q 482 526 522 526 q 409 517 444 526 q 343 492 374 508 q 288 457 312 477 q 249 415 264 437 z "},"7":{"ha":903,"x_min":123,"x_max":778,"o":"m 123 1042 l 778 1042 l 778 951 q 755 875 778 922 q 698 769 733 828 q 622 644 663 711 q 543 507 581 577 q 478 365 506 436 q 443 228 451 294 q 438 170 440 200 q 435 110 436 140 q 434 51 434 80 l 434 0 l 292 0 q 292 56 292 21 q 294 130 292 91 q 299 207 295 169 q 308 272 302 245 q 353 418 324 347 q 418 557 383 490 q 490 682 453 623 q 556 789 526 741 q 605 874 586 838 q 624 931 624 910 l 123 931 l 123 1042 z "},"8":{"ha":903,"x_min":103,"x_max":800,"o":"m 438 1053 q 556 1036 501 1053 q 649 986 610 1019 q 710 907 688 953 q 733 802 733 860 q 720 729 733 761 q 688 672 708 697 q 639 626 667 647 q 581 588 612 606 q 673 535 633 565 q 742 468 714 506 q 785 385 770 431 q 800 285 800 340 q 769 152 800 208 q 689 59 739 96 q 574 6 638 23 q 442 -12 510 -12 q 315 8 376 -12 q 207 66 254 28 q 132 162 160 105 q 103 294 103 219 q 119 395 103 350 q 163 476 135 440 q 229 541 191 513 q 312 590 267 569 q 251 632 279 610 q 202 678 223 653 q 168 731 181 703 q 156 794 156 760 q 183 911 156 862 q 251 991 210 960 q 343 1038 293 1023 q 438 1053 392 1053 m 431 528 q 352 486 387 509 q 292 435 317 464 q 254 370 267 406 q 240 288 240 333 q 257 212 240 246 q 302 153 274 178 q 367 115 331 128 q 443 102 404 102 q 527 114 488 102 q 598 150 567 126 q 645 208 628 174 q 663 288 663 243 q 642 371 663 335 q 589 436 622 408 q 514 488 556 465 q 431 528 473 510 m 459 641 q 561 710 523 669 q 599 808 599 750 q 584 867 599 842 q 549 908 570 892 q 501 932 527 924 q 451 939 475 939 q 391 930 420 939 q 340 903 362 920 q 304 862 317 885 q 290 810 290 838 q 304 754 290 778 q 341 709 317 729 q 394 673 364 690 q 459 641 425 656 z "},"9":{"ha":903,"x_min":104,"x_max":794,"o":"m 603 460 q 521 413 563 428 q 428 398 480 398 q 301 420 360 398 q 198 485 242 443 q 129 585 154 526 q 104 716 104 644 q 128 853 104 791 q 196 959 152 915 q 303 1029 240 1004 q 444 1053 366 1053 q 566 1032 513 1053 q 658 975 619 1010 q 723 894 697 940 q 765 799 749 848 q 787 701 781 749 q 794 611 794 652 q 777 454 794 531 q 730 309 761 377 q 652 184 698 241 q 548 84 606 126 q 418 17 489 42 q 265 -12 347 -8 l 244 104 q 400 144 327 108 q 530 238 474 179 q 620 375 585 297 q 659 542 654 453 l 603 460 m 651 662 q 636 763 649 714 q 598 850 623 812 q 536 912 573 889 q 449 935 499 935 q 365 920 402 935 q 301 878 327 905 q 260 813 274 851 q 246 728 246 774 q 257 644 246 683 q 292 577 269 606 q 351 532 315 549 q 435 516 387 516 q 505 528 472 516 q 567 559 539 540 q 617 606 595 579 q 651 662 638 632 z "}," ":{"ha":903,"x_min":0,"x_max":0,"o":""},"!":{"ha":903,"x_min":263,"x_max":431,"o":"m 420 1042 l 420 313 l 274 298 l 274 1042 l 420 1042 m 263 74 q 269 106 263 91 q 287 133 276 122 q 314 151 299 144 q 347 158 329 158 q 379 151 364 158 q 406 133 394 144 q 424 106 417 122 q 431 74 431 91 q 424 41 431 56 q 406 14 417 25 q 380 -5 395 2 q 347 -12 365 -12 q 314 -5 329 -12 q 287 14 299 2 q 269 41 276 25 q 263 74 263 56 z "},"\"":{"ha":903,"x_min":243,"x_max":574,"o":"m 365 1042 l 365 972 q 363 942 365 959 q 359 907 362 926 q 354 869 357 888 q 349 831 351 849 l 334 741 l 274 741 l 258 831 q 252 869 255 849 q 247 907 249 888 q 244 942 245 926 q 243 972 243 959 l 243 1042 l 365 1042 m 574 1042 l 574 972 q 572 942 574 959 q 568 907 571 926 q 563 869 566 888 q 558 831 560 849 l 543 741 l 483 741 l 467 831 q 461 869 464 849 q 456 907 458 888 q 453 942 454 926 q 452 972 452 959 l 452 1042 l 574 1042 z "},"#":{"ha":903,"x_min":69,"x_max":868,"o":"m 714 660 l 679 382 l 868 382 l 854 278 l 667 278 l 633 0 l 493 -14 l 531 278 l 341 278 l 308 0 l 169 -14 l 204 278 l 69 278 l 69 382 l 216 382 l 251 660 l 69 660 l 83 764 l 263 764 l 280 892 l 280 1042 l 437 1056 l 400 764 l 590 764 l 623 1042 l 763 1056 l 727 764 l 868 764 l 868 660 l 714 660 m 576 660 l 388 660 l 354 382 l 542 382 l 576 660 z "},"$":{"ha":903,"x_min":142,"x_max":780,"o":"m 689 903 q 659 923 677 913 q 619 941 641 933 q 571 956 597 949 q 518 964 545 962 l 518 599 q 613 551 566 577 q 697 491 660 526 q 757 410 734 456 q 780 300 780 363 q 760 184 780 235 q 706 94 741 132 q 623 31 672 56 q 518 -3 575 7 l 518 -139 l 417 -139 l 417 -12 q 337 -4 376 -11 q 261 15 297 3 q 195 40 226 26 q 142 69 165 54 l 224 167 q 256 147 238 158 q 298 126 274 136 q 351 109 322 116 q 417 103 380 103 l 417 501 q 322 550 369 524 q 238 608 274 576 q 178 680 201 640 q 155 775 155 721 q 177 899 155 848 q 235 982 199 949 q 318 1031 271 1015 q 417 1053 365 1048 l 417 1181 l 518 1194 l 518 1053 q 649 1028 592 1049 q 754 972 706 1008 l 689 903 m 648 278 q 636 335 648 309 q 604 383 624 361 q 556 424 584 405 q 497 460 528 442 l 497 110 q 559 129 531 116 q 607 163 587 142 q 637 212 626 183 q 648 278 648 240 m 287 797 q 299 745 287 768 q 331 703 310 722 q 378 668 351 684 q 438 636 406 651 l 438 960 q 382 945 409 956 q 334 915 356 934 q 300 866 313 895 q 287 797 287 837 z "},"%":{"ha":903,"x_min":69,"x_max":833,"o":"m 274 0 l 159 0 l 628 1042 l 744 1042 l 274 0 m 249 556 q 166 575 201 556 q 110 627 132 594 q 79 707 89 661 q 69 807 69 753 q 78 905 69 860 q 109 983 88 951 q 164 1035 130 1016 q 249 1053 199 1053 q 332 1035 298 1053 q 388 983 366 1016 q 419 905 409 951 q 428 807 428 860 q 419 707 428 753 q 389 627 410 661 q 334 575 368 594 q 249 556 299 556 m 325 840 q 323 887 325 865 q 313 926 321 909 q 290 952 306 942 q 249 963 275 963 q 208 953 223 963 q 186 929 194 944 q 177 893 179 914 q 175 850 175 873 l 175 780 q 177 732 175 755 q 187 693 179 710 q 210 666 194 676 q 252 656 226 656 q 292 665 277 656 q 314 689 306 674 q 323 725 321 704 q 325 767 325 745 l 325 840 m 654 -12 q 571 7 606 -12 q 515 60 537 26 q 484 140 494 94 q 474 240 474 186 q 483 338 474 292 q 514 416 492 383 q 569 467 535 449 q 654 486 603 486 q 737 467 703 486 q 792 416 771 449 q 824 338 814 383 q 833 240 833 292 q 824 140 833 186 q 794 60 815 94 q 739 7 773 26 q 654 -12 704 -12 m 730 273 q 728 319 730 297 q 718 358 726 342 q 695 385 710 375 q 653 395 680 395 q 613 386 628 395 q 591 362 599 377 q 582 326 584 347 q 580 283 580 306 l 580 213 q 582 165 580 188 q 592 125 584 142 q 615 98 599 108 q 657 88 631 88 q 697 97 682 88 q 718 122 711 106 q 728 157 726 137 q 730 200 730 178 l 730 273 z "},"&":{"ha":903,"x_min":69,"x_max":830,"o":"m 817 501 q 811 391 817 446 q 791 283 806 335 q 750 184 776 231 q 683 98 724 137 l 747 98 l 830 -14 l 676 -14 l 623 53 q 509 3 571 19 q 381 -12 448 -12 q 252 14 310 -12 q 154 85 194 40 q 91 188 113 129 q 69 310 69 246 q 87 427 69 376 q 133 516 105 478 q 193 576 160 553 q 256 612 226 600 q 230 657 243 631 q 205 709 216 682 q 188 764 194 736 q 181 817 181 792 q 194 910 181 867 q 238 985 208 953 q 315 1035 267 1017 q 428 1053 362 1053 q 511 1041 474 1053 q 576 1011 547 1029 q 627 970 605 992 q 665 929 649 949 l 609 833 q 583 871 599 851 q 544 907 567 890 q 491 933 522 923 q 423 944 461 944 q 367 931 390 944 q 331 898 344 917 q 311 856 317 878 q 305 816 305 834 q 312 772 305 796 q 323 746 315 762 q 345 704 331 730 q 384 639 360 678 q 442 545 408 601 q 523 416 476 490 q 629 244 569 342 q 656 294 646 268 q 672 349 666 319 q 680 411 678 378 q 682 486 682 445 l 817 501 m 295 486 q 226 425 251 466 q 201 317 201 384 q 219 230 201 267 q 265 167 237 192 q 328 130 293 142 q 398 118 363 118 q 451 122 428 118 q 491 131 474 125 q 522 145 508 137 q 547 163 535 153 l 295 556 l 295 486 z "},"'":{"ha":903,"x_min":139,"x_max":278,"o":"m 156 1042 l 278 1042 l 278 972 q 253 861 278 920 q 180 741 228 802 l 139 741 q 149 806 145 776 q 154 865 153 837 q 156 919 156 893 q 156 972 156 946 l 156 1042 z "},"(":{"ha":903,"x_min":347,"x_max":652,"o":"m 347 819 q 353 935 347 881 q 381 1027 360 988 q 443 1089 402 1067 q 556 1111 485 1111 q 583 1110 569 1111 q 611 1107 598 1109 q 635 1101 624 1104 q 652 1094 646 1098 l 604 1006 l 594 1008 q 583 1009 590 1008 q 569 1010 577 1010 q 522 995 539 1010 q 497 956 505 981 q 488 898 489 931 q 486 829 486 865 l 486 -10 q 488 -78 486 -46 q 497 -136 489 -111 q 522 -176 505 -161 q 569 -190 539 -190 q 583 -190 577 -190 q 594 -189 590 -190 l 604 -187 l 652 -274 q 635 -282 646 -278 q 611 -287 624 -285 q 583 -291 598 -290 q 556 -292 569 -292 q 443 -269 485 -292 q 381 -208 402 -247 q 353 -115 360 -169 q 347 0 347 -62 l 347 819 z "},")":{"ha":903,"x_min":319,"x_max":624,"o":"m 624 0 q 618 -115 624 -62 q 591 -208 612 -169 q 528 -269 569 -247 q 416 -292 487 -292 q 388 -291 402 -292 q 361 -287 374 -290 q 337 -282 348 -285 q 319 -274 326 -278 l 367 -187 l 377 -189 q 388 -190 382 -190 q 402 -190 394 -190 q 450 -176 433 -190 q 475 -136 467 -161 q 484 -78 483 -111 q 485 -10 485 -46 l 485 829 q 484 898 485 865 q 475 956 483 931 q 450 995 467 981 q 402 1010 433 1010 q 388 1009 394 1010 q 377 1008 382 1008 l 367 1006 l 319 1094 q 337 1101 326 1098 q 361 1107 348 1104 q 388 1110 374 1109 q 416 1111 402 1111 q 528 1089 487 1111 q 591 1027 569 1067 q 618 935 612 988 q 624 819 624 881 l 624 0 z "},"*":{"ha":903,"x_min":228,"x_max":756,"o":"m 577 690 l 674 557 l 606 494 l 502 638 l 485 688 l 469 638 l 372 504 l 291 551 l 394 692 l 439 723 l 383 726 l 228 776 l 247 867 l 412 814 l 458 778 l 442 835 l 442 997 l 535 1007 l 535 832 l 517 776 l 563 811 l 719 861 l 756 776 l 588 722 l 533 720 l 577 690 z "},"+":{"ha":903,"x_min":139,"x_max":764,"o":"m 139 486 l 398 486 l 398 778 l 506 778 l 506 486 l 764 486 l 764 378 l 506 378 l 506 85 l 398 85 l 398 378 l 139 378 l 139 486 z "},",":{"ha":903,"x_min":106,"x_max":311,"o":"m 106 88 q 114 127 106 108 q 136 158 122 145 q 169 180 150 172 q 208 188 188 188 q 247 181 228 188 q 280 160 265 174 q 302 125 294 146 q 311 76 311 103 q 307 5 311 40 q 288 -65 302 -29 q 247 -137 274 -100 q 178 -213 221 -174 l 142 -197 q 170 -134 158 -167 q 189 -75 181 -107 q 198 -12 198 -42 q 164 -4 181 -11 q 134 15 147 3 q 113 46 121 27 q 106 88 106 65 z "},"-":{"ha":903,"x_min":278,"x_max":625,"o":"m 278 417 l 625 417 l 625 309 l 278 309 l 278 417 z "},".":{"ha":903,"x_min":94,"x_max":323,"o":"m 94 104 q 103 149 94 128 q 128 185 113 169 q 164 210 144 201 q 208 219 185 219 q 253 210 232 219 q 289 185 274 201 q 314 149 305 169 q 323 104 323 128 q 314 59 323 81 q 290 23 305 38 q 254 -2 274 7 q 210 -12 233 -12 q 165 -2 186 -12 q 128 23 144 7 q 103 59 113 38 q 94 104 94 81 z "},"/":{"ha":903,"x_min":122,"x_max":753,"o":"m 267 -69 l 122 -69 l 615 1111 l 753 1111 l 267 -69 z "},":":{"ha":903,"x_min":106,"x_max":311,"o":"m 106 92 q 114 133 106 114 q 136 165 122 151 q 168 187 150 179 q 208 195 187 195 q 249 187 230 195 q 281 165 267 179 q 303 133 295 151 q 311 92 311 114 q 303 52 311 71 q 281 19 295 33 q 249 -3 267 5 q 210 -12 231 -12 q 169 -3 188 -12 q 136 19 150 5 q 114 52 122 33 q 106 92 106 71 m 106 449 q 114 490 106 471 q 136 522 122 508 q 168 544 150 536 q 208 552 187 552 q 249 544 230 552 q 281 522 267 536 q 303 490 295 508 q 311 449 311 471 q 303 409 311 428 q 281 376 295 390 q 249 353 267 362 q 210 345 231 345 q 169 353 188 345 q 136 376 150 362 q 114 409 122 390 q 106 449 106 428 z "},";":{"ha":903,"x_min":106,"x_max":311,"o":"m 106 445 q 114 485 106 467 q 136 518 122 504 q 168 540 150 532 q 208 548 187 548 q 249 540 230 548 q 281 518 267 532 q 303 485 295 504 q 311 445 311 467 q 303 405 311 424 q 281 372 295 385 q 249 349 267 358 q 210 341 231 341 q 169 349 188 341 q 136 372 150 358 q 114 405 122 385 q 106 445 106 424 m 106 88 q 114 127 106 108 q 136 158 122 145 q 169 180 150 172 q 208 188 188 188 q 247 181 228 188 q 280 160 265 174 q 302 125 294 146 q 311 76 311 103 q 307 5 311 40 q 288 -65 302 -29 q 247 -137 274 -100 q 178 -213 221 -174 l 142 -197 q 170 -134 158 -167 q 189 -75 181 -107 q 198 -12 198 -42 q 164 -4 181 -11 q 134 15 147 3 q 113 46 121 27 q 106 88 106 65 z "},"<":{"ha":903,"x_min":139,"x_max":764,"o":"m 764 841 l 764 719 l 287 465 l 233 451 l 286 438 l 764 185 l 764 63 l 139 381 l 139 526 l 764 841 z "},"=":{"ha":903,"x_min":139,"x_max":694,"o":"m 139 486 l 694 486 l 694 389 l 139 389 l 139 486 m 139 278 l 694 278 l 694 181 l 139 181 l 139 278 z "},">":{"ha":903,"x_min":139,"x_max":764,"o":"m 764 526 l 764 381 l 139 63 l 139 185 l 617 438 l 670 451 l 616 465 l 139 719 l 139 841 l 764 526 z "},"?":{"ha":903,"x_min":74,"x_max":694,"o":"m 694 794 q 683 716 694 751 q 652 653 671 681 q 608 600 633 624 q 557 552 583 576 q 507 505 531 529 q 463 452 482 481 q 432 390 444 424 q 420 313 420 356 l 274 298 q 286 407 274 360 q 317 491 298 454 q 361 555 336 527 q 411 607 385 583 q 462 651 438 630 q 506 694 487 672 q 537 742 525 716 q 549 800 549 767 q 535 863 549 836 q 497 906 521 889 q 441 930 473 922 q 372 938 408 938 q 317 931 345 938 q 262 908 289 923 q 211 873 235 894 q 167 826 186 852 l 74 903 q 148 978 108 949 q 230 1024 188 1008 q 311 1047 271 1041 q 389 1053 352 1053 q 503 1038 448 1053 q 600 991 558 1022 q 669 910 643 959 q 694 794 694 861 m 263 74 q 269 106 263 91 q 287 133 276 122 q 314 151 299 144 q 347 158 329 158 q 379 151 364 158 q 406 133 394 144 q 424 106 417 122 q 431 74 431 91 q 424 41 431 56 q 406 14 417 25 q 380 -5 395 2 q 347 -12 365 -12 q 314 -5 329 -12 q 287 14 299 2 q 269 41 276 25 q 263 74 263 56 z "},"@":{"ha":903,"x_min":83,"x_max":819,"o":"m 452 1032 q 570 1009 517 1032 q 664 945 623 986 q 734 845 705 903 q 783 718 764 788 q 810 568 801 648 q 819 401 819 488 q 814 241 819 318 q 791 106 808 165 q 740 11 774 47 q 652 -24 707 -24 q 607 -17 629 -24 q 566 3 585 -10 q 535 34 548 16 q 516 75 522 52 l 490 6 q 439 -12 471 -12 q 377 4 407 -12 q 325 51 348 20 q 289 128 302 82 q 275 234 275 174 q 289 343 275 297 q 325 421 302 390 q 379 467 349 452 q 444 483 410 483 q 481 478 467 483 q 503 469 495 474 q 515 455 511 463 l 515 479 q 514 545 515 517 q 508 590 513 572 q 490 616 502 608 q 456 625 478 625 q 413 620 434 625 q 376 609 392 615 q 351 598 360 603 l 342 593 l 342 681 q 371 700 353 692 q 407 714 385 708 q 460 719 429 719 q 551 704 519 719 q 598 657 583 688 q 616 579 613 626 q 618 469 618 532 l 618 121 q 626 84 618 99 q 657 69 634 69 q 681 86 671 69 q 697 130 690 103 q 707 189 703 156 q 713 252 711 222 q 715 309 715 283 q 715 348 715 335 q 703 572 715 467 q 661 755 691 676 q 579 878 631 833 q 449 924 528 924 q 380 904 413 924 q 318 849 347 884 q 266 765 290 813 q 226 658 243 716 q 201 536 210 601 q 192 406 192 472 q 198 263 192 334 q 216 127 203 192 q 249 7 229 63 q 299 -89 269 -49 q 367 -153 328 -130 q 455 -176 406 -176 q 495 -171 476 -176 q 532 -158 515 -166 q 562 -140 549 -149 q 583 -120 575 -130 l 617 -224 q 540 -270 580 -255 q 452 -285 499 -285 q 331 -260 384 -285 q 236 -192 277 -236 q 166 -88 195 -149 q 118 46 137 -27 q 92 203 100 119 q 83 375 83 286 q 93 550 83 466 q 124 707 103 634 q 175 840 144 781 q 247 943 206 900 q 339 1009 288 985 q 452 1032 390 1032 m 515 363 q 510 367 515 365 q 499 371 507 369 q 474 373 490 373 q 436 365 453 373 q 407 341 419 358 q 388 298 394 324 q 381 234 381 272 q 385 178 381 203 q 398 135 389 153 q 419 107 406 117 q 449 97 432 97 q 478 110 465 97 q 499 141 490 124 q 515 185 508 160 l 515 363 z "},"A":{"ha":903,"x_min":22,"x_max":878,"o":"m 22 0 l 350 903 l 374 1042 l 498 1056 l 878 0 l 740 0 l 637 313 l 265 313 l 150 0 l 22 0 m 448 972 l 417 750 l 299 417 l 603 417 l 479 750 l 448 972 z "},"B":{"ha":903,"x_min":125,"x_max":776,"o":"m 146 0 l 146 896 l 125 1035 q 211 1044 167 1040 q 300 1049 255 1049 q 453 1039 381 1049 q 582 1002 526 1028 q 669 930 637 976 q 702 812 702 883 q 669 681 702 736 q 576 597 637 626 l 469 567 l 572 557 q 651 525 614 544 q 716 476 689 505 q 760 409 744 448 q 776 319 776 370 q 760 214 776 260 q 717 132 744 167 q 654 71 690 97 q 577 30 618 46 q 491 7 535 15 q 403 0 447 0 l 146 0 m 274 111 l 351 111 q 473 121 419 111 q 564 155 527 131 q 621 216 601 178 q 640 313 640 255 q 622 401 640 365 q 571 462 604 438 q 492 496 538 485 q 389 507 445 507 l 274 507 l 274 111 m 274 797 l 274 615 l 347 615 q 431 628 390 617 q 505 661 472 639 q 557 716 537 683 q 576 797 576 750 q 555 873 576 843 q 501 921 534 903 q 426 945 467 938 q 345 952 385 952 q 296 950 322 952 q 249 944 271 949 l 274 797 z "},"C":{"ha":903,"x_min":69,"x_max":797,"o":"m 797 72 q 739 33 768 49 q 678 7 710 17 q 610 -7 646 -3 q 534 -12 575 -12 q 407 8 467 -12 q 295 64 347 28 q 201 149 243 99 q 131 260 160 199 q 85 390 101 321 q 69 535 69 460 q 99 734 69 640 q 188 899 129 828 q 334 1012 247 970 q 536 1053 422 1053 q 680 1028 616 1053 q 794 955 744 1003 l 732 881 q 697 902 715 892 q 655 919 678 912 q 606 932 633 927 q 547 936 579 936 q 400 904 463 936 q 295 818 337 872 q 233 691 253 763 q 213 537 213 618 q 223 435 213 486 q 253 335 233 383 q 302 246 273 288 q 369 173 331 204 q 453 124 407 142 q 552 106 499 106 q 607 109 583 106 q 652 118 631 112 q 694 134 673 124 q 743 160 716 144 l 797 72 z "},"D":{"ha":903,"x_min":122,"x_max":851,"o":"m 122 1042 q 171 1045 143 1044 q 228 1048 199 1047 q 285 1049 257 1049 q 337 1049 314 1049 q 541 1022 447 1049 q 704 936 635 995 q 812 785 773 877 q 851 563 851 692 q 831 380 851 461 q 777 237 812 299 q 695 130 743 174 q 589 56 647 85 q 465 14 531 27 q 331 0 400 0 l 142 0 l 142 896 l 122 1042 m 274 799 l 274 111 l 288 111 q 444 132 378 111 q 556 187 510 153 q 631 266 602 222 q 677 359 660 311 q 699 454 693 407 q 705 542 705 501 q 699 653 705 601 q 678 751 694 706 q 637 831 663 795 q 569 891 610 866 q 468 930 527 916 q 331 943 410 943 q 307 942 319 943 q 283 940 294 942 l 257 938 l 274 799 z "},"E":{"ha":903,"x_min":125,"x_max":788,"o":"m 788 111 l 774 0 l 135 0 l 146 139 l 146 896 l 125 1042 l 764 1042 l 764 931 l 260 931 l 274 799 l 274 615 l 715 615 l 715 514 l 274 514 l 274 236 l 267 111 l 788 111 z "},"F":{"ha":903,"x_min":122,"x_max":778,"o":"m 274 0 l 142 0 l 142 896 l 122 1042 l 778 1042 l 764 931 l 260 931 l 274 799 l 274 615 l 705 615 l 705 514 l 274 514 l 274 0 z "},"G":{"ha":903,"x_min":89,"x_max":826,"o":"m 826 137 q 763 78 798 106 q 685 31 727 51 q 592 0 642 11 q 485 -12 542 -12 q 310 32 385 -12 q 186 149 235 75 q 113 323 138 224 q 89 535 89 422 q 98 670 89 605 q 128 794 108 736 q 180 899 148 851 q 258 981 213 947 q 364 1034 304 1015 q 501 1053 424 1053 q 652 1028 581 1053 q 773 955 723 1003 l 710 881 q 627 919 677 903 q 512 936 577 936 q 413 922 456 936 q 340 881 371 907 q 289 818 309 854 q 257 737 269 781 q 240 642 244 692 q 235 537 235 591 q 240 439 235 489 q 257 340 245 388 q 289 250 269 292 q 339 176 309 208 q 409 125 368 144 q 503 106 449 106 q 565 113 534 106 q 622 131 595 120 q 670 156 649 142 q 704 183 692 169 l 704 425 l 486 439 l 486 529 l 826 529 l 826 137 z "},"H":{"ha":903,"x_min":110,"x_max":789,"o":"m 657 0 l 657 503 l 263 503 l 263 0 l 131 0 l 131 896 l 110 1042 l 263 1056 l 263 615 l 657 615 l 657 1042 l 789 1056 l 789 0 l 657 0 z "},"I":{"ha":903,"x_min":125,"x_max":778,"o":"m 139 1042 l 764 1042 l 764 931 l 515 931 l 515 111 l 778 111 l 764 0 l 139 0 l 139 111 l 386 111 l 386 931 l 125 931 l 139 1042 z "},"J":{"ha":903,"x_min":167,"x_max":757,"o":"m 271 1042 l 757 1042 l 757 299 q 740 176 757 231 q 688 78 724 122 q 593 11 651 34 q 450 -12 535 -12 q 353 1 396 -12 q 276 34 310 14 q 216 79 242 55 q 167 126 189 103 l 238 208 q 263 186 244 201 q 309 155 282 170 q 370 127 336 139 q 443 115 404 115 q 582 166 533 115 q 632 326 632 217 l 632 797 l 646 931 l 285 931 l 271 1042 z "},"K":{"ha":903,"x_min":122,"x_max":827,"o":"m 142 0 l 142 896 l 122 1042 l 275 1056 l 275 594 l 654 1042 l 808 1042 l 440 601 l 322 557 l 443 517 l 827 0 l 663 0 l 275 518 l 275 0 l 142 0 z "},"L":{"ha":903,"x_min":124,"x_max":773,"o":"m 266 111 l 773 111 l 759 0 l 131 0 l 144 139 l 144 896 l 124 1042 l 273 1056 l 273 236 l 266 111 z "},"M":{"ha":903,"x_min":83,"x_max":801,"o":"m 676 0 l 676 626 l 717 972 l 713 972 l 606 640 l 486 347 l 417 347 l 294 639 l 181 972 l 176 972 l 228 626 l 228 0 l 103 0 l 103 896 l 83 1042 l 232 1056 l 403 660 l 452 486 l 500 660 l 657 1042 l 801 1056 l 801 0 l 676 0 z "},"N":{"ha":903,"x_min":97,"x_max":771,"o":"m 656 0 l 313 658 l 202 945 l 198 944 l 243 639 l 243 0 l 118 0 l 118 896 l 97 1042 l 237 1056 l 581 387 l 697 97 l 701 98 l 646 403 l 646 1042 l 771 1056 l 771 0 l 656 0 z "},"O":{"ha":903,"x_min":69,"x_max":833,"o":"m 451 -12 q 336 7 389 -12 q 241 61 284 26 q 167 145 199 97 q 113 253 135 194 q 80 380 91 313 q 69 521 69 448 q 80 661 69 594 q 111 789 90 729 q 164 897 133 848 q 238 980 196 945 q 334 1034 281 1015 q 451 1053 388 1053 q 566 1034 514 1053 q 661 980 619 1015 q 736 897 704 945 q 790 789 768 848 q 823 661 812 729 q 833 521 833 594 q 823 380 833 448 q 791 253 813 313 q 739 145 770 194 q 665 61 707 97 q 569 7 622 26 q 451 -12 515 -12 m 689 499 q 686 599 689 548 q 673 698 683 649 q 647 789 664 746 q 604 863 631 831 q 539 913 577 894 q 447 932 500 932 q 360 915 397 932 q 298 870 324 899 q 256 802 272 841 q 230 721 239 764 q 217 633 221 678 q 214 545 214 588 q 217 444 214 496 q 230 345 220 393 q 256 254 239 297 q 299 179 272 211 q 365 128 326 147 q 456 110 403 110 q 541 127 505 110 q 604 173 578 144 q 647 241 630 203 q 673 323 663 280 q 685 412 682 367 q 689 499 689 457 z "},"P":{"ha":903,"x_min":151,"x_max":836,"o":"m 308 0 l 176 0 l 176 896 l 151 1035 q 200 1041 172 1038 q 260 1046 228 1044 q 323 1049 291 1048 q 382 1050 355 1050 q 586 1029 500 1050 q 727 970 672 1008 q 809 879 783 932 q 836 763 836 826 q 803 606 836 669 q 703 505 769 543 q 538 450 638 466 q 308 433 439 433 l 308 0 m 308 797 l 308 531 q 488 543 413 531 q 611 582 563 555 q 681 652 659 608 q 703 760 703 696 q 677 843 703 807 q 608 902 650 878 q 514 939 565 926 q 413 951 463 951 q 385 951 401 951 q 352 950 369 951 q 320 947 335 949 q 294 944 304 946 l 308 797 z "},"Q":{"ha":903,"x_min":69,"x_max":833,"o":"m 636 218 q 660 268 649 240 q 679 331 672 295 q 690 414 686 367 q 694 522 694 461 q 690 619 694 570 q 674 715 685 669 q 645 801 663 761 q 599 871 627 842 q 534 918 572 901 q 447 935 497 935 q 364 918 400 935 q 302 872 328 901 q 258 804 276 843 q 228 722 240 765 q 213 633 217 678 q 208 545 208 588 q 212 436 208 490 q 225 335 215 383 q 254 247 235 287 q 302 177 272 206 q 376 131 333 147 q 481 113 420 114 q 494 115 488 113 q 511 119 499 116 q 480 175 493 151 q 452 215 466 199 q 422 239 438 231 q 381 247 405 247 l 417 347 q 478 333 451 347 q 531 290 506 319 q 581 220 556 262 q 636 123 606 178 l 636 218 m 525 0 q 476 -8 502 -6 q 417 -10 450 -10 q 266 34 331 -10 q 157 151 201 78 q 91 321 113 225 q 69 521 69 417 q 80 661 69 594 q 111 789 90 729 q 164 897 133 848 q 238 980 196 945 q 334 1034 281 1015 q 451 1053 388 1053 q 617 1015 545 1053 q 736 908 688 976 q 809 746 784 840 q 833 543 833 652 q 826 410 833 476 q 802 284 818 344 q 759 173 785 224 q 696 86 733 122 q 684 75 690 81 q 672 64 678 69 q 696 29 685 42 q 719 10 706 17 q 751 2 733 3 q 799 0 770 0 l 764 -101 q 700 -95 729 -101 q 645 -72 672 -90 q 592 -19 618 -53 q 538 71 567 15 l 525 95 l 525 0 z "},"R":{"ha":903,"x_min":121,"x_max":802,"o":"m 272 426 l 272 0 l 145 0 l 145 896 l 121 1035 q 223 1045 167 1040 q 340 1050 279 1050 q 501 1032 427 1050 q 630 977 576 1013 q 715 887 684 941 q 745 763 745 833 q 720 635 745 690 q 652 540 695 579 q 550 476 609 501 q 424 440 491 451 l 522 412 l 802 0 l 647 0 l 367 413 q 350 425 360 423 q 335 426 340 426 l 272 426 m 272 797 l 272 531 l 354 531 q 466 549 417 531 q 548 597 515 567 q 599 667 581 627 q 616 752 616 707 q 605 822 616 792 q 574 875 594 853 q 529 913 555 897 q 475 938 503 928 q 416 951 446 947 q 357 955 385 955 q 305 953 328 955 q 258 947 281 951 l 272 797 z "},"S":{"ha":903,"x_min":134,"x_max":785,"o":"m 134 65 l 197 169 q 234 149 211 160 q 284 127 256 138 q 343 110 312 117 q 406 103 374 103 q 493 114 449 103 q 571 147 536 124 q 628 204 606 169 q 650 287 650 239 q 629 366 650 332 q 574 427 608 400 q 497 476 540 454 q 407 521 453 499 q 318 567 362 543 q 240 622 274 591 q 185 691 206 652 q 165 782 165 730 q 193 900 165 849 q 267 985 222 951 q 372 1036 313 1019 q 490 1053 430 1053 q 763 970 638 1053 l 695 885 q 605 926 648 913 q 508 939 561 939 q 432 931 470 939 q 364 907 394 924 q 315 862 334 890 q 296 795 296 835 q 317 728 296 756 q 373 677 338 699 q 451 634 407 654 q 541 593 494 615 q 631 547 587 572 q 709 487 674 522 q 764 407 743 453 q 785 298 785 360 q 754 162 785 220 q 670 66 722 104 q 552 8 619 27 q 416 -12 485 -12 q 333 -7 372 -12 q 261 8 295 -1 q 195 32 226 18 q 134 65 164 47 z "},"T":{"ha":903,"x_min":90,"x_max":809,"o":"m 385 0 l 385 931 l 90 931 l 90 1042 l 809 1042 l 809 931 l 517 931 l 517 0 l 385 0 z "},"U":{"ha":903,"x_min":108,"x_max":774,"o":"m 774 1042 l 774 363 q 752 198 774 269 q 686 81 729 128 q 582 11 644 35 q 441 -12 520 -12 q 297 18 356 -12 q 200 101 238 47 q 145 231 163 155 q 128 398 128 306 l 128 896 l 108 1042 l 260 1056 l 260 385 q 273 267 260 319 q 310 180 286 215 q 369 125 335 144 q 448 106 404 106 q 596 167 550 106 q 642 350 642 228 l 642 1042 l 774 1042 z "},"V":{"ha":903,"x_min":78,"x_max":830,"o":"m 420 347 l 460 97 l 487 315 l 702 1042 l 830 1042 l 561 125 l 543 -14 l 385 0 l 78 1042 l 210 1056 l 420 347 z "},"W":{"ha":903,"x_min":26,"x_max":875,"o":"m 336 486 l 403 764 l 500 764 l 572 486 l 621 139 l 624 139 l 646 458 l 752 1042 l 875 1042 l 686 0 l 560 0 l 494 313 l 453 660 l 450 660 l 410 313 l 342 0 l 218 0 l 26 1042 l 147 1056 l 264 458 l 285 139 l 288 139 l 336 486 z "},"X":{"ha":903,"x_min":70,"x_max":853,"o":"m 701 0 l 508 360 l 455 486 l 422 375 l 208 0 l 70 0 l 392 555 l 110 1042 l 257 1056 l 438 733 l 494 597 l 518 708 l 693 1042 l 832 1042 l 555 539 l 853 0 l 701 0 z "},"Y":{"ha":903,"x_min":63,"x_max":813,"o":"m 480 649 l 680 1042 l 813 1042 l 511 449 l 511 0 l 365 0 l 365 448 l 63 1042 l 204 1056 l 404 663 l 459 490 l 480 649 z "},"Z":{"ha":903,"x_min":112,"x_max":778,"o":"m 765 111 l 778 0 l 126 0 l 112 35 l 504 833 l 632 958 l 448 931 l 174 931 l 160 1042 l 733 1042 l 744 1026 l 347 208 l 224 83 l 408 111 l 765 111 z "},"[":{"ha":903,"x_min":278,"x_max":675,"o":"m 293 917 l 278 1056 l 675 1056 l 675 951 l 417 951 l 431 813 l 431 -49 l 417 -187 l 675 -187 l 675 -292 l 278 -292 l 293 -153 l 293 917 z "},"\\":{"ha":903,"x_min":122,"x_max":753,"o":"m 122 1111 l 260 1111 l 753 -69 l 608 -69 l 122 1111 z "},"]":{"ha":903,"x_min":297,"x_max":694,"o":"m 679 -153 l 694 -292 l 297 -292 l 297 -187 l 556 -187 l 542 -49 l 542 813 l 556 951 l 297 951 l 297 1056 l 694 1056 l 679 917 l 679 -153 z "},"^":{"ha":903,"x_min":85,"x_max":819,"o":"m 819 633 l 679 633 l 484 860 l 453 938 l 422 862 l 235 635 l 85 635 l 403 1042 l 492 1053 l 819 633 z "},"_":{"ha":903,"x_min":69,"x_max":833,"o":"m 69 -208 l 833 -208 l 833 -316 l 69 -316 l 69 -208 z "},"`":{"ha":903,"x_min":337,"x_max":597,"o":"m 597 833 l 493 833 l 337 1042 l 478 1056 l 597 833 z "},"a":{"ha":903,"x_min":118,"x_max":771,"o":"m 771 0 l 632 0 l 632 113 l 567 35 q 536 17 555 26 q 497 2 518 9 q 455 -8 476 -4 q 414 -12 433 -12 q 309 5 362 -12 q 214 52 256 21 q 145 131 172 84 q 118 239 118 178 q 145 350 118 303 q 217 428 173 397 q 319 473 262 458 q 434 488 376 488 q 549 480 500 488 q 632 460 597 473 l 632 490 q 622 563 632 531 q 590 618 612 596 q 535 653 569 641 q 455 665 501 665 q 380 659 411 665 q 321 648 348 654 q 290 640 305 644 q 262 632 276 636 l 212 725 q 281 750 241 738 q 357 768 315 760 q 462 776 400 776 q 598 754 542 776 q 690 694 654 733 q 741 600 725 655 q 757 479 757 546 l 757 125 l 771 0 m 632 365 l 590 370 q 565 372 581 371 q 530 374 549 374 l 493 376 q 462 376 475 376 q 385 369 423 376 q 318 347 348 363 q 270 305 289 331 q 252 240 252 278 q 266 183 252 208 q 303 138 280 157 q 357 109 326 119 q 419 99 387 99 q 535 124 484 99 q 632 190 587 149 l 632 365 z "},"b":{"ha":903,"x_min":132,"x_max":799,"o":"m 271 119 q 301 111 284 115 q 339 105 319 108 q 379 101 358 102 q 419 99 399 99 q 496 113 462 99 q 558 150 531 127 q 605 205 585 174 q 638 272 625 237 q 657 344 651 307 q 663 417 663 382 q 645 534 663 487 q 599 610 627 581 q 536 652 570 640 q 469 665 501 665 q 364 643 414 665 q 271 587 315 622 l 271 119 m 146 986 l 132 1111 l 271 1125 l 271 676 l 330 740 q 404 766 365 756 q 482 776 442 776 q 596 752 539 776 q 698 682 653 728 q 770 569 742 636 q 799 414 799 501 q 767 240 799 318 q 682 105 735 161 q 559 19 629 49 q 413 -12 490 -12 q 328 -9 369 -12 q 251 0 287 -6 q 189 11 216 5 q 146 24 161 18 l 146 986 z "},"c":{"ha":903,"x_min":118,"x_max":768,"o":"m 699 610 q 624 649 672 634 q 503 665 576 665 q 398 643 444 665 q 320 583 352 621 q 270 496 288 546 q 253 392 253 447 q 270 283 253 335 q 318 192 286 231 q 399 129 351 152 q 510 106 447 106 q 580 114 547 106 q 640 134 613 122 q 686 157 667 145 q 714 175 706 168 l 764 77 q 733 53 753 68 q 680 24 712 38 q 603 -1 647 9 q 501 -12 559 -12 q 343 23 414 -12 q 223 114 273 57 q 145 246 173 172 q 118 401 118 320 q 145 541 118 473 q 222 660 172 608 q 343 744 272 713 q 504 776 415 776 q 657 756 589 776 q 768 688 724 736 l 699 610 z "},"d":{"ha":903,"x_min":105,"x_max":772,"o":"m 518 653 q 402 629 454 653 q 313 564 350 605 q 256 467 276 523 q 235 349 235 412 q 253 240 235 287 q 300 163 271 194 q 365 116 328 131 q 438 100 401 100 q 499 111 470 100 q 553 139 528 122 q 599 175 578 156 q 633 213 619 195 l 633 653 l 518 653 m 633 0 l 633 113 l 573 34 q 506 3 548 17 q 410 -12 465 -12 q 292 11 348 -12 q 195 80 237 33 q 129 197 153 126 q 105 365 105 268 q 137 521 105 449 q 225 648 169 594 q 356 733 281 702 q 517 764 431 764 l 633 764 l 633 1125 l 758 1111 l 758 125 l 772 0 l 633 0 z "},"e":{"ha":903,"x_min":104,"x_max":769,"o":"m 718 90 q 671 49 697 67 q 614 16 645 30 q 545 -5 583 3 q 460 -12 507 -12 q 301 21 368 -12 q 190 108 233 53 q 125 234 146 163 q 104 382 104 305 q 114 480 104 431 q 143 572 124 528 q 191 653 163 615 q 258 717 220 690 q 342 760 296 744 q 443 776 388 776 q 578 751 518 776 q 681 683 639 727 q 747 578 724 640 q 769 443 769 517 q 768 396 769 422 q 764 347 767 370 l 236 347 q 253 248 236 294 q 298 170 269 203 q 366 118 327 137 q 451 99 406 99 q 527 106 496 99 q 581 122 559 113 q 617 143 603 132 q 642 164 632 154 l 718 90 m 647 451 l 647 482 q 632 555 647 522 q 589 613 616 588 q 527 651 563 638 q 453 665 492 665 q 372 650 407 665 q 312 612 337 635 q 272 561 287 589 q 249 508 256 533 l 208 429 l 337 451 l 647 451 z "},"f":{"ha":903,"x_min":103,"x_max":795,"o":"m 103 764 l 278 764 l 278 872 q 301 977 278 931 q 365 1056 325 1024 q 460 1106 406 1088 q 575 1123 514 1123 q 638 1117 606 1123 q 700 1103 670 1112 q 754 1083 729 1094 q 795 1062 779 1072 l 736 980 q 711 990 728 985 q 674 1001 694 996 q 633 1009 654 1006 q 597 1012 613 1012 q 534 1004 567 1012 q 472 978 500 996 q 425 932 444 960 q 406 865 406 904 l 406 764 l 717 764 l 703 653 l 410 653 l 410 0 l 278 0 l 278 653 l 103 653 l 103 764 z "},"g":{"ha":903,"x_min":104,"x_max":757,"o":"m 632 94 l 572 17 q 554 8 565 13 q 526 -1 542 3 q 487 -9 509 -6 q 438 -12 465 -12 q 354 2 395 -12 q 276 42 313 16 q 208 103 239 67 q 153 182 176 139 q 117 275 130 226 q 104 378 104 325 q 131 532 104 460 q 205 658 157 604 q 320 744 253 713 q 469 776 388 776 q 520 774 495 776 q 566 764 544 772 l 632 665 l 632 778 l 757 764 l 757 -32 q 735 -160 757 -100 q 670 -264 713 -219 q 566 -333 628 -308 q 425 -359 504 -359 q 329 -345 370 -359 q 258 -315 288 -331 q 227 -294 242 -305 q 201 -269 213 -283 l 269 -193 q 290 -208 278 -201 q 314 -221 301 -215 q 364 -240 335 -231 q 426 -248 392 -248 q 506 -230 469 -248 q 572 -182 544 -212 q 616 -110 600 -151 q 632 -22 632 -69 l 632 94 m 632 579 q 588 622 614 602 q 536 651 567 638 q 466 665 506 665 q 391 651 424 665 q 332 616 358 638 q 289 564 307 594 q 259 502 270 535 q 242 435 247 469 q 236 370 236 401 q 255 261 236 311 q 303 176 273 212 q 371 120 333 140 q 449 100 409 100 q 512 108 484 100 q 562 128 540 115 q 601 157 584 141 q 632 191 618 174 l 632 579 z "},"h":{"ha":903,"x_min":133,"x_max":757,"o":"m 272 0 l 147 0 l 147 972 l 133 1111 l 272 1125 l 272 660 l 333 740 q 411 765 360 755 q 542 776 462 776 q 702 707 647 776 q 757 507 757 638 l 757 0 l 625 0 l 625 492 q 617 572 625 539 q 594 625 609 604 q 558 655 580 646 q 510 665 537 665 q 430 656 468 665 q 361 635 392 648 q 307 607 330 622 q 272 578 283 592 l 272 0 z "},"i":{"ha":903,"x_min":139,"x_max":799,"o":"m 494 273 q 498 206 494 237 q 513 153 503 176 q 541 119 524 131 q 584 106 558 106 q 650 112 618 106 q 708 125 683 117 q 751 138 734 132 q 772 146 768 144 l 799 39 q 777 28 795 37 q 730 11 759 20 q 662 -5 701 3 q 577 -12 623 -12 q 467 10 509 -12 q 401 72 425 33 q 370 165 378 111 q 362 280 362 218 l 362 639 l 390 681 l 292 653 l 153 653 l 139 764 l 494 764 l 494 273 m 358 1042 l 498 1042 l 498 903 l 358 903 l 358 1042 z "},"j":{"ha":903,"x_min":181,"x_max":623,"o":"m 483 1042 l 623 1042 l 623 903 l 483 903 l 483 1042 m 515 681 l 417 653 l 278 653 l 264 764 l 619 764 l 619 -67 q 611 -183 619 -129 q 579 -275 603 -236 q 514 -337 556 -315 q 403 -359 472 -359 q 319 -352 358 -359 q 251 -336 280 -344 q 203 -319 222 -327 q 181 -308 185 -310 l 208 -201 q 230 -209 213 -203 q 272 -223 247 -215 q 330 -235 298 -230 q 397 -241 362 -241 q 440 -228 422 -241 q 467 -194 457 -216 q 482 -141 478 -172 q 487 -74 487 -110 l 487 639 l 515 681 z "},"k":{"ha":903,"x_min":133,"x_max":778,"o":"m 147 0 l 147 986 l 133 1111 l 272 1125 l 272 479 l 542 764 l 701 764 l 438 479 l 314 435 l 438 394 l 778 0 l 615 0 l 272 387 l 272 0 l 147 0 z "},"l":{"ha":903,"x_min":131,"x_max":764,"o":"m 354 986 l 382 1028 l 285 1000 l 145 1000 l 131 1111 l 479 1111 l 479 261 q 486 184 479 215 q 505 134 493 153 q 533 107 517 115 q 569 99 550 99 q 620 103 597 99 q 662 114 644 108 q 694 127 681 120 q 716 139 708 134 l 764 55 q 741 39 758 50 q 697 17 724 28 q 634 -3 670 6 q 556 -12 599 -12 q 453 11 493 -12 q 392 74 414 34 q 362 166 370 113 q 354 278 354 218 l 354 986 z "},"m":{"ha":903,"x_min":60,"x_max":849,"o":"m 183 0 l 60 0 l 60 764 l 183 778 l 183 651 q 206 694 198 678 q 218 717 214 710 q 222 726 222 724 l 224 728 q 241 742 230 734 q 269 758 253 751 q 308 770 286 765 q 356 776 329 776 q 420 766 395 776 q 461 738 445 756 q 486 695 477 720 q 503 641 495 670 l 547 724 q 569 740 553 731 q 605 757 585 749 q 649 770 626 765 q 694 776 672 776 q 777 758 747 776 q 824 707 808 740 q 844 626 840 674 q 849 521 849 579 l 849 0 l 725 0 l 725 514 q 724 580 725 551 q 716 627 723 608 q 693 655 708 646 q 649 665 677 665 q 615 656 635 665 q 575 634 594 647 q 538 603 555 620 q 514 569 521 586 q 514 555 514 565 q 515 536 515 546 q 515 517 515 526 l 515 0 l 391 0 l 391 500 q 390 568 391 538 q 381 620 388 599 q 357 653 374 641 q 311 665 341 665 q 283 658 300 665 q 247 640 265 652 q 211 611 228 628 q 183 572 194 594 l 183 0 z "},"n":{"ha":903,"x_min":147,"x_max":757,"o":"m 272 0 l 147 0 l 147 764 l 272 778 l 272 644 l 314 725 q 343 742 326 733 q 385 759 360 751 q 442 771 409 766 q 521 776 476 776 q 620 758 576 776 q 694 707 664 740 q 741 626 724 674 q 757 521 757 579 l 757 0 l 632 0 l 632 521 q 620 585 632 558 q 586 630 608 613 q 536 656 565 648 q 476 665 508 665 q 411 656 442 665 q 354 635 381 648 q 307 607 328 622 q 272 579 285 592 l 272 0 z "},"o":{"ha":903,"x_min":100,"x_max":795,"o":"m 451 -12 q 309 18 374 -12 q 199 102 245 49 q 126 227 152 155 q 100 384 100 299 q 125 540 100 468 q 196 664 150 612 q 307 746 242 717 q 451 776 372 776 q 591 746 528 776 q 700 664 654 717 q 770 540 745 612 q 795 384 795 468 q 771 227 795 299 q 702 102 747 155 q 594 18 658 49 q 451 -12 530 -12 m 663 365 q 651 476 663 422 q 614 573 640 530 q 547 642 588 615 q 448 668 506 668 q 351 645 392 668 q 284 584 310 622 q 245 497 258 546 q 232 397 232 449 q 245 287 232 341 q 284 190 258 233 q 353 122 311 148 q 453 96 395 96 q 548 119 508 96 q 614 180 588 142 q 651 266 639 217 q 663 365 663 314 z "},"p":{"ha":903,"x_min":146,"x_max":799,"o":"m 271 111 l 385 111 q 501 132 449 111 q 590 192 553 153 q 647 283 626 230 q 667 401 667 337 q 648 519 667 469 q 600 601 629 569 q 535 649 571 633 q 465 665 499 665 q 402 656 431 665 q 348 634 372 647 q 303 605 323 621 q 271 574 284 589 l 271 111 m 146 -347 l 146 764 l 271 778 l 271 656 l 337 744 q 394 766 357 756 q 485 776 431 776 q 599 749 543 776 q 700 672 656 722 q 771 551 744 622 q 799 392 799 480 q 766 235 799 307 q 675 111 733 163 q 539 29 617 58 q 372 0 461 0 l 271 0 l 271 -347 l 146 -347 z "},"q":{"ha":903,"x_min":105,"x_max":758,"o":"m 633 649 q 602 655 619 652 q 564 660 584 658 q 524 663 544 662 q 484 665 503 665 q 374 638 420 665 q 299 567 328 610 q 255 470 269 524 q 240 364 240 417 q 259 244 240 294 q 306 162 277 194 q 368 115 334 130 q 435 99 403 99 q 488 107 462 99 q 540 126 515 114 q 588 154 565 138 q 633 188 611 170 l 633 649 m 633 94 l 560 20 q 490 -4 524 3 q 422 -12 455 -12 q 345 0 383 -12 q 272 34 307 11 q 206 89 236 56 q 153 163 176 121 q 118 255 131 205 q 105 364 105 306 q 136 536 105 460 q 219 666 167 613 q 341 747 272 719 q 487 776 410 776 q 573 772 531 776 q 652 763 616 768 q 716 751 688 757 q 758 740 744 744 l 758 -347 l 633 -347 l 633 94 z "},"r":{"ha":903,"x_min":147,"x_max":785,"o":"m 272 622 l 335 731 q 379 755 354 746 q 431 768 404 764 q 484 774 457 773 q 535 776 510 776 q 624 771 587 776 q 686 760 660 767 q 726 745 711 753 q 750 733 742 738 l 785 535 l 681 521 l 646 644 q 628 649 640 647 q 601 653 617 651 q 569 656 586 655 q 537 658 552 658 q 449 647 490 658 q 376 617 409 636 q 316 574 342 599 q 272 521 290 549 l 272 0 l 147 0 l 147 764 l 272 778 l 272 622 z "},"s":{"ha":903,"x_min":122,"x_max":760,"o":"m 668 624 q 636 639 655 631 q 595 653 618 647 q 545 664 572 660 q 486 669 517 669 q 403 665 444 669 q 332 649 363 660 q 282 619 301 638 q 263 571 263 601 q 281 528 263 546 q 330 498 300 510 q 399 475 360 485 q 476 458 437 466 q 551 441 515 449 q 613 424 587 433 q 670 394 644 412 q 717 352 697 376 q 749 299 738 328 q 760 237 760 270 q 743 156 760 192 q 696 93 726 120 q 628 45 667 65 q 545 13 589 26 q 457 -6 502 0 q 372 -12 413 -12 q 313 -7 348 -12 q 241 5 278 -3 q 172 24 205 13 q 122 48 140 35 l 167 147 q 211 130 184 138 q 268 115 238 122 q 326 103 298 108 q 373 99 354 99 q 421 102 394 99 q 476 110 448 104 q 531 126 504 116 q 578 151 558 136 q 612 188 599 167 q 625 236 625 208 q 607 282 625 263 q 559 314 589 301 q 492 336 529 327 q 416 354 455 346 q 341 371 377 363 q 278 393 305 380 q 212 434 238 412 q 170 480 186 456 q 149 531 155 504 q 142 585 142 557 q 170 670 142 634 q 246 730 199 706 q 354 764 293 753 q 482 776 415 776 q 552 772 518 776 q 617 760 587 767 q 671 745 647 753 q 708 727 694 736 l 668 624 z "},"t":{"ha":903,"x_min":69,"x_max":731,"o":"m 397 261 q 402 184 397 215 q 417 134 407 153 q 442 107 427 115 q 476 99 457 99 q 541 107 509 99 q 601 125 573 115 q 650 145 628 135 q 683 160 672 155 l 731 76 q 701 56 725 70 q 641 26 677 42 q 558 0 604 11 q 463 -12 513 -12 q 362 11 400 -12 q 304 74 324 34 q 278 166 284 113 q 272 278 272 218 l 272 653 l 69 653 l 69 764 l 272 764 l 272 909 l 393 986 l 393 764 l 729 764 l 715 653 l 397 653 l 397 261 z "},"u":{"ha":903,"x_min":147,"x_max":772,"o":"m 647 764 l 772 778 l 772 0 l 647 0 l 647 125 l 604 51 q 584 33 598 43 q 549 12 570 22 q 501 -5 528 2 q 441 -12 474 -12 q 300 14 357 -12 q 210 83 244 40 q 161 183 176 126 q 147 299 147 239 l 147 764 l 272 778 l 272 299 q 281 217 272 253 q 311 156 290 181 q 370 116 333 130 q 460 103 406 103 q 532 114 501 103 q 586 142 563 126 q 625 176 610 158 q 647 208 640 194 l 647 764 z "},"v":{"ha":903,"x_min":122,"x_max":770,"o":"m 770 778 l 513 -14 l 369 0 l 122 764 l 249 778 l 415 265 l 451 103 l 486 265 l 649 764 l 770 778 z "},"w":{"ha":903,"x_min":69,"x_max":833,"o":"m 581 278 l 623 104 l 631 333 l 721 764 l 833 778 l 682 0 l 580 0 l 488 242 l 449 521 l 412 243 l 321 0 l 219 0 l 69 764 l 182 778 l 267 333 l 282 104 l 397 615 l 503 615 l 581 278 z "},"x":{"ha":903,"x_min":74,"x_max":824,"o":"m 668 0 l 474 272 l 443 354 l 412 272 l 212 0 l 74 0 l 367 408 l 111 764 l 258 778 l 435 535 l 462 458 l 488 535 l 652 764 l 799 778 l 538 405 l 824 0 l 668 0 z "},"y":{"ha":903,"x_min":114,"x_max":806,"o":"m 494 253 l 681 764 l 806 778 l 526 -12 q 481 -128 505 -70 q 427 -231 457 -185 q 359 -305 397 -277 q 272 -333 321 -333 q 201 -318 233 -333 q 139 -278 168 -303 l 190 -197 q 200 -206 194 -201 q 215 -217 207 -212 q 232 -226 223 -222 q 251 -229 242 -229 q 297 -211 276 -229 q 335 -165 317 -194 q 368 -102 353 -137 q 397 -33 383 -67 l 114 764 l 246 778 l 429 253 l 465 92 l 494 253 z "},"z":{"ha":903,"x_min":126,"x_max":778,"o":"m 764 111 l 778 0 l 140 0 l 126 35 l 475 574 l 608 681 l 438 653 l 186 653 l 172 764 l 717 764 l 731 730 l 391 194 l 258 83 l 373 111 l 764 111 z "},"{":{"ha":903,"x_min":158,"x_max":732,"o":"m 158 434 l 243 434 q 298 453 277 439 q 329 489 318 467 q 344 542 340 511 q 347 611 347 572 l 347 777 q 358 887 347 836 q 395 974 369 938 q 466 1032 422 1011 q 576 1053 510 1053 q 631 1051 608 1053 q 671 1045 653 1049 q 703 1035 689 1041 q 732 1022 717 1029 l 688 937 q 652 950 675 944 q 613 956 630 956 l 603 956 q 543 940 566 953 q 507 905 519 927 q 490 850 494 882 q 486 777 486 817 l 486 611 q 469 479 486 539 q 412 382 453 419 q 447 339 433 363 q 469 284 460 314 q 482 222 478 255 q 486 153 486 188 l 486 -14 q 490 -87 486 -55 q 507 -141 494 -119 q 543 -177 519 -164 q 603 -192 566 -190 l 613 -192 q 652 -187 630 -192 q 688 -174 675 -181 l 732 -259 q 703 -272 717 -266 q 671 -282 689 -278 q 631 -289 653 -287 q 576 -292 608 -292 q 466 -270 510 -292 q 395 -212 422 -249 q 358 -124 369 -174 q 347 -14 347 -73 l 347 153 q 344 222 347 191 q 329 275 340 253 q 298 311 318 297 q 243 330 277 325 l 158 330 l 158 434 z "},"|":{"ha":903,"x_min":347,"x_max":486,"o":"m 486 1056 l 486 -278 l 347 -278 l 347 1042 l 486 1056 z "},"}":{"ha":903,"x_min":171,"x_max":744,"o":"m 744 434 l 744 330 l 660 330 q 605 311 626 325 q 574 275 585 297 q 559 222 563 253 q 556 153 556 191 l 556 -14 q 545 -124 556 -73 q 508 -212 534 -174 q 437 -270 481 -249 q 326 -292 393 -292 q 272 -289 294 -292 q 232 -282 249 -287 q 200 -272 214 -278 q 171 -259 185 -266 l 215 -174 q 250 -187 228 -181 q 290 -192 273 -192 l 299 -192 q 360 -177 337 -190 q 396 -141 383 -164 q 413 -87 408 -119 q 417 -14 417 -55 l 417 153 q 420 222 417 188 q 433 284 424 255 q 456 339 442 314 q 491 382 470 363 q 433 479 450 419 q 417 611 417 539 l 417 777 q 413 850 417 817 q 396 905 408 882 q 360 940 383 927 q 299 956 337 953 l 290 956 q 250 950 273 956 q 215 937 228 944 l 171 1022 q 200 1035 185 1029 q 232 1045 214 1041 q 272 1051 249 1049 q 326 1053 294 1053 q 437 1032 393 1053 q 508 974 481 1011 q 545 887 534 938 q 556 777 556 836 l 556 611 q 559 542 556 572 q 574 489 563 511 q 605 453 585 467 q 660 434 626 439 l 744 434 z "},"~":{"ha":903,"x_min":92,"x_max":810,"o":"m 92 336 q 122 415 100 375 q 175 487 144 455 q 245 539 206 519 q 327 559 284 559 q 383 550 358 559 q 429 527 408 540 q 467 497 449 513 q 504 467 485 481 q 543 444 523 453 q 588 435 563 435 q 633 445 613 435 q 668 472 653 456 q 693 509 683 488 q 708 550 703 529 l 810 539 q 782 452 803 496 q 731 373 762 408 q 658 315 699 338 q 571 293 617 293 q 524 302 546 293 q 481 325 501 312 q 441 355 460 339 q 400 385 421 372 q 358 408 380 399 q 310 417 335 417 q 270 410 289 417 q 238 389 252 402 q 213 360 223 376 q 196 325 202 343 l 92 336 z "}," ":{"ha":903,"x_min":0,"x_max":0,"o":""},"¡":{"ha":903,"x_min":263,"x_max":431,"o":"m 274 -278 l 274 466 l 420 451 l 420 -278 l 274 -278 m 263 690 q 269 723 263 708 q 287 750 276 739 q 314 769 299 762 q 347 776 329 776 q 380 769 365 776 q 406 750 395 762 q 424 723 417 739 q 431 690 431 708 q 424 658 431 673 q 406 631 417 642 q 379 613 394 619 q 347 606 364 606 q 314 613 329 606 q 287 631 299 619 q 269 658 276 642 q 263 690 263 673 z "},"¢":{"ha":903,"x_min":174,"x_max":768,"o":"m 606 917 l 606 773 q 674 756 644 767 q 768 688 724 736 l 699 610 q 635 649 672 633 q 616 656 625 653 q 597 660 607 659 l 597 106 q 628 110 614 108 q 656 118 643 113 q 714 144 694 131 l 764 47 q 722 23 744 33 q 673 4 699 12 q 641 -4 658 -1 q 606 -9 624 -8 l 606 -139 l 505 -139 l 505 -8 q 474 -6 492 -8 q 436 1 456 -3 q 399 10 417 5 q 369 22 381 16 q 284 86 320 47 q 223 176 247 126 q 186 284 198 226 q 174 401 174 341 q 185 507 174 456 q 222 604 197 559 q 283 684 246 649 q 369 744 319 720 q 398 755 380 749 q 436 764 416 760 q 474 770 456 767 q 505 772 492 772 l 505 903 l 606 917 m 424 642 q 372 601 394 626 q 336 542 350 575 q 316 472 322 510 q 309 392 309 433 q 315 309 309 349 q 334 235 321 269 q 370 174 348 201 q 424 128 392 147 q 459 116 436 122 q 513 110 482 110 l 513 661 q 459 655 482 661 q 424 642 436 649 z "},"£":{"ha":903,"x_min":107,"x_max":795,"o":"m 243 590 l 355 590 l 386 809 q 409 907 394 862 q 450 984 424 952 q 514 1035 476 1017 q 606 1053 552 1053 q 670 1049 641 1053 q 725 1033 700 1044 q 768 1011 751 1021 q 795 992 785 1001 l 733 922 q 638 953 685 953 q 582 942 604 953 q 545 910 559 931 q 523 860 531 890 q 510 792 515 830 l 481 590 l 625 590 l 611 486 l 467 486 q 408 156 428 183 l 347 72 l 460 102 l 764 102 l 764 0 l 107 0 l 121 102 l 217 102 q 268 137 241 102 q 340 486 296 172 l 243 486 l 243 590 z "},"¥":{"ha":903,"x_min":41,"x_max":792,"o":"m 69 382 l 344 382 l 344 448 l 324 486 l 69 486 l 69 590 l 271 590 l 41 1042 l 183 1056 l 383 663 l 438 490 l 458 649 l 658 1042 l 792 1042 l 562 590 l 764 590 l 764 486 l 508 486 l 490 449 l 490 382 l 764 382 l 764 278 l 490 278 l 490 0 l 344 0 l 344 278 l 69 278 l 69 382 z "},"§":{"ha":903,"x_min":157,"x_max":674,"o":"m 606 938 q 536 962 572 956 q 460 967 500 967 q 396 960 426 967 q 342 935 365 952 q 305 893 319 919 q 292 831 292 867 q 308 769 292 797 q 351 719 324 742 q 413 675 378 696 q 483 631 447 653 q 553 582 519 608 q 614 524 587 556 q 657 451 641 492 q 674 358 674 410 q 649 249 674 292 q 581 178 624 206 q 551 163 567 169 q 518 150 535 156 l 540 133 q 587 93 565 115 q 625 48 609 72 q 650 -4 641 24 q 660 -61 660 -31 q 641 -157 660 -115 q 587 -230 622 -200 q 500 -276 551 -260 q 383 -292 448 -292 q 277 -281 325 -292 q 183 -242 230 -270 l 225 -174 q 294 -198 258 -192 q 370 -203 331 -203 q 435 -196 404 -203 q 489 -172 465 -188 q 525 -129 512 -155 q 539 -67 539 -103 q 523 -6 539 -33 q 479 45 506 22 q 418 89 452 68 q 348 133 384 110 q 278 182 312 156 q 217 240 244 208 q 173 313 190 272 q 157 406 157 353 q 182 515 157 472 q 249 585 207 558 q 312 613 278 603 l 290 630 q 243 671 265 649 q 206 716 222 692 q 180 767 190 740 q 171 825 171 794 q 190 921 171 878 q 244 993 208 963 q 331 1038 279 1022 q 448 1053 382 1053 q 553 1044 505 1053 q 647 1006 601 1034 l 606 938 m 337 533 q 297 481 311 512 q 282 408 282 449 q 291 358 282 381 q 317 313 301 334 q 355 271 333 291 q 401 233 376 251 l 444 202 q 494 231 473 214 q 534 283 519 252 q 549 356 549 315 q 539 406 549 382 q 514 451 530 430 q 476 492 498 473 q 429 530 454 512 l 385 561 q 337 533 360 551 z "},"¨":{"ha":903,"x_min":208,"x_max":625,"o":"m 208 1042 l 347 1042 l 347 903 l 208 903 l 208 1042 m 486 1042 l 625 1042 l 625 903 l 486 903 l 486 1042 z "},"©":{"ha":903,"x_min":125,"x_max":778,"o":"m 451 1053 q 578 1028 519 1053 q 682 958 638 1002 q 752 854 726 913 q 778 727 778 794 q 752 600 778 659 q 682 496 726 540 q 578 426 638 452 q 451 401 519 401 q 325 426 384 401 q 221 496 265 452 q 151 600 176 540 q 125 727 125 659 q 151 854 125 794 q 221 958 176 913 q 325 1028 265 1002 q 451 1053 384 1053 m 451 460 q 554 482 506 460 q 639 539 602 503 q 697 624 675 575 q 718 727 718 672 q 697 831 718 782 q 640 916 676 879 q 555 973 603 952 q 451 994 506 994 q 348 973 396 994 q 263 916 299 952 q 206 831 226 879 q 185 727 185 782 q 206 625 185 673 q 263 540 227 576 q 348 482 299 503 q 451 460 397 460 m 563 831 q 525 849 549 842 q 465 856 501 856 q 412 846 435 856 q 373 819 389 836 q 348 780 357 803 q 340 733 340 758 q 348 684 340 708 q 372 643 356 661 q 412 615 388 626 q 468 604 436 604 q 503 608 486 604 q 533 617 519 612 q 556 627 547 622 q 570 635 566 633 l 595 592 q 579 581 590 588 q 553 568 569 574 q 515 556 537 561 q 463 551 492 551 q 385 567 420 551 q 324 608 349 583 q 286 667 299 634 q 272 738 272 701 q 285 800 272 769 q 324 854 299 831 q 384 892 349 878 q 465 906 420 906 q 541 897 508 906 q 597 867 575 888 l 563 831 z "},"ª":{"ha":903,"x_min":90,"x_max":417,"o":"m 139 556 l 417 556 l 417 486 l 139 486 l 139 556 m 417 666 l 347 666 l 347 722 l 315 683 q 299 674 308 678 q 280 667 290 670 q 259 662 269 664 q 238 660 248 660 q 185 668 212 660 q 138 692 159 676 q 103 731 117 708 q 90 785 90 755 q 104 841 90 817 q 140 880 117 865 q 190 902 162 895 q 248 910 219 910 q 306 906 281 910 q 347 896 330 902 l 347 910 q 342 948 347 931 q 326 975 337 964 q 299 992 315 986 q 258 998 282 998 q 221 995 237 998 q 192 990 205 993 q 176 986 183 988 q 162 982 169 984 l 137 1028 q 172 1041 151 1035 q 210 1050 188 1046 q 262 1053 231 1053 q 330 1043 302 1053 q 376 1013 358 1032 q 402 966 394 993 q 410 906 410 939 l 410 728 l 417 666 m 347 848 l 326 851 q 314 852 322 851 q 296 853 306 853 q 278 854 287 853 q 262 854 269 854 q 224 851 242 854 q 190 839 205 847 q 166 818 176 831 q 157 785 157 805 q 164 757 157 770 q 183 735 171 744 q 209 720 194 726 q 241 715 224 715 q 299 728 273 715 q 347 761 324 740 l 347 848 z "},"«":{"ha":903,"x_min":69,"x_max":779,"o":"m 396 713 l 431 626 l 205 424 l 109 382 l 204 340 l 432 140 l 394 46 l 69 332 l 69 428 l 396 713 m 743 713 l 778 626 l 552 424 l 456 382 l 551 340 l 779 140 l 742 46 l 417 332 l 417 428 l 743 713 z "},"¬":{"ha":903,"x_min":78,"x_max":845,"o":"m 845 556 l 833 409 l 833 194 l 694 194 l 694 312 l 706 444 l 78 444 l 78 556 l 845 556 z "},"®":{"ha":903,"x_min":125,"x_max":778,"o":"m 451 1053 q 578 1028 519 1053 q 682 958 638 1002 q 752 854 726 913 q 778 727 778 794 q 752 600 778 659 q 682 496 726 540 q 578 426 638 452 q 451 401 519 401 q 325 426 384 401 q 221 496 265 452 q 151 600 176 540 q 125 727 125 659 q 151 854 125 794 q 221 958 176 913 q 325 1028 265 1002 q 451 1053 384 1053 m 451 460 q 554 482 506 460 q 639 539 602 503 q 697 624 675 575 q 718 727 718 672 q 697 831 718 782 q 640 916 676 879 q 555 973 603 952 q 451 994 506 994 q 348 973 396 994 q 263 916 299 952 q 206 831 226 879 q 185 727 185 782 q 206 625 185 673 q 263 540 227 576 q 348 482 299 503 q 451 460 397 460 m 399 706 l 399 556 l 347 556 l 347 849 l 339 897 q 358 900 347 899 q 382 901 369 901 q 407 902 394 902 q 430 903 419 903 q 524 882 492 903 q 556 811 556 861 q 550 768 556 785 q 532 740 544 751 q 501 722 519 728 q 460 711 483 715 l 494 701 l 603 556 l 549 556 l 440 701 q 434 706 438 705 q 428 706 431 706 l 399 706 m 399 813 l 399 743 l 435 743 q 494 759 479 743 q 510 807 510 776 q 504 840 510 828 q 488 859 498 853 q 465 868 478 866 q 436 869 451 869 q 414 869 426 869 q 394 867 402 868 l 399 813 z "},"¯":{"ha":903,"x_min":208,"x_max":694,"o":"m 208 1042 l 694 1042 l 694 938 l 208 938 l 208 1042 z "},"°":{"ha":903,"x_min":160,"x_max":534,"o":"m 347 1053 q 420 1039 386 1053 q 480 999 454 1024 q 519 939 505 973 q 534 866 534 905 q 519 793 534 827 q 480 734 505 759 q 420 693 454 708 q 347 678 386 678 q 274 693 308 678 q 215 734 240 708 q 175 793 190 759 q 160 866 160 827 q 175 939 160 905 q 215 999 190 973 q 274 1039 240 1024 q 347 1053 308 1053 m 347 756 q 390 764 370 756 q 425 788 410 773 q 449 823 440 803 q 458 866 458 843 q 449 909 458 889 q 425 944 440 929 q 390 968 410 959 q 347 976 370 976 q 304 968 324 976 q 269 944 284 959 q 245 909 254 929 q 237 866 237 889 q 245 823 237 843 q 269 788 254 803 q 304 764 284 773 q 347 756 324 756 z "},"±":{"ha":903,"x_min":139,"x_max":764,"o":"m 139 599 l 398 599 l 398 833 l 506 833 l 506 599 l 764 599 l 764 513 l 506 513 l 506 278 l 398 278 l 398 513 l 139 513 l 139 599 m 139 201 l 764 201 l 764 104 l 139 104 l 139 201 z "},"´":{"ha":903,"x_min":306,"x_max":576,"o":"m 417 1042 l 576 1056 l 410 833 l 306 833 l 417 1042 z "},"µ":{"ha":903,"x_min":139,"x_max":863,"o":"m 863 25 q 843 13 856 19 q 813 1 830 6 q 778 -8 797 -5 q 742 -12 759 -12 q 633 18 678 -12 q 573 108 589 48 l 556 60 q 477 8 526 28 q 360 -12 427 -12 q 329 -11 347 -12 q 294 -7 312 -10 q 259 2 276 -3 q 233 17 243 8 l 264 -115 l 264 -347 l 139 -347 l 139 764 l 264 776 l 264 242 q 272 186 264 213 q 295 139 279 160 q 336 105 312 118 q 395 92 361 92 q 439 99 417 92 q 481 116 460 106 q 519 140 501 126 q 556 167 538 153 l 556 764 l 679 776 l 679 244 q 684 174 679 203 q 699 126 690 144 q 722 100 708 108 q 754 92 736 92 q 787 95 771 92 q 817 104 803 99 l 863 25 z "},"¶":{"ha":903,"x_min":130,"x_max":765,"o":"m 438 449 q 349 463 386 452 q 283 488 313 473 q 203 544 233 512 q 157 614 173 576 q 135 691 140 651 q 130 772 130 732 q 159 895 130 845 q 234 977 188 945 q 333 1024 279 1008 q 438 1042 388 1039 l 765 1042 l 765 -278 l 648 -278 l 648 936 l 555 936 l 555 -278 l 438 -278 l 438 449 z "},"·":{"ha":903,"x_min":94,"x_max":323,"o":"m 94 451 q 103 496 94 475 q 128 532 113 517 q 164 557 144 548 q 208 566 185 566 q 253 557 232 566 q 289 532 274 548 q 314 496 305 517 q 323 451 323 475 q 314 407 323 428 q 290 370 305 385 q 254 345 274 354 q 210 335 233 335 q 165 345 186 335 q 128 370 144 354 q 103 407 113 385 q 94 451 94 428 z "},"¸":{"ha":903,"x_min":293,"x_max":630,"o":"m 572 0 q 601 -41 588 -19 q 621 -85 612 -60 q 630 -137 630 -110 q 617 -194 630 -168 q 583 -241 604 -221 q 533 -272 561 -260 q 474 -283 505 -283 q 407 -273 440 -283 q 349 -252 375 -264 q 293 -221 319 -239 l 342 -151 q 380 -173 360 -164 q 417 -187 397 -181 q 458 -194 438 -194 q 503 -177 483 -194 q 524 -131 524 -160 q 512 -85 524 -108 q 487 -43 501 -62 q 450 0 470 -21 l 572 0 z "},"º":{"ha":903,"x_min":119,"x_max":467,"o":"m 160 556 l 438 556 l 438 486 l 160 486 l 160 556 m 294 660 q 224 675 256 660 q 168 717 192 690 q 132 779 145 743 q 119 858 119 815 q 132 936 119 900 q 167 998 144 972 q 223 1039 190 1024 q 294 1053 255 1053 q 365 1039 333 1053 q 419 998 397 1024 q 454 936 442 972 q 467 858 467 900 q 455 779 467 815 q 420 717 443 743 q 366 675 398 690 q 294 660 334 660 m 401 849 q 395 903 401 876 q 376 952 389 931 q 343 987 363 974 q 293 1000 322 1000 q 245 989 265 1000 q 211 958 224 977 q 192 915 198 939 q 185 865 185 890 q 192 809 185 836 q 211 761 198 782 q 246 727 225 740 q 296 714 267 714 q 343 725 324 714 q 376 756 363 737 q 395 799 389 774 q 401 849 401 823 z "},"»":{"ha":903,"x_min":124,"x_max":833,"o":"m 486 428 l 486 332 l 161 46 l 124 140 l 351 340 l 447 382 l 351 424 l 125 626 l 160 713 l 486 428 m 833 428 l 833 332 l 508 46 l 471 140 l 699 340 l 794 382 l 698 424 l 472 626 l 507 713 l 833 428 z "},"¿":{"ha":903,"x_min":144,"x_max":764,"o":"m 144 -31 q 156 48 144 13 q 186 111 167 83 q 230 164 206 140 q 281 211 255 188 q 332 259 307 235 q 375 311 356 283 q 406 374 394 340 q 418 451 418 408 l 564 466 q 552 357 564 404 q 521 273 540 310 q 477 209 502 237 q 427 157 453 181 q 376 113 401 134 q 332 70 351 92 q 301 22 313 48 q 290 -36 290 -3 q 303 -99 290 -72 q 341 -142 317 -125 q 398 -166 365 -158 q 467 -174 430 -174 q 521 -167 493 -174 q 576 -144 549 -159 q 627 -109 603 -130 q 672 -62 652 -88 l 764 -139 q 690 -214 730 -185 q 609 -260 650 -244 q 527 -283 567 -277 q 449 -290 486 -290 q 335 -274 390 -290 q 238 -227 281 -258 q 169 -146 195 -195 q 144 -31 144 -97 m 576 690 q 569 658 576 673 q 551 631 563 642 q 524 613 540 619 q 492 606 509 606 q 459 613 474 606 q 432 631 444 619 q 414 658 421 642 q 408 690 408 673 q 414 723 408 708 q 432 750 421 739 q 458 769 443 762 q 491 776 474 776 q 524 769 509 776 q 551 750 540 762 q 569 723 563 739 q 576 690 576 708 z "},"À":{"ha":903,"x_min":22,"x_max":878,"o":"m 22 0 l 350 903 l 374 1042 l 498 1056 l 878 0 l 740 0 l 637 313 l 265 313 l 150 0 l 22 0 m 448 972 l 417 750 l 299 417 l 603 417 l 479 750 l 448 972 m 497 1111 l 393 1111 l 237 1319 l 378 1333 l 497 1111 z "},"Á":{"ha":903,"x_min":22,"x_max":878,"o":"m 22 0 l 350 903 l 374 1042 l 498 1056 l 878 0 l 740 0 l 637 313 l 265 313 l 150 0 l 22 0 m 448 972 l 417 750 l 299 417 l 603 417 l 479 750 l 448 972 m 486 1319 l 646 1333 l 479 1111 l 375 1111 l 486 1319 z "},"Â":{"ha":903,"x_min":22,"x_max":878,"o":"m 22 0 l 350 903 l 374 1042 l 498 1056 l 878 0 l 740 0 l 637 313 l 265 313 l 150 0 l 22 0 m 448 972 l 417 750 l 299 417 l 603 417 l 479 750 l 448 972 m 639 1125 l 535 1125 l 465 1231 l 444 1292 l 424 1231 l 353 1125 l 249 1125 l 372 1319 l 510 1333 l 639 1125 z "},"Ã":{"ha":903,"x_min":22,"x_max":878,"o":"m 22 0 l 350 903 l 374 1042 l 498 1056 l 878 0 l 740 0 l 637 313 l 265 313 l 150 0 l 22 0 m 448 972 l 417 750 l 299 417 l 603 417 l 479 750 l 448 972 m 225 1149 q 239 1203 228 1177 q 266 1250 249 1230 q 305 1282 283 1270 q 351 1294 326 1294 q 402 1285 378 1294 q 447 1263 426 1275 q 490 1242 469 1251 q 532 1232 510 1232 q 558 1239 547 1232 q 576 1257 569 1247 q 589 1281 584 1268 q 596 1307 594 1294 l 663 1304 q 649 1245 660 1274 q 620 1195 638 1217 q 578 1160 602 1173 q 527 1147 554 1147 q 483 1156 505 1147 q 440 1177 462 1166 q 394 1199 417 1189 q 347 1208 372 1208 q 325 1203 335 1208 q 307 1188 315 1197 q 293 1168 299 1179 q 285 1147 288 1158 l 225 1149 z "},"Ä":{"ha":903,"x_min":22,"x_max":878,"o":"m 22 0 l 350 903 l 374 1042 l 498 1056 l 878 0 l 740 0 l 637 313 l 265 313 l 150 0 l 22 0 m 448 972 l 417 750 l 299 417 l 603 417 l 479 750 l 448 972 m 235 1250 l 374 1250 l 374 1111 l 235 1111 l 235 1250 m 513 1250 l 652 1250 l 652 1111 l 513 1111 l 513 1250 z "},"Å":{"ha":903,"x_min":22,"x_max":878,"o":"m 444 1305 q 508 1292 478 1305 q 561 1257 538 1279 q 596 1204 583 1234 q 609 1140 609 1174 q 596 1076 609 1106 q 561 1022 583 1045 q 521 992 544 1003 l 878 0 l 740 0 l 637 313 l 265 313 l 150 0 l 22 0 l 350 903 l 366 994 q 328 1022 345 1006 q 292 1076 306 1045 q 279 1140 279 1106 q 292 1204 279 1174 q 328 1257 306 1234 q 380 1292 350 1279 q 444 1305 410 1305 m 448 972 l 417 750 l 299 417 l 603 417 l 479 750 l 448 972 m 445 1054 q 478 1061 463 1054 q 504 1080 493 1068 q 522 1107 515 1091 q 528 1140 528 1122 q 522 1172 528 1157 q 504 1199 515 1188 q 477 1217 492 1210 q 444 1224 462 1224 q 412 1217 427 1224 q 385 1199 397 1210 q 367 1172 374 1188 q 360 1140 360 1157 q 367 1107 360 1122 q 385 1080 374 1091 q 412 1061 397 1068 q 445 1054 428 1054 z "},"Æ":{"ha":903,"x_min":20,"x_max":927,"o":"m 927 111 l 913 0 l 472 0 l 483 139 l 483 313 l 278 313 l 171 0 l 20 0 l 333 903 l 363 1042 l 903 1042 l 903 931 l 613 931 l 628 798 l 628 615 l 853 615 l 853 514 l 628 514 l 628 236 l 621 111 l 927 111 m 483 416 l 483 768 l 454 931 l 417 763 l 306 416 l 483 416 z "},"Ç":{"ha":903,"x_min":63,"x_max":790,"o":"m 790 72 q 732 33 761 49 q 671 7 703 17 q 603 -7 639 -3 q 576 -10 590 -9 q 597 -41 588 -24 q 617 -85 608 -60 q 626 -137 626 -110 q 613 -194 626 -168 q 578 -241 600 -221 q 529 -272 557 -260 q 470 -283 501 -283 q 403 -273 435 -283 q 345 -252 371 -264 q 289 -221 315 -239 l 338 -151 q 376 -173 356 -164 q 413 -187 392 -181 q 453 -194 433 -194 q 499 -177 479 -194 q 519 -131 519 -160 q 508 -85 519 -108 q 483 -43 497 -62 q 451 -5 468 -24 q 400 8 424 0 q 288 64 340 28 q 194 149 236 99 q 124 260 153 199 q 78 390 94 321 q 63 535 63 460 q 92 734 63 640 q 181 899 122 828 q 327 1012 240 970 q 529 1053 415 1053 q 673 1028 609 1053 q 788 955 738 1003 l 725 881 q 690 902 708 892 q 648 919 671 912 q 599 932 626 927 q 540 936 572 936 q 393 904 456 936 q 288 818 330 872 q 226 691 247 763 q 206 537 206 618 q 216 435 206 486 q 246 335 226 383 q 295 246 266 288 q 362 173 324 204 q 446 124 400 142 q 545 106 492 106 q 600 109 576 106 q 645 118 624 112 q 688 134 666 124 q 736 160 709 144 l 790 72 z "},"È":{"ha":903,"x_min":125,"x_max":788,"o":"m 788 111 l 774 0 l 135 0 l 146 139 l 146 896 l 125 1042 l 764 1042 l 764 931 l 260 931 l 274 799 l 274 615 l 715 615 l 715 514 l 274 514 l 274 236 l 267 111 l 788 111 m 528 1111 l 424 1111 l 267 1319 l 409 1333 l 528 1111 z "},"É":{"ha":903,"x_min":125,"x_max":788,"o":"m 788 111 l 774 0 l 135 0 l 146 139 l 146 896 l 125 1042 l 764 1042 l 764 931 l 260 931 l 274 799 l 274 615 l 715 615 l 715 514 l 274 514 l 274 236 l 267 111 l 788 111 m 451 1319 l 611 1333 l 444 1111 l 340 1111 l 451 1319 z "},"Ê":{"ha":903,"x_min":125,"x_max":788,"o":"m 788 111 l 774 0 l 135 0 l 146 139 l 146 896 l 125 1042 l 764 1042 l 764 931 l 260 931 l 274 799 l 274 615 l 715 615 l 715 514 l 274 514 l 274 236 l 267 111 l 788 111 m 646 1125 l 542 1125 l 472 1231 l 451 1292 l 431 1231 l 360 1125 l 256 1125 l 378 1319 l 517 1333 l 646 1125 z "},"Ë":{"ha":903,"x_min":125,"x_max":788,"o":"m 788 111 l 774 0 l 135 0 l 146 139 l 146 896 l 125 1042 l 764 1042 l 764 931 l 260 931 l 274 799 l 274 615 l 715 615 l 715 514 l 274 514 l 274 236 l 267 111 l 788 111 m 243 1250 l 382 1250 l 382 1111 l 243 1111 l 243 1250 m 521 1250 l 660 1250 l 660 1111 l 521 1111 l 521 1250 z "},"Ì":{"ha":903,"x_min":129,"x_max":782,"o":"m 143 1042 l 768 1042 l 768 931 l 519 931 l 519 111 l 782 111 l 768 0 l 143 0 l 143 111 l 390 111 l 390 931 l 129 931 l 143 1042 m 513 1111 l 408 1111 l 252 1319 l 394 1333 l 513 1111 z "},"Í":{"ha":903,"x_min":129,"x_max":782,"o":"m 143 1042 l 768 1042 l 768 931 l 519 931 l 519 111 l 782 111 l 768 0 l 143 0 l 143 111 l 390 111 l 390 931 l 129 931 l 143 1042 m 427 1319 l 587 1333 l 420 1111 l 316 1111 l 427 1319 z "},"Î":{"ha":903,"x_min":129,"x_max":782,"o":"m 143 1042 l 768 1042 l 768 931 l 519 931 l 519 111 l 782 111 l 768 0 l 143 0 l 143 111 l 390 111 l 390 931 l 129 931 l 143 1042 m 653 1128 l 549 1128 l 480 1233 l 459 1294 l 438 1234 l 368 1128 l 264 1128 l 386 1322 l 525 1336 l 653 1128 z "},"Ï":{"ha":903,"x_min":129,"x_max":782,"o":"m 143 1042 l 768 1042 l 768 931 l 519 931 l 519 111 l 782 111 l 768 0 l 143 0 l 143 111 l 390 111 l 390 931 l 129 931 l 143 1042 m 248 1319 l 387 1319 l 387 1181 l 248 1181 l 248 1319 m 526 1319 l 665 1319 l 665 1181 l 526 1181 l 526 1319 z "},"Ñ":{"ha":903,"x_min":97,"x_max":771,"o":"m 656 0 l 313 658 l 202 945 l 198 944 l 243 639 l 243 0 l 118 0 l 118 896 l 97 1042 l 237 1056 l 581 387 l 697 97 l 701 98 l 646 403 l 646 1042 l 771 1056 l 771 0 l 656 0 m 269 1149 q 282 1203 272 1177 q 310 1250 293 1230 q 349 1282 327 1270 q 395 1294 370 1294 q 446 1285 422 1294 q 491 1263 469 1275 q 533 1242 513 1251 q 576 1232 554 1232 q 601 1239 590 1232 q 620 1257 613 1247 q 633 1281 628 1268 q 640 1307 638 1294 l 706 1304 q 693 1245 704 1274 q 664 1195 681 1217 q 622 1160 646 1173 q 571 1147 598 1147 q 527 1156 549 1147 q 483 1177 506 1166 q 438 1199 461 1189 q 391 1208 415 1208 q 368 1203 378 1208 q 350 1188 358 1197 q 337 1168 342 1179 q 328 1147 331 1158 l 269 1149 z "},"Ò":{"ha":903,"x_min":51,"x_max":815,"o":"m 433 -12 q 318 7 371 -12 q 223 61 266 26 q 149 145 181 97 q 95 253 117 194 q 62 380 73 313 q 51 521 51 448 q 62 661 51 594 q 93 789 72 729 q 146 897 115 848 q 220 980 178 945 q 316 1034 263 1015 q 433 1053 369 1053 q 548 1034 496 1053 q 643 980 601 1015 q 718 897 686 945 q 772 789 750 848 q 805 661 794 729 q 815 521 815 594 q 805 380 815 448 q 773 253 794 313 q 720 145 752 194 q 647 61 689 97 q 551 7 604 26 q 433 -12 497 -12 m 671 499 q 668 599 671 548 q 655 698 665 649 q 629 789 646 746 q 586 863 613 831 q 520 913 559 894 q 429 932 482 932 q 342 915 379 932 q 280 870 306 899 q 238 802 254 841 q 212 721 221 764 q 199 633 203 678 q 196 545 196 588 q 199 444 196 496 q 211 345 202 393 q 238 254 221 297 q 281 179 254 211 q 347 128 308 147 q 438 110 385 110 q 523 127 487 110 q 586 173 560 144 q 628 241 612 203 q 655 323 645 280 q 667 412 664 367 q 671 499 671 457 m 528 1111 l 424 1111 l 267 1319 l 409 1333 l 528 1111 z "},"Ó":{"ha":903,"x_min":51,"x_max":815,"o":"m 433 -12 q 318 7 371 -12 q 223 61 266 26 q 149 145 181 97 q 95 253 117 194 q 62 380 73 313 q 51 521 51 448 q 62 661 51 594 q 93 789 72 729 q 146 897 115 848 q 220 980 178 945 q 316 1034 263 1015 q 433 1053 369 1053 q 548 1034 496 1053 q 643 980 601 1015 q 718 897 686 945 q 772 789 750 848 q 805 661 794 729 q 815 521 815 594 q 805 380 815 448 q 773 253 794 313 q 720 145 752 194 q 647 61 689 97 q 551 7 604 26 q 433 -12 497 -12 m 671 499 q 668 599 671 548 q 655 698 665 649 q 629 789 646 746 q 586 863 613 831 q 520 913 559 894 q 429 932 482 932 q 342 915 379 932 q 280 870 306 899 q 238 802 254 841 q 212 721 221 764 q 199 633 203 678 q 196 545 196 588 q 199 444 196 496 q 211 345 202 393 q 238 254 221 297 q 281 179 254 211 q 347 128 308 147 q 438 110 385 110 q 523 127 487 110 q 586 173 560 144 q 628 241 612 203 q 655 323 645 280 q 667 412 664 367 q 671 499 671 457 m 417 1319 l 576 1333 l 410 1111 l 306 1111 l 417 1319 z "},"Ô":{"ha":903,"x_min":51,"x_max":815,"o":"m 433 -12 q 318 7 370 -12 q 223 61 265 26 q 148 145 180 97 q 94 253 116 194 q 61 380 72 313 q 51 521 51 448 q 61 661 51 594 q 93 789 72 729 q 145 897 114 848 q 219 980 177 945 q 315 1034 262 1015 q 433 1053 369 1053 q 548 1034 495 1053 q 643 980 600 1015 q 717 897 685 945 q 771 789 749 848 q 804 661 793 729 q 815 521 815 594 q 804 380 815 448 q 773 253 794 313 q 720 145 751 194 q 646 61 688 97 q 550 7 603 26 q 433 -12 497 -12 m 670 499 q 667 599 670 548 q 655 698 664 649 q 628 789 645 746 q 585 863 612 831 q 520 913 558 894 q 428 932 481 932 q 342 915 378 932 q 279 870 305 899 q 237 802 253 841 q 211 721 220 764 q 199 633 202 678 q 195 545 195 588 q 198 444 195 496 q 211 345 201 393 q 237 254 220 297 q 281 179 253 211 q 346 128 308 147 q 437 110 384 110 q 523 127 486 110 q 585 173 559 144 q 628 241 611 203 q 654 323 644 280 q 667 412 663 367 q 670 499 670 457 m 611 1125 l 507 1125 l 438 1231 l 417 1292 l 396 1231 l 326 1125 l 222 1125 l 344 1319 l 483 1333 l 611 1125 z "},"Õ":{"ha":903,"x_min":51,"x_max":815,"o":"m 433 -12 q 318 7 371 -12 q 223 61 266 26 q 149 145 181 97 q 95 253 117 194 q 62 380 73 313 q 51 521 51 448 q 62 661 51 594 q 93 789 72 729 q 146 897 115 848 q 220 980 178 945 q 316 1034 263 1015 q 433 1053 369 1053 q 548 1034 496 1053 q 643 980 601 1015 q 718 897 686 945 q 772 789 750 848 q 805 661 794 729 q 815 521 815 594 q 805 380 815 448 q 773 253 794 313 q 720 145 752 194 q 647 61 689 97 q 551 7 604 26 q 433 -12 497 -12 m 671 499 q 668 599 671 548 q 655 698 665 649 q 629 789 646 746 q 586 863 613 831 q 520 913 559 894 q 429 932 482 932 q 342 915 379 932 q 280 870 306 899 q 238 802 254 841 q 212 721 221 764 q 199 633 203 678 q 196 545 196 588 q 199 444 196 496 q 211 345 202 393 q 238 254 221 297 q 281 179 254 211 q 347 128 308 147 q 438 110 385 110 q 523 127 487 110 q 586 173 560 144 q 628 241 612 203 q 655 323 645 280 q 667 412 664 367 q 671 499 671 457 m 199 1149 q 213 1203 202 1177 q 241 1250 224 1230 q 279 1282 258 1270 q 326 1294 301 1294 q 376 1285 353 1294 q 422 1263 400 1275 q 464 1242 443 1251 q 506 1232 485 1232 q 532 1239 521 1232 q 551 1257 543 1247 q 563 1281 558 1268 q 570 1307 568 1294 l 637 1304 q 623 1245 635 1274 q 594 1195 612 1217 q 552 1160 576 1173 q 501 1147 528 1147 q 458 1156 479 1147 q 414 1177 436 1166 q 369 1199 392 1189 q 322 1208 346 1208 q 299 1203 309 1208 q 281 1188 289 1197 q 267 1168 273 1179 q 259 1147 262 1158 l 199 1149 z "},"Ö":{"ha":903,"x_min":51,"x_max":815,"o":"m 433 -12 q 318 7 371 -12 q 223 61 266 26 q 149 145 181 97 q 95 253 117 194 q 62 380 73 313 q 51 521 51 448 q 62 661 51 594 q 93 789 72 729 q 146 897 115 848 q 220 980 178 945 q 316 1034 263 1015 q 433 1053 369 1053 q 548 1034 496 1053 q 643 980 601 1015 q 718 897 686 945 q 772 789 750 848 q 805 661 794 729 q 815 521 815 594 q 805 380 815 448 q 773 253 794 313 q 720 145 752 194 q 647 61 689 97 q 551 7 604 26 q 433 -12 497 -12 m 671 499 q 668 599 671 548 q 655 698 665 649 q 629 789 646 746 q 586 863 613 831 q 520 913 559 894 q 429 932 482 932 q 342 915 379 932 q 280 870 306 899 q 238 802 254 841 q 212 721 221 764 q 199 633 203 678 q 196 545 196 588 q 199 444 196 496 q 211 345 202 393 q 238 254 221 297 q 281 179 254 211 q 347 128 308 147 q 438 110 385 110 q 523 127 487 110 q 586 173 560 144 q 628 241 612 203 q 655 323 645 280 q 667 412 664 367 q 671 499 671 457 m 208 1250 l 347 1250 l 347 1111 l 208 1111 l 208 1250 m 486 1250 l 625 1250 l 625 1111 l 486 1111 l 486 1250 z "},"Ø":{"ha":903,"x_min":69,"x_max":833,"o":"m 451 -12 q 336 7 389 -12 q 281 33 307 17 l 230 -69 l 84 -69 l 181 124 q 167 145 174 134 q 113 253 135 194 q 80 380 91 313 q 69 521 69 448 q 80 661 69 594 q 111 789 90 729 q 164 897 133 848 q 238 980 196 945 q 334 1034 281 1015 q 451 1053 388 1053 q 566 1034 514 1053 q 627 1005 599 1022 l 681 1111 l 819 1111 l 722 916 q 736 897 729 906 q 790 789 768 848 q 823 661 812 729 q 833 521 833 594 q 823 380 833 448 q 791 253 813 313 q 739 145 770 194 q 665 61 707 97 q 569 7 622 26 q 451 -12 515 -12 m 538 913 q 447 932 500 932 q 360 915 397 932 q 298 870 324 899 q 256 802 272 841 q 230 721 239 764 q 217 633 221 678 q 214 545 214 588 q 217 444 214 496 q 229 344 220 393 q 252 263 238 301 l 571 894 q 538 913 556 905 m 689 499 q 686 599 689 548 q 673 697 683 649 q 652 776 665 739 l 337 144 q 365 128 350 135 q 456 110 403 110 q 541 127 505 110 q 604 173 578 144 q 647 241 630 203 q 673 323 663 280 q 685 412 682 367 q 689 499 689 457 z "},"Ù":{"ha":903,"x_min":108,"x_max":774,"o":"m 774 1042 l 774 363 q 752 198 774 269 q 686 81 729 128 q 582 11 644 35 q 441 -12 520 -12 q 297 18 356 -12 q 200 101 238 47 q 145 231 163 155 q 128 398 128 306 l 128 896 l 108 1042 l 260 1056 l 260 385 q 273 267 260 319 q 310 180 286 215 q 369 125 335 144 q 448 106 404 106 q 596 167 550 106 q 642 350 642 228 l 642 1042 l 774 1042 m 528 1111 l 424 1111 l 267 1319 l 409 1333 l 528 1111 z "},"Ú":{"ha":903,"x_min":108,"x_max":774,"o":"m 774 1042 l 774 363 q 752 198 774 269 q 686 81 729 128 q 582 11 644 35 q 441 -12 520 -12 q 297 18 356 -12 q 200 101 238 47 q 145 231 163 155 q 128 398 128 306 l 128 896 l 108 1042 l 260 1056 l 260 385 q 273 267 260 319 q 310 180 286 215 q 369 125 335 144 q 448 106 404 106 q 596 167 550 106 q 642 350 642 228 l 642 1042 l 774 1042 m 486 1319 l 646 1333 l 479 1111 l 375 1111 l 486 1319 z "},"Û":{"ha":903,"x_min":108,"x_max":774,"o":"m 774 1042 l 774 363 q 752 198 774 269 q 686 81 729 128 q 582 11 644 35 q 441 -12 520 -12 q 297 18 356 -12 q 200 101 238 47 q 145 231 163 155 q 128 398 128 306 l 128 896 l 108 1042 l 260 1056 l 260 385 q 273 267 260 319 q 310 180 286 215 q 369 125 335 144 q 448 106 404 106 q 596 167 550 106 q 642 350 642 228 l 642 1042 l 774 1042 m 646 1125 l 542 1125 l 472 1231 l 451 1292 l 431 1231 l 360 1125 l 256 1125 l 378 1319 l 517 1333 l 646 1125 z "},"Ü":{"ha":903,"x_min":108,"x_max":774,"o":"m 774 1042 l 774 363 q 752 198 774 269 q 686 81 729 128 q 582 11 644 35 q 441 -12 520 -12 q 297 18 356 -12 q 200 101 238 47 q 145 231 163 155 q 128 398 128 306 l 128 896 l 108 1042 l 260 1056 l 260 385 q 273 267 260 319 q 310 180 286 215 q 369 125 335 144 q 448 106 404 106 q 596 167 550 106 q 642 350 642 228 l 642 1042 l 774 1042 m 243 1250 l 382 1250 l 382 1111 l 243 1111 l 243 1250 m 521 1250 l 660 1250 l 660 1111 l 521 1111 l 521 1250 z "},"ß":{"ha":903,"x_min":133,"x_max":751,"o":"m 549 797 q 539 857 549 829 q 513 906 530 885 q 471 939 495 926 q 417 951 447 951 q 379 948 394 951 q 351 939 363 945 q 327 925 338 933 q 306 906 317 917 q 282 862 287 887 q 278 806 278 837 l 278 -12 l 133 0 l 133 772 q 214 981 133 906 q 254 1013 233 999 q 300 1035 275 1026 q 353 1049 324 1044 q 419 1053 382 1053 q 482 1049 454 1053 q 532 1034 509 1044 q 574 1010 555 1024 q 612 976 593 995 q 640 943 627 960 q 662 906 653 926 q 676 864 671 887 q 681 812 681 841 q 645 681 681 736 q 549 597 609 626 l 442 567 l 544 557 q 624 525 586 544 q 690 476 662 505 q 735 409 719 448 q 751 319 751 370 q 720 170 751 231 q 639 71 689 109 q 525 17 588 33 q 396 0 461 0 l 354 111 q 472 121 423 111 q 552 155 521 131 q 598 216 583 178 q 613 313 613 255 q 554 462 613 417 q 382 507 495 507 l 333 615 q 417 625 378 615 q 485 657 456 635 q 532 713 515 678 q 549 797 549 748 z "},"à":{"ha":903,"x_min":118,"x_max":771,"o":"m 771 0 l 632 0 l 632 113 l 567 35 q 536 17 555 26 q 497 2 518 9 q 455 -8 476 -4 q 414 -12 433 -12 q 309 5 362 -12 q 214 52 256 21 q 145 131 172 84 q 118 239 118 178 q 145 350 118 303 q 217 428 173 397 q 319 473 262 458 q 434 488 376 488 q 549 480 500 488 q 632 460 597 473 l 632 490 q 622 563 632 531 q 590 618 612 596 q 535 653 569 641 q 455 665 501 665 q 380 659 411 665 q 321 648 348 654 q 290 640 305 644 q 262 632 276 636 l 212 725 q 281 750 241 738 q 357 768 315 760 q 462 776 400 776 q 598 754 542 776 q 690 694 654 733 q 741 600 725 655 q 757 479 757 546 l 757 125 l 771 0 m 632 365 l 590 370 q 565 372 581 371 q 530 374 549 374 l 493 376 q 462 376 475 376 q 385 369 423 376 q 318 347 348 363 q 270 305 289 331 q 252 240 252 278 q 266 183 252 208 q 303 138 280 157 q 357 109 326 119 q 419 99 387 99 q 535 124 484 99 q 632 190 587 149 l 632 365 m 597 833 l 493 833 l 337 1042 l 478 1056 l 597 833 z "},"á":{"ha":903,"x_min":118,"x_max":771,"o":"m 771 0 l 632 0 l 632 113 l 567 35 q 536 17 555 26 q 497 2 518 9 q 455 -8 476 -4 q 414 -12 433 -12 q 309 5 362 -12 q 214 52 256 21 q 145 131 172 84 q 118 239 118 178 q 145 350 118 303 q 217 428 173 397 q 319 473 262 458 q 434 488 376 488 q 549 480 500 488 q 632 460 597 473 l 632 490 q 622 563 632 531 q 590 618 612 596 q 535 653 569 641 q 455 665 501 665 q 380 659 411 665 q 321 648 348 654 q 290 640 305 644 q 262 632 276 636 l 212 725 q 281 750 241 738 q 357 768 315 760 q 462 776 400 776 q 598 754 542 776 q 690 694 654 733 q 741 600 725 655 q 757 479 757 546 l 757 125 l 771 0 m 632 365 l 590 370 q 565 372 581 371 q 530 374 549 374 l 493 376 q 462 376 475 376 q 385 369 423 376 q 318 347 348 363 q 270 305 289 331 q 252 240 252 278 q 266 183 252 208 q 303 138 280 157 q 357 109 326 119 q 419 99 387 99 q 535 124 484 99 q 632 190 587 149 l 632 365 m 521 1042 l 681 1056 l 514 833 l 410 833 l 521 1042 z "},"â":{"ha":903,"x_min":118,"x_max":771,"o":"m 771 0 l 632 0 l 632 113 l 567 35 q 536 17 555 26 q 497 2 518 9 q 455 -8 476 -4 q 414 -12 433 -12 q 309 5 362 -12 q 214 52 256 21 q 145 131 172 84 q 118 239 118 178 q 145 350 118 303 q 217 428 173 397 q 319 473 262 458 q 434 488 376 488 q 549 480 500 488 q 632 460 597 473 l 632 490 q 622 563 632 531 q 590 618 612 596 q 535 653 569 641 q 455 665 501 665 q 380 659 411 665 q 321 648 348 654 q 290 640 305 644 q 262 632 276 636 l 212 725 q 281 750 241 738 q 357 768 315 760 q 462 776 400 776 q 598 754 542 776 q 690 694 654 733 q 741 600 725 655 q 757 479 757 546 l 757 125 l 771 0 m 632 365 l 590 370 q 565 372 581 371 q 530 374 549 374 l 493 376 q 462 376 475 376 q 385 369 423 376 q 318 347 348 363 q 270 305 289 331 q 252 240 252 278 q 266 183 252 208 q 303 138 280 157 q 357 109 326 119 q 419 99 387 99 q 535 124 484 99 q 632 190 587 149 l 632 365 m 681 847 l 576 847 l 507 953 l 486 1014 l 465 953 l 395 847 l 291 847 l 413 1042 l 552 1056 l 681 847 z "},"ã":{"ha":903,"x_min":118,"x_max":771,"o":"m 771 0 l 632 0 l 632 113 l 567 35 q 536 17 555 26 q 497 2 518 9 q 455 -8 476 -4 q 414 -12 433 -12 q 309 5 362 -12 q 214 52 256 21 q 145 131 172 84 q 118 239 118 178 q 145 350 118 303 q 217 428 173 397 q 319 473 262 458 q 434 488 376 488 q 549 480 500 488 q 632 460 597 473 l 632 490 q 622 563 632 531 q 590 618 612 596 q 535 653 569 641 q 455 665 501 665 q 380 659 411 665 q 321 648 348 654 q 290 640 305 644 q 262 632 276 636 l 212 725 q 281 750 241 738 q 357 768 315 760 q 462 776 400 776 q 598 754 542 776 q 690 694 654 733 q 741 600 725 655 q 757 479 757 546 l 757 125 l 771 0 m 632 365 l 590 370 q 565 372 581 371 q 530 374 549 374 l 493 376 q 462 376 475 376 q 385 369 423 376 q 318 347 348 363 q 270 305 289 331 q 252 240 252 278 q 266 183 252 208 q 303 138 280 157 q 357 109 326 119 q 419 99 387 99 q 535 124 484 99 q 632 190 587 149 l 632 365 m 269 885 q 282 940 272 913 q 310 986 293 966 q 349 1018 327 1006 q 395 1031 370 1031 q 446 1021 422 1031 q 491 999 469 1011 q 533 978 513 988 q 576 968 554 968 q 601 975 590 968 q 620 993 613 983 q 633 1017 628 1004 q 640 1043 638 1031 l 706 1040 q 693 981 704 1010 q 664 931 681 953 q 622 896 646 909 q 571 883 598 883 q 527 892 549 883 q 483 914 506 902 q 438 935 461 925 q 391 944 415 944 q 368 939 378 944 q 350 924 358 933 q 337 905 342 915 q 328 883 331 894 l 269 885 z "},"ä":{"ha":903,"x_min":118,"x_max":771,"o":"m 771 0 l 632 0 l 632 113 l 567 35 q 536 17 555 26 q 497 2 518 9 q 455 -8 476 -4 q 414 -12 433 -12 q 309 5 362 -12 q 214 52 256 21 q 145 131 172 84 q 118 239 118 178 q 145 350 118 303 q 217 428 173 397 q 319 473 262 458 q 434 488 376 488 q 549 480 500 488 q 632 460 597 473 l 632 490 q 622 563 632 531 q 590 618 612 596 q 535 653 569 641 q 455 665 501 665 q 380 659 411 665 q 321 648 348 654 q 290 640 305 644 q 262 632 276 636 l 212 725 q 281 750 241 738 q 357 768 315 760 q 462 776 400 776 q 598 754 542 776 q 690 694 654 733 q 741 600 725 655 q 757 479 757 546 l 757 125 l 771 0 m 632 365 l 590 370 q 565 372 581 371 q 530 374 549 374 l 493 376 q 462 376 475 376 q 385 369 423 376 q 318 347 348 363 q 270 305 289 331 q 252 240 252 278 q 266 183 252 208 q 303 138 280 157 q 357 109 326 119 q 419 99 387 99 q 535 124 484 99 q 632 190 587 149 l 632 365 m 278 1042 l 417 1042 l 417 903 l 278 903 l 278 1042 m 556 1042 l 694 1042 l 694 903 l 556 903 l 556 1042 z "},"å":{"ha":903,"x_min":118,"x_max":771,"o":"m 771 0 l 632 0 l 632 113 l 567 35 q 536 17 555 26 q 497 2 518 9 q 455 -8 476 -4 q 414 -12 433 -12 q 309 5 362 -12 q 214 52 256 21 q 145 131 172 84 q 118 239 118 178 q 145 350 118 303 q 217 428 173 397 q 319 473 262 458 q 434 488 376 488 q 549 480 500 488 q 632 460 597 473 l 632 490 q 622 563 632 531 q 590 618 612 596 q 535 653 569 641 q 455 665 501 665 q 380 659 411 665 q 321 648 348 654 q 290 640 305 644 q 262 632 276 636 l 212 725 q 281 750 241 738 q 357 768 315 760 q 462 776 400 776 q 598 754 542 776 q 690 694 654 733 q 741 600 725 655 q 757 479 757 546 l 757 125 l 771 0 m 632 365 l 590 370 q 565 372 581 371 q 530 374 549 374 l 493 376 q 462 376 475 376 q 385 369 423 376 q 318 347 348 363 q 270 305 289 331 q 252 240 252 278 q 266 183 252 208 q 303 138 280 157 q 357 109 326 119 q 419 99 387 99 q 535 124 484 99 q 632 190 587 149 l 632 365 m 486 1135 q 550 1122 520 1135 q 602 1086 580 1109 q 638 1034 625 1064 q 651 970 651 1004 q 638 906 651 936 q 603 852 625 875 q 551 816 581 829 q 488 803 522 803 q 423 816 453 803 q 370 852 393 829 q 334 906 347 875 q 321 970 321 936 q 334 1034 321 1004 q 369 1086 347 1064 q 422 1122 392 1109 q 486 1135 452 1135 m 487 884 q 519 891 504 884 q 546 909 535 898 q 564 936 557 921 q 570 969 570 952 q 564 1002 570 987 q 545 1029 557 1017 q 519 1047 534 1040 q 486 1053 503 1053 q 453 1047 469 1053 q 427 1029 438 1040 q 409 1002 415 1017 q 402 969 402 987 q 409 936 402 952 q 427 909 415 921 q 454 891 438 898 q 487 884 469 884 z "},"æ":{"ha":903,"x_min":38,"x_max":865,"o":"m 865 451 q 864 423 865 438 q 860 394 863 408 q 856 367 858 379 q 851 347 853 354 l 517 347 q 525 250 517 295 q 548 171 533 205 q 588 118 564 138 q 642 99 611 99 q 690 106 669 99 q 728 122 712 113 q 754 140 744 131 q 769 156 765 150 l 858 90 q 823 50 841 69 q 779 18 804 32 q 721 -4 754 4 q 641 -12 688 -12 q 573 0 604 -12 q 517 31 542 11 q 475 76 492 50 q 449 131 458 102 q 423 76 438 102 q 387 31 408 50 q 335 0 365 11 q 265 -12 306 -12 q 170 5 213 -12 q 99 52 128 21 q 54 131 69 84 q 38 239 38 178 q 53 351 38 303 q 96 430 69 399 q 163 477 124 462 q 250 493 202 493 q 311 489 290 493 q 343 479 333 485 q 358 466 355 473 l 358 490 q 356 563 358 531 q 347 618 355 596 q 321 653 339 641 q 271 665 303 665 q 226 659 248 665 q 186 648 204 654 q 147 632 165 640 l 97 725 q 160 750 126 739 q 228 768 190 760 q 313 776 267 776 q 365 767 342 776 q 404 743 388 758 q 432 709 421 728 q 450 668 444 690 q 471 709 456 690 q 508 743 485 728 q 560 767 530 758 q 628 776 591 776 q 750 755 703 776 q 822 693 796 734 q 856 591 847 652 q 865 451 865 531 m 358 370 q 343 376 351 373 q 324 380 335 378 q 296 382 312 382 q 197 350 231 382 q 163 240 163 317 q 169 183 163 208 q 188 138 175 157 q 221 109 201 119 q 270 99 242 99 q 314 113 297 99 q 341 144 331 127 q 358 190 353 165 l 358 370 m 741 507 q 736 568 741 539 q 718 618 731 597 q 685 652 706 640 q 633 665 664 665 q 576 651 599 665 q 541 616 554 638 q 522 566 528 594 q 517 508 517 538 l 469 433 l 553 451 l 741 451 l 741 507 z "},"ç":{"ha":903,"x_min":117,"x_max":767,"o":"m 699 610 q 624 649 672 634 q 502 665 576 665 q 398 643 444 665 q 319 583 351 621 q 270 496 287 546 q 253 392 253 447 q 269 283 253 335 q 318 192 285 231 q 398 129 350 152 q 510 106 446 106 q 579 114 546 106 q 640 134 613 122 q 686 157 667 145 q 713 175 705 168 l 763 77 q 732 53 753 68 q 679 24 711 38 q 602 -1 647 9 q 569 -7 586 -5 q 591 -41 581 -23 q 611 -85 602 -60 q 620 -137 620 -110 q 607 -194 620 -168 q 573 -241 594 -221 q 523 -272 551 -260 q 465 -283 495 -283 q 398 -273 430 -283 q 340 -252 365 -264 q 283 -221 310 -239 l 333 -151 q 370 -173 351 -164 q 407 -187 387 -181 q 448 -194 428 -194 q 494 -177 474 -194 q 514 -131 514 -160 q 502 -85 514 -108 q 477 -43 491 -62 q 449 -8 464 -25 q 342 22 392 -1 q 222 114 272 57 q 145 246 172 172 q 117 401 117 320 q 144 541 117 473 q 221 660 171 608 q 342 744 271 713 q 503 776 414 776 q 656 756 588 776 q 767 688 724 736 l 699 610 z "},"è":{"ha":903,"x_min":104,"x_max":769,"o":"m 718 90 q 671 49 697 67 q 614 16 645 30 q 545 -5 583 3 q 460 -12 507 -12 q 301 21 368 -12 q 190 108 233 53 q 125 234 146 163 q 104 382 104 305 q 114 480 104 431 q 143 572 124 528 q 191 653 163 615 q 258 717 220 690 q 342 760 296 744 q 443 776 388 776 q 578 751 518 776 q 681 683 639 727 q 747 578 724 640 q 769 443 769 517 q 768 396 769 422 q 764 347 767 370 l 236 347 q 253 248 236 294 q 298 170 269 203 q 366 118 327 137 q 451 99 406 99 q 527 106 496 99 q 581 122 559 113 q 617 143 603 132 q 642 164 632 154 l 718 90 m 647 451 l 647 482 q 632 555 647 522 q 589 613 616 588 q 527 651 563 638 q 453 665 492 665 q 372 650 407 665 q 312 612 337 635 q 272 561 287 589 q 249 508 256 533 l 208 429 l 337 451 l 647 451 m 528 833 l 424 833 l 267 1042 l 409 1056 l 528 833 z "},"é":{"ha":903,"x_min":104,"x_max":769,"o":"m 718 90 q 671 49 697 67 q 614 16 645 30 q 545 -5 583 3 q 460 -12 507 -12 q 301 21 368 -12 q 190 108 233 53 q 125 234 146 163 q 104 382 104 305 q 114 480 104 431 q 143 572 124 528 q 191 653 163 615 q 258 717 220 690 q 342 760 296 744 q 443 776 388 776 q 578 751 518 776 q 681 683 639 727 q 747 578 724 640 q 769 443 769 517 q 768 396 769 422 q 764 347 767 370 l 236 347 q 253 248 236 294 q 298 170 269 203 q 366 118 327 137 q 451 99 406 99 q 527 106 496 99 q 581 122 559 113 q 617 143 603 132 q 642 164 632 154 l 718 90 m 647 451 l 647 482 q 632 555 647 522 q 589 613 616 588 q 527 651 563 638 q 453 665 492 665 q 372 650 407 665 q 312 612 337 635 q 272 561 287 589 q 249 508 256 533 l 208 429 l 337 451 l 647 451 m 486 1042 l 646 1056 l 479 833 l 375 833 l 486 1042 z "},"ê":{"ha":903,"x_min":104,"x_max":769,"o":"m 718 90 q 671 49 697 67 q 614 16 645 30 q 545 -5 583 3 q 460 -12 507 -12 q 301 21 368 -12 q 190 108 233 53 q 125 234 146 163 q 104 382 104 305 q 114 480 104 431 q 143 572 124 528 q 191 653 163 615 q 258 717 220 690 q 342 760 296 744 q 443 776 388 776 q 578 751 518 776 q 681 683 639 727 q 747 578 724 640 q 769 443 769 517 q 768 396 769 422 q 764 347 767 370 l 236 347 q 253 248 236 294 q 298 170 269 203 q 366 118 327 137 q 451 99 406 99 q 527 106 496 99 q 581 122 559 113 q 617 143 603 132 q 642 164 632 154 l 718 90 m 647 451 l 647 482 q 632 555 647 522 q 589 613 616 588 q 527 651 563 638 q 453 665 492 665 q 372 650 407 665 q 312 612 337 635 q 272 561 287 589 q 249 508 256 533 l 208 429 l 337 451 l 647 451 m 618 847 l 514 847 l 444 953 l 424 1014 l 403 953 l 333 847 l 228 847 l 351 1042 l 490 1056 l 618 847 z "},"ë":{"ha":903,"x_min":104,"x_max":769,"o":"m 718 90 q 671 49 697 67 q 614 16 645 30 q 545 -5 583 3 q 460 -12 507 -12 q 301 21 368 -12 q 190 108 233 53 q 125 234 146 163 q 104 382 104 305 q 114 480 104 431 q 143 572 124 528 q 191 653 163 615 q 258 717 220 690 q 342 760 296 744 q 443 776 388 776 q 578 751 518 776 q 681 683 639 727 q 747 578 724 640 q 769 443 769 517 q 768 396 769 422 q 764 347 767 370 l 236 347 q 253 248 236 294 q 298 170 269 203 q 366 118 327 137 q 451 99 406 99 q 527 106 496 99 q 581 122 559 113 q 617 143 603 132 q 642 164 632 154 l 718 90 m 647 451 l 647 482 q 632 555 647 522 q 589 613 616 588 q 527 651 563 638 q 453 665 492 665 q 372 650 407 665 q 312 612 337 635 q 272 561 287 589 q 249 508 256 533 l 208 429 l 337 451 l 647 451 m 278 1042 l 417 1042 l 417 903 l 278 903 l 278 1042 m 556 1042 l 694 1042 l 694 903 l 556 903 l 556 1042 z "},"ì":{"ha":903,"x_min":139,"x_max":799,"o":"m 494 273 q 498 206 494 237 q 513 153 503 176 q 541 119 524 131 q 584 106 558 106 q 650 112 618 106 q 708 125 683 117 q 751 138 734 132 q 772 146 768 144 l 799 39 q 777 28 795 37 q 730 11 759 20 q 662 -5 701 3 q 577 -12 623 -12 q 467 10 509 -12 q 401 72 425 33 q 370 165 378 111 q 362 280 362 218 l 362 674 l 292 653 l 153 653 l 139 764 l 494 764 l 494 273 m 458 833 l 354 833 l 198 1042 l 340 1056 l 458 833 z "},"í":{"ha":903,"x_min":139,"x_max":799,"o":"m 494 273 q 498 206 494 237 q 513 153 503 176 q 541 119 524 131 q 584 106 558 106 q 650 112 618 106 q 708 125 683 117 q 751 138 734 132 q 772 146 768 144 l 799 39 q 777 28 795 37 q 730 11 759 20 q 662 -5 701 3 q 577 -12 623 -12 q 467 10 509 -12 q 401 72 425 33 q 370 165 378 111 q 362 280 362 218 l 362 674 l 292 653 l 153 653 l 139 764 l 494 764 l 494 273 m 500 1042 l 660 1056 l 493 833 l 389 833 l 500 1042 z "},"î":{"ha":903,"x_min":139,"x_max":799,"o":"m 494 273 q 498 206 494 237 q 513 153 503 176 q 541 119 524 131 q 584 106 558 106 q 650 112 618 106 q 708 125 683 117 q 751 138 734 132 q 772 146 768 144 l 799 39 q 777 28 795 37 q 730 11 759 20 q 662 -5 701 3 q 577 -12 623 -12 q 467 10 509 -12 q 401 72 425 33 q 370 165 378 111 q 362 280 362 218 l 362 674 l 292 653 l 153 653 l 139 764 l 494 764 l 494 273 m 612 847 l 508 847 l 438 953 l 417 1014 l 397 953 l 326 847 l 222 847 l 344 1042 l 483 1056 l 612 847 z "},"ï":{"ha":903,"x_min":139,"x_max":799,"o":"m 494 273 q 498 206 494 237 q 513 153 503 176 q 541 119 524 131 q 584 106 558 106 q 650 112 618 106 q 708 125 683 117 q 751 138 734 132 q 772 146 768 144 l 799 39 q 777 28 795 37 q 730 11 759 20 q 662 -5 701 3 q 577 -12 623 -12 q 467 10 509 -12 q 401 72 425 33 q 370 165 378 111 q 362 280 362 218 l 362 674 l 292 653 l 153 653 l 139 764 l 494 764 l 494 273 m 486 1042 l 625 1042 l 625 903 l 486 903 l 486 1042 m 208 1042 l 347 1042 l 347 903 l 208 903 l 208 1042 z "},"ñ":{"ha":903,"x_min":146,"x_max":756,"o":"m 271 0 l 146 0 l 146 764 l 271 778 l 271 644 l 313 725 q 343 742 326 733 q 384 759 360 751 q 442 771 408 766 q 520 776 475 776 q 619 758 575 776 q 693 707 663 740 q 740 626 724 674 q 756 521 756 579 l 756 0 l 631 0 l 631 521 q 619 585 631 558 q 585 630 607 613 q 535 656 564 648 q 475 665 507 665 q 411 656 442 665 q 353 635 380 648 q 306 607 327 622 q 271 579 285 592 l 271 0 m 269 885 q 282 940 272 913 q 310 986 293 966 q 349 1018 327 1006 q 395 1031 370 1031 q 446 1021 422 1031 q 491 999 469 1011 q 533 978 513 988 q 576 968 554 968 q 601 975 590 968 q 620 993 613 983 q 633 1017 628 1004 q 640 1043 638 1031 l 706 1040 q 693 981 704 1010 q 664 931 681 953 q 622 896 646 909 q 571 883 598 883 q 527 892 549 883 q 483 914 506 902 q 438 935 461 925 q 391 944 415 944 q 368 939 378 944 q 350 924 358 933 q 337 905 342 915 q 328 883 331 894 l 269 885 z "},"ò":{"ha":903,"x_min":100,"x_max":795,"o":"m 451 -12 q 309 18 374 -12 q 199 102 245 49 q 126 227 152 155 q 100 384 100 299 q 125 540 100 468 q 196 664 150 612 q 307 746 242 717 q 451 776 372 776 q 591 746 528 776 q 700 664 654 717 q 770 540 745 612 q 795 384 795 468 q 771 227 795 299 q 702 102 747 155 q 594 18 658 49 q 451 -12 530 -12 m 663 365 q 651 476 663 422 q 614 573 640 530 q 547 642 588 615 q 448 668 506 668 q 351 645 392 668 q 284 584 310 622 q 245 497 258 546 q 232 397 232 449 q 245 287 232 341 q 284 190 258 233 q 353 122 311 148 q 453 96 395 96 q 548 119 508 96 q 614 180 588 142 q 651 266 639 217 q 663 365 663 314 m 547 833 l 442 833 l 286 1042 l 428 1056 l 547 833 z "},"ó":{"ha":903,"x_min":100,"x_max":795,"o":"m 451 -12 q 309 18 374 -12 q 199 102 245 49 q 126 227 152 155 q 100 384 100 299 q 125 540 100 468 q 196 664 150 612 q 307 746 242 717 q 451 776 372 776 q 591 746 528 776 q 700 664 654 717 q 770 540 745 612 q 795 384 795 468 q 771 227 795 299 q 702 102 747 155 q 594 18 658 49 q 451 -12 530 -12 m 663 365 q 651 476 663 422 q 614 573 640 530 q 547 642 588 615 q 448 668 506 668 q 351 645 392 668 q 284 584 310 622 q 245 497 258 546 q 232 397 232 449 q 245 287 232 341 q 284 190 258 233 q 353 122 311 148 q 453 96 395 96 q 548 119 508 96 q 614 180 588 142 q 651 266 639 217 q 663 365 663 314 m 486 1042 l 646 1056 l 479 833 l 375 833 l 486 1042 z "},"ô":{"ha":903,"x_min":100,"x_max":795,"o":"m 451 -12 q 309 18 374 -12 q 199 102 245 49 q 126 227 152 155 q 100 384 100 299 q 125 540 100 468 q 196 664 150 612 q 307 746 242 717 q 451 776 372 776 q 591 746 528 776 q 700 664 654 717 q 770 540 745 612 q 795 384 795 468 q 771 227 795 299 q 702 102 747 155 q 594 18 658 49 q 451 -12 530 -12 m 663 365 q 651 476 663 422 q 614 573 640 530 q 547 642 588 615 q 448 668 506 668 q 351 645 392 668 q 284 584 310 622 q 245 497 258 546 q 232 397 232 449 q 245 287 232 341 q 284 190 258 233 q 353 122 311 148 q 453 96 395 96 q 548 119 508 96 q 614 180 588 142 q 651 266 639 217 q 663 365 663 314 m 646 847 l 542 847 l 472 953 l 451 1014 l 431 953 l 360 847 l 256 847 l 378 1042 l 517 1056 l 646 847 z "},"õ":{"ha":903,"x_min":100,"x_max":795,"o":"m 451 -12 q 309 18 374 -12 q 199 102 245 49 q 126 227 152 155 q 100 384 100 299 q 125 540 100 468 q 196 664 150 612 q 307 746 242 717 q 451 776 372 776 q 591 746 528 776 q 700 664 654 717 q 770 540 745 612 q 795 384 795 468 q 771 227 795 299 q 702 102 747 155 q 594 18 658 49 q 451 -12 530 -12 m 663 365 q 651 476 663 422 q 614 573 640 530 q 547 642 588 615 q 448 668 506 668 q 351 645 392 668 q 284 584 310 622 q 245 497 258 546 q 232 397 232 449 q 245 287 232 341 q 284 190 258 233 q 353 122 311 148 q 453 96 395 96 q 548 119 508 96 q 614 180 588 142 q 651 266 639 217 q 663 365 663 314 m 234 885 q 248 940 237 913 q 275 986 258 966 q 314 1018 292 1006 q 360 1031 335 1031 q 411 1021 388 1031 q 456 999 435 1011 q 499 978 478 988 q 541 968 519 968 q 567 975 556 968 q 585 993 578 983 q 598 1017 593 1004 q 605 1043 603 1031 l 672 1040 q 658 981 669 1010 q 629 931 647 953 q 587 896 611 909 q 536 883 563 883 q 492 892 514 883 q 449 914 471 902 q 403 935 426 925 q 356 944 381 944 q 334 939 344 944 q 316 924 324 933 q 302 905 308 915 q 294 883 297 894 l 234 885 z "},"ö":{"ha":903,"x_min":100,"x_max":795,"o":"m 451 -12 q 309 18 374 -12 q 199 102 245 49 q 126 227 152 155 q 100 384 100 299 q 125 540 100 468 q 196 664 150 612 q 307 746 242 717 q 451 776 372 776 q 591 746 528 776 q 700 664 654 717 q 770 540 745 612 q 795 384 795 468 q 771 227 795 299 q 702 102 747 155 q 594 18 658 49 q 451 -12 530 -12 m 663 365 q 651 476 663 422 q 614 573 640 530 q 547 642 588 615 q 448 668 506 668 q 351 645 392 668 q 284 584 310 622 q 245 497 258 546 q 232 397 232 449 q 245 287 232 341 q 284 190 258 233 q 353 122 311 148 q 453 96 395 96 q 548 119 508 96 q 614 180 588 142 q 651 266 639 217 q 663 365 663 314 m 243 1042 l 382 1042 l 382 903 l 243 903 l 243 1042 m 521 1042 l 660 1042 l 660 903 l 521 903 l 521 1042 z "},"÷":{"ha":903,"x_min":139,"x_max":764,"o":"m 376 213 q 382 242 376 228 q 398 266 388 256 q 422 282 408 276 q 451 288 435 288 q 480 282 466 288 q 503 266 493 276 q 520 242 514 256 q 526 213 526 228 q 520 184 526 198 q 504 160 514 170 q 480 143 494 149 q 451 137 467 137 q 422 143 435 137 q 398 160 408 149 q 382 184 388 170 q 376 213 376 198 m 376 639 q 382 668 376 654 q 398 692 388 681 q 422 708 408 702 q 451 714 435 714 q 480 708 466 714 q 503 692 493 702 q 520 668 514 681 q 526 639 526 654 q 520 610 526 624 q 504 585 514 596 q 480 569 494 575 q 451 563 467 563 q 422 569 435 563 q 398 585 408 575 q 382 610 388 596 q 376 639 376 624 m 139 486 l 764 486 l 764 378 l 139 378 l 139 486 z "},"ø":{"ha":903,"x_min":69,"x_max":764,"o":"m 419 -12 q 288 14 348 -12 l 244 -69 l 112 -69 l 190 78 q 167 101 178 89 q 95 227 121 155 q 69 384 69 299 q 94 540 69 468 q 165 664 119 612 q 275 746 210 717 q 419 776 340 776 q 550 750 491 776 l 598 840 l 723 840 l 644 690 q 668 664 656 678 q 739 540 714 612 q 764 384 764 468 q 740 227 764 299 q 671 102 716 155 q 563 18 626 49 q 419 -12 499 -12 m 417 668 q 320 645 361 668 q 253 584 279 622 q 214 497 226 546 q 201 397 201 449 q 213 287 201 341 q 251 192 226 234 l 497 651 q 417 668 463 668 m 632 365 q 620 476 632 422 q 583 572 608 530 l 582 573 l 340 112 q 422 96 376 96 q 517 119 477 96 q 582 180 557 142 q 620 266 608 217 q 632 365 632 314 z "},"ù":{"ha":903,"x_min":146,"x_max":771,"o":"m 646 764 l 771 778 l 771 0 l 646 0 l 646 125 l 603 51 q 583 33 597 43 q 549 12 569 22 q 501 -5 528 2 q 440 -12 474 -12 q 300 14 356 -12 q 209 83 243 40 q 160 183 175 126 q 146 299 146 239 l 146 764 l 271 778 l 271 299 q 280 217 271 253 q 311 156 289 181 q 369 116 333 130 q 460 103 406 103 q 531 114 500 103 q 586 142 563 126 q 624 176 609 158 q 646 208 639 194 l 646 764 m 547 833 l 442 833 l 286 1042 l 428 1056 l 547 833 z "},"ú":{"ha":903,"x_min":146,"x_max":771,"o":"m 646 764 l 771 778 l 771 0 l 646 0 l 646 125 l 603 51 q 583 33 597 43 q 549 12 569 22 q 501 -5 528 2 q 440 -12 474 -12 q 300 14 356 -12 q 209 83 243 40 q 160 183 175 126 q 146 299 146 239 l 146 764 l 271 778 l 271 299 q 280 217 271 253 q 311 156 289 181 q 369 116 333 130 q 460 103 406 103 q 531 114 500 103 q 586 142 563 126 q 624 176 609 158 q 646 208 639 194 l 646 764 m 462 1042 l 622 1056 l 455 833 l 351 833 l 462 1042 z "},"û":{"ha":903,"x_min":146,"x_max":771,"o":"m 646 764 l 771 778 l 771 0 l 646 0 l 646 125 l 603 51 q 583 33 597 43 q 549 12 569 22 q 501 -5 528 2 q 440 -12 474 -12 q 300 14 356 -12 q 209 83 243 40 q 160 183 175 126 q 146 299 146 239 l 146 764 l 271 778 l 271 299 q 280 217 271 253 q 311 156 289 181 q 369 116 333 130 q 460 103 406 103 q 531 114 500 103 q 586 142 563 126 q 624 176 609 158 q 646 208 639 194 l 646 764 m 646 847 l 542 847 l 472 953 l 451 1014 l 431 953 l 360 847 l 256 847 l 378 1042 l 517 1056 l 646 847 z "},"ü":{"ha":903,"x_min":146,"x_max":771,"o":"m 646 764 l 771 778 l 771 0 l 646 0 l 646 125 l 603 51 q 583 33 597 43 q 549 12 569 22 q 501 -5 528 2 q 440 -12 474 -12 q 300 14 356 -12 q 209 83 243 40 q 160 183 175 126 q 146 299 146 239 l 146 764 l 271 778 l 271 299 q 280 217 271 253 q 311 156 289 181 q 369 116 333 130 q 460 103 406 103 q 531 114 500 103 q 586 142 563 126 q 624 176 609 158 q 646 208 639 194 l 646 764 m 243 1042 l 382 1042 l 382 903 l 243 903 l 243 1042 m 521 1042 l 660 1042 l 660 903 l 521 903 l 521 1042 z "},"ÿ":{"ha":903,"x_min":120,"x_max":813,"o":"m 501 253 l 688 764 l 813 778 l 532 -12 q 487 -128 511 -70 q 433 -231 463 -185 q 365 -305 403 -277 q 278 -333 327 -333 q 207 -318 240 -333 q 145 -278 174 -303 l 196 -197 q 207 -206 200 -201 q 221 -217 213 -212 q 239 -226 229 -222 q 258 -229 248 -229 q 303 -211 283 -229 q 341 -165 324 -194 q 374 -102 359 -137 q 403 -33 389 -67 l 120 764 l 252 778 l 435 253 l 472 92 l 501 253 m 263 1042 l 402 1042 l 402 903 l 263 903 l 263 1042 m 541 1042 l 680 1042 l 680 903 l 541 903 l 541 1042 z "},"Œ":{"ha":903,"x_min":20,"x_max":927,"o":"m 385 -12 q 239 18 306 -12 q 124 111 172 47 q 48 276 75 175 q 20 521 20 378 q 48 765 20 664 q 124 930 75 866 q 239 1024 172 994 q 385 1053 306 1053 l 476 993 l 469 1042 l 903 1042 l 903 931 l 615 931 l 628 799 l 628 615 l 854 615 l 854 514 l 628 514 l 628 236 l 622 111 l 927 111 l 913 0 l 469 0 l 476 49 l 385 -12 m 483 906 q 437 928 464 920 q 381 935 410 935 q 221 836 277 935 q 165 545 165 736 q 179 349 165 432 q 222 213 194 267 q 293 132 251 158 q 390 106 335 106 q 439 111 418 106 q 483 132 459 116 l 483 906 z "},"œ":{"ha":903,"x_min":21,"x_max":876,"o":"m 263 776 q 326 762 298 776 q 376 726 354 748 q 413 678 397 705 q 438 625 428 651 q 464 678 445 651 q 508 726 482 705 q 568 762 535 748 q 640 776 602 776 q 761 755 715 776 q 833 693 807 734 q 867 591 858 652 q 876 451 876 531 q 875 423 876 438 q 872 394 874 408 q 867 367 869 379 q 862 347 865 354 l 528 347 q 536 250 528 295 q 559 171 544 205 q 599 118 575 138 q 653 99 622 99 q 701 106 680 99 q 739 122 723 113 q 765 140 755 131 q 780 156 776 150 l 869 90 q 834 50 852 69 q 790 18 815 32 q 732 -4 765 4 q 652 -12 699 -12 q 588 -2 619 -12 q 531 26 557 8 q 484 72 504 45 q 451 131 463 98 q 422 73 439 99 q 383 28 406 47 q 333 -1 361 10 q 269 -12 305 -11 q 179 8 217 -10 q 114 53 141 25 q 68 120 86 82 q 40 201 50 158 q 25 291 29 244 q 21 384 21 338 q 24 467 21 423 q 38 555 28 511 q 65 638 47 598 q 109 709 82 678 q 173 758 135 740 q 263 776 211 776 m 263 124 q 323 145 300 124 q 358 201 345 167 q 374 280 370 236 q 378 367 378 323 q 377 424 378 393 q 372 485 376 455 q 360 543 368 515 q 340 593 353 572 q 306 627 326 615 q 258 640 286 640 q 199 616 222 640 q 162 556 176 592 q 144 477 149 519 q 139 396 139 434 q 144 295 139 344 q 164 208 150 246 q 202 147 178 169 q 263 124 226 124 m 565 451 l 752 451 l 752 507 q 747 568 752 539 q 729 618 742 597 q 696 652 717 640 q 644 665 675 665 q 593 651 615 665 q 557 616 572 638 q 535 566 542 594 q 528 508 528 538 l 480 433 l 565 451 z "},"Ÿ":{"ha":903,"x_min":110,"x_max":861,"o":"m 528 649 l 728 1042 l 861 1042 l 559 449 l 559 0 l 413 0 l 413 448 l 110 1042 l 252 1056 l 452 663 l 507 490 l 528 649 m 278 1250 l 417 1250 l 417 1111 l 278 1111 l 278 1250 m 556 1250 l 694 1250 l 694 1111 l 556 1111 l 556 1250 z "},"ƒ":{"ha":903,"x_min":88,"x_max":851,"o":"m 740 575 l 712 468 l 594 468 l 565 507 l 462 -15 q 443 -88 452 -52 q 424 -155 435 -124 q 399 -213 413 -187 q 362 -259 384 -240 q 308 -289 340 -278 q 233 -299 277 -299 q 189 -296 208 -299 q 153 -287 170 -293 q 120 -273 136 -281 q 88 -253 105 -265 l 121 -163 q 137 -174 128 -169 q 157 -184 147 -180 q 178 -191 167 -188 q 197 -193 188 -193 q 252 -176 231 -193 q 287 -133 274 -159 q 308 -75 300 -107 q 323 -15 315 -44 l 422 468 l 255 468 l 283 575 l 400 575 l 433 535 l 488 833 q 519 934 499 892 q 564 1003 538 976 q 619 1041 590 1029 q 679 1053 649 1053 q 719 1052 697 1053 q 764 1046 741 1051 q 810 1033 788 1042 q 851 1009 833 1024 l 833 910 q 779 939 802 930 q 736 947 756 947 q 668 927 695 947 q 633 865 641 908 l 576 575 l 740 575 z "},"ˆ":{"ha":903,"x_min":222,"x_max":611,"o":"m 611 847 l 507 847 l 438 953 l 417 1014 l 396 953 l 326 847 l 222 847 l 344 1042 l 483 1056 l 611 847 z "},"ˇ":{"ha":903,"x_min":222,"x_max":611,"o":"m 483 847 l 344 861 l 222 1056 l 326 1056 l 403 963 l 417 910 l 431 964 l 507 1056 l 611 1056 l 483 847 z "},"˘":{"ha":903,"x_min":222,"x_max":611,"o":"m 296 1056 q 312 1008 299 1029 q 347 976 324 990 q 415 961 371 961 q 484 976 459 961 q 521 1008 509 990 q 538 1056 535 1029 l 611 1056 l 611 1047 q 609 1020 611 1037 q 601 984 608 1004 q 582 944 594 965 q 548 908 569 924 q 493 881 526 892 q 415 871 460 871 q 337 881 369 871 q 283 908 305 892 q 250 944 262 924 q 231 983 238 964 q 223 1019 225 1003 q 222 1046 222 1036 l 222 1056 l 296 1056 z "},"˙":{"ha":903,"x_min":343,"x_max":483,"o":"m 343 1042 l 483 1042 l 483 903 l 343 903 l 343 1042 z "},"˚":{"ha":903,"x_min":251,"x_max":581,"o":"m 417 1135 q 481 1122 451 1135 q 533 1086 510 1109 q 568 1034 556 1064 q 581 970 581 1004 q 568 906 581 936 q 534 852 556 875 q 482 816 512 829 q 418 803 452 803 q 354 816 384 803 q 301 852 324 829 q 265 906 278 875 q 251 970 251 936 q 265 1034 251 1004 q 300 1086 278 1064 q 352 1122 322 1109 q 417 1135 383 1135 m 417 884 q 450 891 435 884 q 476 909 465 898 q 494 936 488 921 q 501 969 501 952 q 494 1002 501 987 q 476 1029 488 1017 q 449 1047 465 1040 q 417 1053 434 1053 q 384 1047 399 1053 q 357 1029 369 1040 q 339 1002 346 1017 q 333 969 333 987 q 339 936 333 952 q 357 909 346 921 q 384 891 369 898 q 417 884 400 884 z "},"˛":{"ha":903,"x_min":273,"x_max":610,"o":"m 453 0 q 416 -43 433 -21 q 391 -85 402 -62 q 379 -131 379 -108 q 399 -177 379 -160 q 445 -194 419 -194 q 486 -187 465 -194 q 523 -173 506 -181 q 560 -151 542 -164 l 610 -221 q 553 -252 583 -239 q 495 -273 528 -264 q 428 -283 463 -283 q 370 -272 398 -283 q 320 -241 342 -260 q 286 -194 299 -221 q 273 -137 273 -168 q 282 -85 273 -110 q 302 -41 291 -60 q 331 0 315 -19 l 453 0 z "},"˜":{"ha":903,"x_min":269,"x_max":706,"o":"m 269 927 q 282 981 272 955 q 310 1028 293 1008 q 349 1060 327 1048 q 395 1072 370 1072 q 446 1063 422 1072 q 491 1041 469 1053 q 533 1019 513 1029 q 576 1010 554 1010 q 601 1017 590 1010 q 620 1035 613 1024 q 633 1059 628 1046 q 640 1085 638 1072 l 706 1082 q 693 1023 704 1051 q 664 973 681 994 q 622 938 646 951 q 571 924 598 924 q 527 934 549 924 q 483 955 506 944 q 438 976 461 967 q 391 986 415 986 q 368 981 378 986 q 350 966 358 975 q 337 946 342 957 q 328 925 331 935 l 269 927 z "},"˝":{"ha":903,"x_min":108,"x_max":674,"o":"m 263 1042 l 422 1056 l 213 776 l 108 776 l 263 1042 m 515 1042 l 674 1056 l 465 776 l 360 776 l 515 1042 z "},"π":{"ha":903,"x_min":22,"x_max":867,"o":"m 681 660 l 681 270 q 682 201 681 234 q 691 144 683 169 q 716 104 699 119 q 764 90 733 90 q 780 91 772 90 q 796 94 788 92 q 812 98 803 96 l 867 10 q 831 -4 856 4 q 764 -12 807 -12 q 652 10 693 -12 q 589 72 610 33 q 562 165 568 111 q 556 280 556 218 l 556 660 l 292 660 l 333 547 l 333 0 l 208 0 l 208 482 q 207 551 208 518 q 198 608 206 583 q 173 648 190 633 q 125 663 156 663 q 109 661 117 663 q 93 658 100 660 q 77 654 85 656 l 22 742 q 57 756 33 748 q 124 764 81 764 l 777 764 l 763 660 l 681 660 z "},"–":{"ha":903,"x_min":208,"x_max":694,"o":"m 208 417 l 694 417 l 694 310 l 208 310 l 208 417 z "},"—":{"ha":903,"x_min":0,"x_max":903,"o":"m 0 417 l 903 417 l 903 310 l 0 310 l 0 417 z "},"‘":{"ha":903,"x_min":122,"x_max":294,"o":"m 294 760 q 288 728 294 743 q 269 701 281 713 q 241 683 257 690 q 208 676 226 676 q 175 682 191 676 q 148 700 160 688 q 129 730 136 712 q 122 770 122 747 q 125 830 122 801 q 141 889 129 859 q 175 950 153 919 q 233 1014 197 981 l 264 1000 q 240 947 251 974 q 224 897 231 924 q 217 844 217 870 q 245 838 231 844 q 270 822 259 832 q 288 796 281 811 q 294 760 294 781 z "},"’":{"ha":903,"x_min":278,"x_max":660,"o":"m 486 1056 l 660 1042 l 417 833 l 278 833 l 486 1056 z "},"‚":{"ha":903,"x_min":122,"x_max":295,"o":"m 122 73 q 129 106 122 90 q 148 132 136 121 q 175 150 160 144 q 208 157 191 157 q 241 151 226 157 q 269 133 257 145 q 288 104 281 122 q 295 63 295 86 q 291 3 295 33 q 276 -56 288 -26 q 242 -116 264 -85 q 183 -181 219 -147 l 153 -167 q 176 -114 166 -141 q 193 -64 185 -91 q 200 -11 200 -37 q 172 -5 185 -10 q 147 12 158 1 q 129 38 135 22 q 122 73 122 53 z "},"“":{"ha":903,"x_min":122,"x_max":572,"o":"m 294 760 q 288 728 294 743 q 269 701 281 713 q 241 683 257 690 q 208 676 226 676 q 175 682 191 676 q 148 700 160 688 q 129 730 136 712 q 122 770 122 747 q 125 830 122 801 q 141 889 129 859 q 175 950 153 919 q 233 1014 197 981 l 264 1000 q 240 947 251 974 q 224 897 231 924 q 217 844 217 870 q 245 838 231 844 q 270 822 259 832 q 288 796 281 811 q 294 760 294 781 m 572 760 q 565 728 572 743 q 547 701 558 713 q 519 683 535 690 q 486 676 503 676 q 453 682 469 676 q 426 700 438 688 q 407 730 414 712 q 399 770 399 747 q 403 830 399 801 q 419 889 407 859 q 453 950 431 919 q 511 1014 475 981 l 542 1000 q 518 947 528 974 q 502 897 509 924 q 494 844 494 870 q 523 838 509 844 q 548 822 537 832 q 566 796 559 811 q 572 760 572 781 z "},"”":{"ha":903,"x_min":122,"x_max":573,"o":"m 122 906 q 129 939 122 924 q 148 966 136 954 q 175 984 160 977 q 208 990 191 990 q 241 984 226 990 q 269 967 257 978 q 288 937 281 955 q 295 897 295 919 q 291 837 295 866 q 276 778 288 808 q 242 717 264 748 q 183 653 219 686 l 153 667 q 176 719 166 692 q 193 769 185 742 q 200 822 200 797 q 172 829 185 823 q 147 845 158 835 q 129 871 135 856 q 122 906 122 886 m 400 906 q 407 939 400 924 q 426 966 414 954 q 453 984 438 977 q 486 990 469 990 q 519 984 503 990 q 547 967 535 978 q 566 937 558 955 q 573 897 573 919 q 569 837 573 866 q 553 778 565 808 q 519 717 542 748 q 461 653 497 686 l 431 667 q 454 719 444 692 q 470 769 463 742 q 478 822 478 797 q 449 829 463 823 q 424 845 435 835 q 407 871 413 856 q 400 906 400 886 z "},"„":{"ha":903,"x_min":122,"x_max":573,"o":"m 122 73 q 129 106 122 90 q 148 132 136 121 q 175 150 160 144 q 208 157 191 157 q 241 151 226 157 q 269 133 257 145 q 288 104 281 122 q 295 63 295 86 q 291 3 295 33 q 276 -56 288 -26 q 242 -116 264 -85 q 183 -181 219 -147 l 153 -167 q 176 -114 166 -141 q 193 -64 185 -91 q 200 -11 200 -37 q 172 -5 185 -10 q 147 12 158 1 q 129 38 135 22 q 122 73 122 53 m 400 73 q 407 106 400 90 q 426 132 414 121 q 453 150 438 144 q 486 157 469 157 q 519 151 503 157 q 547 133 535 145 q 566 104 558 122 q 573 63 573 86 q 569 3 573 33 q 553 -56 565 -26 q 519 -116 542 -85 q 461 -181 497 -147 l 431 -167 q 454 -114 444 -141 q 470 -64 463 -91 q 478 -11 478 -37 q 449 -5 463 -10 q 424 12 435 1 q 407 38 413 22 q 400 73 400 53 z "},"†":{"ha":903,"x_min":139,"x_max":708,"o":"m 139 728 l 347 728 l 347 1042 l 486 1056 l 486 728 l 708 728 l 694 625 l 486 625 l 486 -278 l 347 -278 l 347 625 l 139 625 l 139 728 z "},"‡":{"ha":903,"x_min":139,"x_max":708,"o":"m 139 728 l 347 728 l 347 1042 l 486 1056 l 486 728 l 708 728 l 694 625 l 486 625 l 486 208 l 694 208 l 694 104 l 486 104 l 486 -278 l 347 -278 l 347 104 l 139 104 l 139 208 l 347 208 l 347 625 l 139 625 l 139 728 z "},"•":{"ha":903,"x_min":276,"x_max":685,"o":"m 276 560 q 293 639 276 602 q 337 704 309 676 q 402 748 365 731 q 481 764 439 764 q 559 748 522 764 q 624 704 597 731 q 668 639 652 676 q 685 560 685 602 q 669 481 685 519 q 625 415 653 443 q 561 369 598 386 q 483 353 524 353 q 403 369 441 353 q 338 415 366 386 q 293 481 310 443 q 276 560 276 519 z "},"…":{"ha":903,"x_min":26,"x_max":865,"o":"m 26 104 q 35 149 26 128 q 59 185 44 169 q 95 210 75 201 q 140 219 116 219 q 184 210 163 219 q 220 185 205 201 q 245 149 236 169 q 254 104 254 128 q 245 59 254 81 q 221 23 236 38 q 185 -2 206 7 q 141 -12 165 -12 q 96 -2 117 -12 q 59 23 75 7 q 35 59 44 38 q 26 104 26 81 m 331 104 q 340 149 331 128 q 365 185 349 169 q 401 210 381 201 q 445 219 422 219 q 490 210 469 219 q 526 185 510 201 q 551 149 542 169 q 560 104 560 128 q 551 59 560 81 q 526 23 542 38 q 491 -2 511 7 q 447 -12 470 -12 q 402 -2 423 -12 q 365 23 381 7 q 340 59 349 38 q 331 104 331 81 m 637 104 q 646 149 637 128 q 670 185 655 169 q 707 210 686 201 q 751 219 727 219 q 795 210 774 219 q 832 185 816 201 q 856 149 847 169 q 865 104 865 128 q 856 59 865 81 q 832 23 847 38 q 796 -2 817 7 q 752 -12 776 -12 q 707 -2 728 -12 q 670 23 686 7 q 646 59 655 38 q 637 104 637 81 z "},"‰":{"ha":1806,"x_min":69,"x_max":1250,"o":"m 1071 -12 q 988 7 1022 -12 q 932 60 953 26 q 901 140 910 94 q 891 240 891 186 q 900 338 891 292 q 930 416 909 383 q 986 467 951 449 q 1071 486 1020 486 q 1153 467 1119 486 q 1209 416 1188 449 q 1240 338 1231 383 q 1250 240 1250 292 q 1241 140 1250 186 q 1210 60 1231 94 q 1155 7 1190 26 q 1071 -12 1121 -12 m 1147 273 q 1144 319 1147 297 q 1135 358 1142 342 q 1112 385 1127 375 q 1070 395 1097 395 q 1030 386 1044 395 q 1008 362 1015 377 q 999 326 1001 347 q 997 283 997 306 l 997 213 q 999 165 997 188 q 1008 125 1001 142 q 1032 98 1016 108 q 1074 88 1047 88 q 1113 97 1099 88 q 1135 122 1128 106 q 1144 157 1142 137 q 1147 200 1147 178 l 1147 273 m 274 0 l 159 0 l 628 1042 l 744 1042 l 274 0 m 249 556 q 166 575 201 556 q 110 627 132 594 q 79 707 89 661 q 69 807 69 753 q 78 905 69 860 q 109 983 88 951 q 164 1035 130 1016 q 249 1053 199 1053 q 332 1035 298 1053 q 388 983 366 1016 q 419 905 409 951 q 428 807 428 860 q 419 707 428 753 q 389 627 410 661 q 334 575 368 594 q 249 556 299 556 m 325 840 q 323 887 325 865 q 313 926 321 909 q 290 952 306 942 q 249 963 275 963 q 208 953 223 963 q 186 929 194 944 q 177 893 179 914 q 175 850 175 873 l 175 780 q 177 732 175 755 q 187 693 179 710 q 210 666 194 676 q 252 656 226 656 q 292 665 277 656 q 314 689 306 674 q 323 725 321 704 q 325 767 325 745 l 325 840 m 654 -12 q 571 7 606 -12 q 515 60 537 26 q 484 140 494 94 q 474 240 474 186 q 483 338 474 292 q 514 416 492 383 q 569 467 535 449 q 654 486 603 486 q 737 467 703 486 q 792 416 771 449 q 824 338 814 383 q 833 240 833 292 q 824 140 833 186 q 794 60 815 94 q 739 7 773 26 q 654 -12 704 -12 m 730 273 q 728 319 730 297 q 718 358 726 342 q 695 385 710 375 q 653 395 680 395 q 613 386 628 395 q 591 362 599 377 q 582 326 584 347 q 580 283 580 306 l 580 213 q 582 165 580 188 q 592 125 584 142 q 615 98 599 108 q 657 88 631 88 q 697 97 682 88 q 718 122 711 106 q 728 157 726 137 q 730 200 730 178 l 730 273 z "},"‹":{"ha":903,"x_min":278,"x_max":640,"o":"m 604 713 l 639 626 l 413 424 l 317 382 l 413 340 l 640 140 l 603 46 l 278 332 l 278 428 l 604 713 z "},"›":{"ha":903,"x_min":263,"x_max":625,"o":"m 625 428 l 625 332 l 300 46 l 263 140 l 490 340 l 585 382 l 490 424 l 264 626 l 299 713 l 625 428 z "},"€":{"ha":903,"x_min":85,"x_max":825,"o":"m 367 452 l 573 452 l 518 347 l 352 347 q 385 246 364 292 q 434 168 406 200 q 500 118 463 135 q 579 100 536 100 q 678 117 630 100 q 772 160 726 135 l 825 72 q 784 40 806 55 q 731 13 763 24 q 653 -5 699 1 q 540 -12 608 -12 q 427 15 481 -12 q 330 90 374 42 q 253 203 286 138 q 199 347 219 269 l 85 347 l 85 452 l 188 452 q 183 535 183 492 q 185 590 183 562 l 85 590 l 85 694 l 200 694 q 248 837 217 772 q 323 951 279 903 q 422 1026 367 999 q 542 1053 477 1053 q 697 1027 628 1053 q 815 953 765 1001 l 772 869 q 728 897 750 885 q 681 918 707 910 q 625 932 656 927 q 553 936 594 936 q 478 916 515 936 q 412 861 441 897 q 363 777 383 826 q 339 669 344 728 l 379 694 l 698 694 l 644 590 l 328 590 q 326 564 326 577 l 326 537 q 327 507 326 522 q 328 476 327 492 l 308 414 l 367 452 z "},"™":{"ha":903,"x_min":0,"x_max":833,"o":"m 139 625 l 139 995 l 0 995 l 0 1042 l 347 1042 l 347 995 l 208 995 l 208 625 l 139 625 m 764 625 l 764 1021 l 729 903 l 639 694 l 611 694 l 521 903 l 486 1021 l 486 625 l 417 625 l 417 1042 l 514 1042 l 597 868 l 625 764 l 653 868 l 736 1042 l 833 1042 l 833 625 l 764 625 z "},"Ω":{"ha":903,"x_min":69,"x_max":830,"o":"m 69 111 l 172 111 l 277 69 l 177 166 q 139 223 156 186 q 110 309 122 260 q 91 416 98 358 q 85 538 85 474 q 100 748 85 653 q 155 910 115 842 q 267 1016 196 978 q 450 1053 338 1053 q 630 1016 559 1053 q 742 910 701 978 q 799 748 783 842 q 815 538 815 653 q 808 417 815 475 q 790 309 801 358 q 762 224 778 260 q 727 168 746 188 l 623 69 l 727 111 l 830 111 l 830 0 l 519 0 l 519 139 q 598 211 567 173 q 644 295 628 249 q 665 395 660 340 q 671 517 671 449 q 661 676 671 600 q 627 809 652 751 q 558 901 602 867 q 446 935 515 935 q 339 905 381 935 q 273 823 297 874 q 239 704 249 772 q 229 563 229 637 q 234 423 229 485 q 255 310 239 360 q 301 217 271 259 q 381 139 331 176 l 381 0 l 69 0 l 69 111 z "},"∂":{"ha":903,"x_min":139,"x_max":760,"o":"m 626 440 q 597 472 615 457 q 557 499 579 488 q 509 517 534 510 q 458 524 483 524 q 371 509 406 524 q 315 464 336 493 q 284 391 293 434 q 275 294 275 349 q 277 255 275 276 q 284 212 279 233 q 299 170 290 190 q 323 135 308 150 q 357 110 337 119 q 403 101 376 101 q 479 116 447 101 q 534 157 511 131 q 574 217 558 183 q 600 289 590 251 q 616 365 610 326 q 626 440 622 404 m 760 542 q 753 423 760 485 q 728 298 745 360 q 684 181 711 237 q 619 82 658 124 q 528 14 580 39 q 410 -12 476 -12 q 286 13 338 -12 q 202 80 235 38 q 154 174 169 121 q 139 285 139 228 q 161 441 139 378 q 219 543 183 504 q 305 598 256 581 q 408 615 354 615 q 489 606 453 615 q 552 583 525 597 q 599 553 579 569 q 633 523 619 538 q 620 700 633 617 q 579 842 608 782 q 503 938 550 903 q 390 972 457 972 q 300 966 346 972 q 208 935 253 959 l 171 992 q 215 1016 190 1005 q 267 1035 240 1027 q 323 1049 294 1044 q 378 1053 351 1053 q 664 925 567 1053 q 760 542 760 797 z "},"√":{"ha":903,"x_min":47,"x_max":847,"o":"m 847 903 l 833 799 l 715 799 l 576 813 l 358 -14 l 193 0 l 101 382 l 47 521 l 176 535 l 253 208 l 278 42 l 303 208 l 485 903 l 847 903 z "},"∞":{"ha":903,"x_min":14,"x_max":889,"o":"m 234 269 q 300 290 274 269 q 344 342 326 310 q 374 409 362 373 q 396 477 385 446 q 366 543 380 511 q 332 601 351 576 q 286 642 313 626 q 220 658 260 658 q 169 643 188 658 q 143 603 151 628 q 133 543 135 578 q 131 470 131 509 q 135 395 131 431 q 151 330 140 358 q 182 285 162 302 q 234 269 202 269 m 440 401 l 440 322 q 376 208 428 249 q 226 167 324 167 q 117 193 159 167 q 53 261 76 219 q 22 358 30 303 q 14 470 14 413 q 16 546 14 508 q 26 617 19 583 q 48 680 33 651 q 85 730 62 709 q 144 764 109 751 q 226 776 178 776 q 304 759 271 776 q 363 711 337 742 q 411 641 389 681 q 456 553 433 600 l 463 540 l 463 621 q 527 734 475 692 q 676 776 578 776 q 785 750 744 776 q 850 681 827 724 q 881 584 873 639 q 889 472 889 529 q 886 397 889 434 q 877 325 884 359 q 855 262 869 291 q 817 212 841 233 q 759 179 794 191 q 676 167 724 167 q 597 184 630 167 q 536 234 563 202 q 488 308 510 265 q 440 401 465 351 m 669 674 q 603 653 629 674 q 559 601 576 632 q 529 533 541 569 q 507 465 517 497 q 537 399 522 431 q 571 341 551 367 q 617 300 590 316 q 683 285 643 285 q 733 299 715 285 q 760 339 751 314 q 770 399 768 365 q 772 472 772 433 q 767 548 772 511 q 752 612 763 584 q 721 657 741 640 q 669 674 701 674 z "},"∫":{"ha":903,"x_min":157,"x_max":801,"o":"m 417 776 q 427 885 417 835 q 465 974 438 936 q 535 1032 491 1011 q 646 1053 579 1053 q 700 1051 678 1053 q 741 1044 723 1049 q 773 1034 758 1040 q 801 1021 787 1028 l 758 935 q 722 949 744 943 q 682 954 699 954 l 671 954 q 661 954 668 954 q 645 951 654 953 q 626 945 636 949 q 605 934 615 941 q 565 873 574 913 q 556 776 556 834 l 556 -15 q 545 -124 556 -74 q 508 -212 534 -175 q 437 -271 481 -250 q 326 -292 393 -292 q 250 -285 294 -292 q 157 -260 205 -278 l 215 -174 q 250 -187 228 -182 q 290 -193 273 -193 q 301 -192 293 -193 q 321 -190 308 -191 q 367 -173 347 -187 q 408 -112 399 -151 q 417 -15 417 -74 l 417 776 z "},"≈":{"ha":903,"x_min":208,"x_max":764,"o":"m 597 347 q 551 356 573 347 q 510 378 530 365 q 472 406 490 391 q 436 435 453 422 q 400 457 418 448 q 365 465 383 465 q 324 460 343 465 q 286 445 305 455 q 248 421 267 435 q 208 389 229 407 l 208 458 q 238 495 222 478 q 274 526 254 513 q 319 548 294 540 q 375 556 344 556 q 442 537 411 556 q 501 497 473 519 q 555 456 528 474 q 608 438 581 438 q 686 457 650 438 q 764 514 722 477 l 764 444 q 734 408 750 425 q 698 377 718 390 q 653 355 678 363 q 597 347 628 347 m 597 139 q 551 148 573 139 q 510 169 530 156 q 472 198 490 183 q 436 226 453 213 q 400 248 418 240 q 365 257 383 257 q 324 252 343 257 q 286 237 305 247 q 248 213 267 227 q 208 181 229 199 l 208 250 q 238 287 222 269 q 274 318 254 304 q 319 339 294 331 q 375 347 344 347 q 442 329 411 347 q 501 288 473 310 q 555 248 528 266 q 608 229 581 229 q 686 249 650 229 q 764 306 722 269 l 764 236 q 734 199 750 217 q 698 168 718 182 q 653 147 678 155 q 597 139 628 139 z "},"≠":{"ha":903,"x_min":139,"x_max":694,"o":"m 139 278 l 333 278 l 374 389 l 139 389 l 139 486 l 408 486 l 484 694 l 585 694 l 512 486 l 694 486 l 694 389 l 478 389 l 439 278 l 694 278 l 694 181 l 404 181 l 341 0 l 233 0 l 299 181 l 139 181 l 139 278 z "},"≤":{"ha":903,"x_min":139,"x_max":764,"o":"m 139 94 l 764 94 l 750 0 l 139 0 l 139 94 m 764 777 l 764 680 l 287 476 l 233 465 l 286 454 l 764 252 l 764 155 l 139 408 l 139 525 l 764 777 z "},"≥":{"ha":903,"x_min":139,"x_max":765,"o":"m 139 94 l 764 94 l 750 0 l 139 0 l 139 94 m 765 525 l 765 408 l 140 155 l 140 252 l 618 454 l 672 465 l 617 476 l 140 680 l 140 777 l 765 525 z "},"ﬁ":{"ha":903,"x_min":104,"x_max":706,"o":"m 566 980 q 526 1001 551 990 q 460 1012 501 1012 q 368 978 400 1012 q 337 865 337 944 l 337 764 l 697 764 l 697 0 l 565 0 l 565 653 l 340 653 l 340 0 l 208 0 l 208 653 l 104 653 l 104 764 l 208 764 l 208 872 q 221 977 208 931 q 262 1056 234 1024 q 333 1106 290 1088 q 438 1123 376 1123 q 497 1122 469 1123 q 555 1113 524 1120 q 622 1089 586 1105 q 706 1042 658 1072 l 706 903 l 566 903 l 566 980 z "},"ﬂ":{"ha":903,"x_min":35,"x_max":824,"o":"m 496 972 q 448 1002 474 992 q 390 1012 422 1012 q 299 978 331 1012 q 267 865 267 944 l 267 764 l 426 764 l 426 653 l 271 653 l 271 0 l 139 0 l 139 653 l 35 653 l 35 764 l 139 764 l 139 872 q 152 978 139 931 q 192 1058 165 1025 q 264 1110 220 1092 q 368 1128 307 1128 q 424 1125 399 1128 q 470 1117 449 1122 q 509 1103 491 1111 q 547 1083 528 1094 q 605 1023 583 1061 q 627 926 627 985 l 627 690 q 627 593 627 640 q 628 497 628 547 l 628 261 q 633 184 628 215 q 648 134 638 153 q 673 107 658 115 q 708 99 688 99 q 735 101 723 99 q 757 106 748 103 q 776 112 767 108 l 824 28 q 806 16 818 22 q 777 3 794 9 q 739 -8 760 -3 q 694 -12 718 -12 q 592 11 631 -12 q 532 74 553 34 q 503 166 510 113 q 496 278 496 218 l 496 972 z "},"\u0000":{"ha":0,"x_min":0,"x_max":0,"o":""},"¤":{"ha":903,"x_min":99,"x_max":738,"o":"m 738 154 l 667 84 l 559 193 q 491 161 527 172 q 418 150 456 150 q 345 161 381 150 q 277 193 309 172 l 169 84 l 99 154 l 208 263 q 175 330 186 294 q 165 403 165 366 q 175 477 165 441 q 208 544 186 513 l 99 653 l 169 724 l 277 615 q 345 646 309 635 q 418 657 381 657 q 491 646 456 657 q 559 615 527 635 l 667 724 l 738 653 l 629 544 q 672 403 672 478 q 661 330 672 366 q 629 263 650 294 l 738 154 m 264 403 q 276 344 264 372 q 310 295 289 316 q 359 262 331 274 q 418 249 387 249 q 477 262 449 249 q 526 295 506 274 q 559 344 547 316 q 572 403 572 372 q 559 463 572 435 q 526 512 547 491 q 477 545 506 533 q 418 557 449 557 q 359 545 387 557 q 310 512 331 533 q 276 463 289 491 q 264 403 264 435 z "},"¦":{"ha":903,"x_min":417,"x_max":556,"o":"m 556 1056 l 556 486 l 417 486 l 417 1042 l 556 1056 m 556 251 l 556 -278 l 417 -278 l 417 251 l 556 251 z "},"­":{"ha":0,"x_min":0,"x_max":0,"o":""},"²":{"ha":903,"x_min":132,"x_max":456,"o":"m 132 500 l 132 558 q 167 608 148 583 q 205 656 185 633 q 243 700 224 679 q 276 739 261 721 q 311 777 294 760 q 341 811 328 794 q 362 847 354 828 q 369 887 369 865 q 363 918 369 903 q 345 944 357 933 q 318 961 334 955 q 284 968 303 968 q 248 962 263 968 q 220 947 232 956 q 200 926 209 938 q 185 903 192 915 l 135 924 q 159 965 144 946 q 192 998 173 984 q 235 1019 211 1011 q 290 1026 260 1026 q 352 1014 324 1026 q 398 981 379 1001 q 427 935 417 961 q 437 883 437 910 q 427 832 437 856 q 402 786 417 808 q 370 745 388 765 q 340 710 353 726 q 303 668 322 689 q 269 628 285 648 q 238 590 252 608 q 213 556 224 572 l 456 556 l 456 500 l 132 500 z "},"³":{"ha":903,"x_min":147,"x_max":458,"o":"m 147 965 l 153 1021 l 424 1021 l 424 972 q 409 943 419 958 q 386 913 399 928 q 357 882 373 897 q 325 853 341 867 l 279 828 q 288 829 283 828 q 299 829 294 829 q 361 821 332 829 q 411 795 390 813 q 445 753 433 778 q 458 692 458 727 q 445 631 458 658 q 411 582 433 603 q 360 545 389 560 q 298 520 331 530 q 229 505 265 510 q 160 500 194 500 l 160 556 q 216 560 188 556 q 269 572 244 565 q 315 591 294 580 q 352 616 336 601 q 376 648 367 630 q 385 688 385 667 q 374 730 385 713 q 345 756 363 747 q 302 770 326 766 q 249 774 277 774 q 224 774 238 774 q 201 772 211 773 l 201 826 q 232 850 215 837 q 266 877 249 863 q 299 907 283 892 q 328 935 315 922 q 350 960 341 948 q 362 979 359 972 l 309 965 l 147 965 z "},"¹":{"ha":903,"x_min":143,"x_max":474,"o":"m 162 500 l 162 556 l 281 556 l 281 891 l 301 969 l 254 905 l 181 840 l 143 882 l 302 1028 l 354 1021 l 354 556 l 474 556 l 474 500 l 162 500 z "},"¼":{"ha":903,"x_min":72,"x_max":867,"o":"m 350 0 l 263 0 l 663 1042 l 743 1042 l 350 0 m 91 500 l 91 556 l 210 556 l 210 891 l 231 969 l 183 905 l 110 840 l 72 882 l 231 1028 l 283 1021 l 283 556 l 403 556 l 403 500 l 91 500 m 863 104 l 800 104 l 800 0 l 727 0 l 727 104 l 520 104 l 520 163 l 688 528 l 754 521 l 610 208 l 578 160 l 727 160 l 727 301 l 800 295 l 800 160 l 867 160 l 863 104 z "},"½":{"ha":903,"x_min":72,"x_max":889,"o":"m 350 0 l 263 0 l 663 1042 l 743 1042 l 350 0 m 91 500 l 91 556 l 210 556 l 210 891 l 231 969 l 183 905 l 110 840 l 72 882 l 231 1028 l 283 1021 l 283 556 l 403 556 l 403 500 l 91 500 m 565 0 l 565 58 q 599 108 581 83 q 638 156 618 133 q 675 200 657 179 q 709 239 694 221 q 744 277 727 260 q 774 311 761 294 q 794 347 787 328 q 802 387 802 365 q 796 418 802 403 q 778 444 790 433 q 751 461 767 455 q 717 468 735 468 q 680 462 696 468 q 653 447 665 456 q 633 426 642 438 q 617 403 624 415 l 568 424 q 591 465 577 446 q 625 498 606 484 q 668 519 644 511 q 722 526 692 526 q 784 514 757 526 q 831 481 812 501 q 860 435 850 461 q 869 383 869 410 q 860 332 869 356 q 835 286 850 308 q 803 245 820 265 q 772 210 786 226 q 736 168 754 189 q 701 128 718 148 q 670 90 685 108 q 646 56 656 72 l 889 56 l 889 0 l 565 0 z "},"¾":{"ha":903,"x_min":147,"x_max":852,"o":"m 350 0 l 263 0 l 663 1042 l 743 1042 l 350 0 m 847 104 l 785 104 l 785 0 l 712 0 l 712 104 l 505 104 l 505 163 l 673 528 l 739 521 l 594 208 l 563 160 l 712 160 l 712 301 l 785 295 l 785 160 l 852 160 l 847 104 m 147 965 l 153 1021 l 424 1021 l 424 972 q 409 943 419 958 q 386 913 399 928 q 357 882 373 897 q 325 853 341 867 l 279 828 q 288 829 283 828 q 299 829 294 829 q 361 821 332 829 q 411 795 390 813 q 445 753 433 778 q 458 692 458 727 q 445 631 458 658 q 411 582 433 603 q 360 545 389 560 q 298 520 331 530 q 229 505 265 510 q 160 500 194 500 l 160 556 q 216 560 188 556 q 269 572 244 565 q 315 591 294 580 q 352 616 336 601 q 376 648 367 630 q 385 688 385 667 q 374 730 385 713 q 345 756 363 747 q 302 770 326 766 q 249 774 277 774 q 224 774 238 774 q 201 772 211 773 l 201 826 q 232 850 215 837 q 266 877 249 863 q 299 907 283 892 q 328 935 315 922 q 350 960 341 948 q 362 979 359 972 l 309 965 l 147 965 z "},"Ð":{"ha":903,"x_min":0,"x_max":861,"o":"m 0 594 l 139 594 l 139 896 l 118 1042 q 169 1045 140 1044 q 231 1048 199 1047 q 293 1049 263 1049 q 347 1049 324 1049 q 552 1022 458 1049 q 715 936 646 995 q 822 785 783 877 q 861 563 861 692 q 842 380 861 461 q 788 237 822 299 q 705 130 753 174 q 599 56 657 85 q 476 14 541 27 q 341 0 410 0 l 139 0 l 139 486 l 0 486 l 0 594 m 285 799 l 285 594 l 417 594 l 417 486 l 285 486 l 285 111 l 299 111 q 469 132 399 111 q 586 187 540 153 q 658 266 632 222 q 697 359 684 311 q 713 454 710 407 q 715 542 715 501 q 709 653 715 601 q 687 751 703 706 q 644 831 671 795 q 575 892 617 867 q 476 930 533 917 q 341 943 418 943 q 317 942 330 943 q 294 940 305 942 l 267 938 l 285 799 z "},"×":{"ha":903,"x_min":69,"x_max":816,"o":"m 521 435 l 816 141 l 730 71 l 469 331 l 429 400 l 417 331 l 156 71 l 69 141 l 365 435 l 69 731 l 156 801 l 417 540 l 457 472 l 469 540 l 730 801 l 816 731 l 521 435 z "},"Ý":{"ha":903,"x_min":41,"x_max":792,"o":"m 458 649 l 658 1042 l 792 1042 l 490 449 l 490 0 l 344 0 l 344 448 l 41 1042 l 183 1056 l 383 663 l 438 490 l 458 649 m 417 1319 l 576 1333 l 410 1111 l 306 1111 l 417 1319 z "},"Þ":{"ha":903,"x_min":125,"x_max":729,"o":"m 125 1042 l 278 1042 l 278 903 l 417 903 q 484 897 449 903 q 554 877 519 891 q 620 842 589 864 q 676 788 652 820 q 715 714 701 756 q 729 617 729 672 q 724 534 729 577 q 702 451 719 491 q 656 376 686 411 q 576 317 626 342 q 498 290 542 301 q 389 278 453 278 l 278 278 l 278 0 l 139 0 l 139 902 l 125 1042 m 278 799 l 278 387 l 409 387 q 497 405 460 387 q 557 453 533 422 q 593 526 581 484 q 604 617 604 568 q 590 694 604 660 q 548 752 575 728 q 482 787 520 775 q 395 799 443 799 l 278 799 z "},"ð":{"ha":903,"x_min":139,"x_max":753,"o":"m 288 809 l 435 933 l 352 919 q 284 946 317 937 q 213 955 250 955 q 197 954 203 955 q 188 953 190 953 l 171 1052 q 192 1053 182 1053 q 213 1053 203 1053 q 357 1033 290 1053 q 483 974 424 1012 l 578 1055 l 646 975 l 518 867 l 599 867 q 664 774 635 824 q 713 667 693 724 q 742 551 732 611 q 753 428 753 490 q 748 344 753 391 q 730 248 743 297 q 695 152 717 199 q 637 69 673 106 q 551 10 601 33 q 433 -12 501 -12 q 303 13 358 -12 q 211 81 247 37 q 157 187 174 126 q 139 324 139 249 q 210 560 139 478 q 417 642 281 642 q 461 639 441 642 q 499 630 481 636 q 535 613 517 624 q 574 586 553 602 l 632 505 q 612 592 626 548 q 577 677 598 635 q 529 756 556 718 q 471 827 502 794 l 355 729 l 288 809 m 631 419 q 598 457 619 438 q 549 493 576 476 q 491 520 522 509 q 428 531 460 531 q 348 514 380 531 q 298 467 317 497 q 272 398 279 438 q 264 311 264 358 q 275 226 264 265 q 307 159 285 188 q 359 115 328 131 q 433 99 391 99 q 507 114 475 99 q 561 153 538 128 q 599 212 584 178 q 621 284 613 246 q 630 354 628 322 q 631 419 631 385 z "},"ý":{"ha":903,"x_min":120,"x_max":813,"o":"m 501 253 l 688 764 l 813 778 l 532 -12 q 487 -128 511 -70 q 433 -231 463 -185 q 365 -305 403 -277 q 278 -333 327 -333 q 207 -318 240 -333 q 145 -278 174 -303 l 196 -197 q 207 -206 200 -201 q 221 -217 213 -212 q 239 -226 229 -222 q 258 -229 248 -229 q 303 -211 283 -229 q 341 -165 324 -194 q 374 -102 359 -137 q 403 -33 389 -67 l 120 764 l 252 778 l 435 253 l 472 92 l 501 253 m 497 1042 l 656 1056 l 490 833 l 385 833 l 497 1042 z "},"þ":{"ha":903,"x_min":103,"x_max":809,"o":"m 242 1056 l 242 697 q 320 746 277 726 q 465 776 385 776 q 605 746 542 776 q 714 664 668 717 q 784 540 759 612 q 809 384 809 468 q 785 227 809 299 q 716 102 761 155 q 608 18 672 49 q 465 -12 544 -12 q 323 18 388 -12 q 242 72 278 40 l 242 -278 l 103 -278 l 103 1042 l 242 1056 m 677 365 q 665 476 677 422 q 628 573 653 530 q 561 642 602 615 q 462 668 520 668 q 365 645 406 668 q 298 584 324 622 q 259 497 272 546 q 246 397 246 449 q 259 287 246 341 q 298 190 272 233 q 367 122 325 148 q 467 96 409 96 q 562 119 522 96 q 627 180 602 142 q 665 266 653 217 q 677 365 677 314 z "},"Š":{"ha":903,"x_min":135,"x_max":787,"o":"m 135 65 l 199 169 q 235 149 213 160 q 285 127 258 138 q 344 110 313 117 q 408 103 376 103 q 494 114 451 103 q 573 147 538 124 q 630 204 608 169 q 651 287 651 239 q 631 366 651 332 q 576 427 610 400 q 498 476 542 454 q 409 521 454 499 q 319 567 363 543 q 242 622 276 591 q 187 691 208 652 q 166 782 166 730 q 194 900 166 849 q 269 985 223 951 q 373 1036 315 1019 q 491 1053 431 1053 q 764 970 639 1053 l 697 885 q 606 926 649 913 q 509 939 563 939 q 434 931 472 939 q 366 907 396 924 q 316 862 335 890 q 297 795 297 835 q 318 728 297 756 q 374 677 340 699 q 452 634 408 654 q 542 593 496 615 q 632 547 588 572 q 710 487 676 522 q 766 407 744 453 q 787 298 787 360 q 755 162 787 220 q 672 66 724 104 q 553 8 620 27 q 417 -12 487 -12 q 335 -7 373 -12 q 262 8 297 -1 q 197 32 228 18 q 135 65 165 47 m 553 1111 l 414 1125 l 292 1319 l 396 1319 l 473 1227 l 487 1174 l 501 1228 l 577 1319 l 681 1319 l 553 1111 z "},"š":{"ha":903,"x_min":162,"x_max":801,"o":"m 708 624 q 677 639 695 631 q 635 653 658 647 q 585 664 613 660 q 526 669 558 669 q 444 665 484 669 q 372 649 403 660 q 322 619 341 638 q 303 571 303 601 q 322 528 303 546 q 370 498 340 510 q 439 475 401 485 q 516 458 477 466 q 591 441 555 449 q 653 424 627 433 q 711 394 684 412 q 758 352 738 376 q 789 299 778 328 q 801 237 801 270 q 783 156 801 192 q 736 93 766 120 q 668 45 707 65 q 586 13 629 26 q 498 -6 542 0 q 412 -12 453 -12 q 353 -7 388 -12 q 282 5 318 -3 q 213 24 245 13 q 162 48 180 35 l 208 147 q 251 130 224 138 q 308 115 278 122 q 366 103 338 108 q 413 99 394 99 q 461 102 435 99 q 516 110 488 104 q 571 126 544 116 q 619 151 598 136 q 652 188 640 167 q 665 236 665 208 q 647 282 665 263 q 599 314 629 301 q 532 336 569 327 q 456 354 495 346 q 381 371 417 363 q 318 393 345 380 q 252 434 278 412 q 211 480 226 456 q 189 531 195 504 q 183 585 183 557 q 211 670 183 634 q 286 730 239 706 q 394 764 333 753 q 522 776 456 776 q 593 772 558 776 q 657 760 627 767 q 711 745 688 753 q 749 727 735 736 l 708 624 m 553 847 l 414 861 l 292 1056 l 396 1056 l 473 963 l 487 910 l 501 964 l 577 1056 l 681 1056 l 553 847 z "},"Α":{"ha":903,"x_min":22,"x_max":878,"o":"m 22 0 l 350 903 l 374 1042 l 498 1056 l 878 0 l 740 0 l 637 313 l 265 313 l 150 0 l 22 0 m 448 972 l 417 750 l 299 417 l 603 417 l 479 750 l 448 972 z "},"Β":{"ha":903,"x_min":125,"x_max":776,"o":"m 146 0 l 146 896 l 125 1035 q 211 1044 167 1040 q 300 1049 255 1049 q 453 1039 381 1049 q 582 1002 526 1028 q 669 930 637 976 q 702 812 702 883 q 669 681 702 736 q 576 597 637 626 l 469 567 l 572 557 q 651 525 614 544 q 716 476 689 505 q 760 409 744 448 q 776 319 776 370 q 760 214 776 260 q 717 132 744 167 q 654 71 690 97 q 577 30 618 46 q 491 7 535 15 q 403 0 447 0 l 146 0 m 274 111 l 351 111 q 473 121 419 111 q 564 155 527 131 q 621 216 601 178 q 640 313 640 255 q 622 401 640 365 q 571 462 604 438 q 492 496 538 485 q 389 507 445 507 l 274 507 l 274 111 m 274 797 l 274 615 l 347 615 q 431 628 390 617 q 505 661 472 639 q 557 716 537 683 q 576 797 576 750 q 555 873 576 843 q 501 921 534 903 q 426 945 467 938 q 345 952 385 952 q 296 950 322 952 q 249 944 271 949 l 274 797 z "},"Γ":{"ha":903,"x_min":127,"x_max":708,"o":"m 278 799 l 278 0 l 139 0 l 139 903 l 127 1042 l 708 1042 l 708 938 l 267 938 l 278 799 z "},"Δ":{"ha":903,"x_min":34,"x_max":848,"o":"m 362 1042 l 513 1056 l 848 0 l 34 0 l 362 1042 m 650 111 l 738 75 l 678 139 l 463 874 l 442 990 l 421 874 l 205 139 l 148 75 l 233 111 l 650 111 z "},"Ε":{"ha":903,"x_min":125,"x_max":788,"o":"m 788 111 l 774 0 l 135 0 l 146 139 l 146 896 l 125 1042 l 764 1042 l 764 931 l 260 931 l 274 799 l 274 615 l 715 615 l 715 514 l 274 514 l 274 236 l 267 111 l 788 111 z "},"Ζ":{"ha":903,"x_min":84,"x_max":751,"o":"m 737 111 l 751 0 l 98 0 l 84 35 l 476 833 l 604 958 l 420 931 l 146 931 l 132 1042 l 706 1042 l 716 1026 l 319 208 l 196 83 l 380 111 l 737 111 z "},"Η":{"ha":903,"x_min":61,"x_max":740,"o":"m 608 0 l 608 503 l 213 503 l 213 0 l 81 0 l 81 896 l 61 1042 l 213 1056 l 213 615 l 608 615 l 608 1042 l 740 1056 l 740 0 l 608 0 z "},"Θ":{"ha":833,"x_min":51,"x_max":815,"o":"m 250 580 l 625 580 l 611 462 l 236 462 l 250 580 m 433 -12 q 318 7 371 -12 q 223 61 266 26 q 149 145 181 97 q 95 253 117 194 q 62 380 73 313 q 51 521 51 448 q 62 661 51 594 q 93 789 72 729 q 146 897 115 848 q 220 980 178 945 q 316 1034 263 1015 q 433 1053 369 1053 q 548 1034 496 1053 q 643 980 601 1015 q 718 897 686 945 q 772 789 750 848 q 805 661 794 729 q 815 521 815 594 q 805 380 815 448 q 773 253 794 313 q 720 145 752 194 q 647 61 689 97 q 551 7 604 26 q 433 -12 497 -12 m 671 499 q 668 599 671 548 q 655 698 665 649 q 629 789 646 746 q 586 863 613 831 q 520 913 559 894 q 429 932 482 932 q 342 915 379 932 q 280 870 306 899 q 238 802 254 841 q 212 721 221 764 q 199 633 203 678 q 196 545 196 588 q 199 444 196 496 q 211 345 202 393 q 238 254 221 297 q 281 179 254 211 q 347 128 308 147 q 438 110 385 110 q 523 127 487 110 q 586 173 560 144 q 628 241 612 203 q 655 323 645 280 q 667 412 664 367 q 671 499 671 457 z "},"Ι":{"ha":903,"x_min":129,"x_max":782,"o":"m 143 1042 l 768 1042 l 768 931 l 519 931 l 519 111 l 782 111 l 768 0 l 143 0 l 143 111 l 390 111 l 390 931 l 129 931 l 143 1042 z "},"Κ":{"ha":903,"x_min":121,"x_max":826,"o":"m 142 0 l 142 896 l 121 1042 l 274 1056 l 274 594 l 653 1042 l 808 1042 l 439 601 l 322 557 l 442 517 l 826 0 l 662 0 l 274 518 l 274 0 l 142 0 z "},"Λ":{"ha":903,"x_min":43,"x_max":858,"o":"m 469 764 l 444 944 l 419 764 l 171 0 l 43 0 l 337 903 l 361 1042 l 512 1056 l 858 0 l 719 0 l 469 764 z "},"Μ":{"ha":903,"x_min":83,"x_max":801,"o":"m 676 0 l 676 626 l 717 972 l 713 972 l 606 640 l 486 347 l 417 347 l 294 639 l 181 972 l 176 972 l 228 626 l 228 0 l 103 0 l 103 896 l 83 1042 l 232 1056 l 403 660 l 452 486 l 500 660 l 657 1042 l 801 1056 l 801 0 l 676 0 z "},"Ν":{"ha":903,"x_min":97,"x_max":771,"o":"m 656 0 l 313 658 l 202 945 l 198 944 l 243 639 l 243 0 l 118 0 l 118 896 l 97 1042 l 237 1056 l 581 387 l 697 97 l 701 98 l 646 403 l 646 1042 l 771 1056 l 771 0 l 656 0 z "},"Ξ":{"ha":903,"x_min":69,"x_max":764,"o":"m 139 615 l 694 615 l 694 494 l 139 494 l 139 615 m 69 121 l 764 121 l 764 0 l 69 0 l 69 121 m 69 1042 l 764 1042 l 764 921 l 69 921 l 69 1042 z "},"Ο":{"ha":903,"x_min":190,"x_max":954,"o":"m 572 -12 q 457 7 510 -12 q 362 61 405 26 q 288 145 319 97 q 234 253 256 194 q 201 380 212 313 q 190 521 190 448 q 201 661 190 594 q 232 789 211 729 q 285 897 253 848 q 359 980 317 945 q 455 1034 401 1015 q 572 1053 508 1053 q 687 1034 635 1053 q 782 980 740 1015 q 857 897 825 945 q 911 789 889 848 q 943 661 933 729 q 954 521 954 594 q 944 380 954 448 q 912 253 933 313 q 859 145 891 194 q 785 61 828 97 q 690 7 743 26 q 572 -12 636 -12 m 810 499 q 807 599 810 548 q 794 698 803 649 q 768 789 785 746 q 725 863 751 831 q 659 913 698 894 q 568 932 621 932 q 481 915 518 932 q 419 870 444 899 q 376 802 393 841 q 351 721 360 764 q 338 633 342 678 q 335 545 335 588 q 338 444 335 496 q 350 345 341 393 q 376 254 360 297 q 420 179 393 211 q 485 128 447 147 q 576 110 524 110 q 662 127 626 110 q 725 173 699 144 q 767 241 751 203 q 793 323 784 280 q 806 412 803 367 q 810 499 810 457 z "},"Ρ":{"ha":903,"x_min":151,"x_max":836,"o":"m 308 0 l 176 0 l 176 896 l 151 1035 q 200 1041 172 1038 q 260 1046 228 1044 q 323 1049 291 1048 q 382 1050 355 1050 q 586 1029 500 1050 q 727 970 672 1008 q 809 879 783 932 q 836 763 836 826 q 803 606 836 669 q 703 505 769 543 q 538 450 638 466 q 308 433 439 433 l 308 0 m 308 797 l 308 531 q 488 543 413 531 q 611 582 563 555 q 681 652 659 608 q 703 760 703 696 q 677 843 703 807 q 608 902 650 878 q 514 939 565 926 q 413 951 463 951 q 385 951 401 951 q 352 950 369 951 q 320 947 335 949 q 294 944 304 946 l 308 797 z "},"Σ":{"ha":903,"x_min":56,"x_max":765,"o":"m 576 486 l 328 220 l 171 87 l 344 118 l 765 118 l 765 0 l 56 0 l 69 127 l 417 486 l 523 521 l 417 556 l 69 915 l 56 1042 l 765 1042 l 765 924 l 344 924 l 171 955 l 328 822 l 576 556 l 576 486 z "},"Τ":{"ha":903,"x_min":90,"x_max":809,"o":"m 385 0 l 385 931 l 90 931 l 90 1042 l 809 1042 l 809 931 l 517 931 l 517 0 l 385 0 z "},"Υ":{"ha":903,"x_min":41,"x_max":792,"o":"m 458 649 l 658 1042 l 792 1042 l 490 449 l 490 0 l 344 0 l 344 448 l 41 1042 l 183 1056 l 383 663 l 438 490 l 458 649 z "},"Φ":{"ha":903,"x_min":15,"x_max":820,"o":"m 347 142 q 251 163 298 148 q 74 287 134 198 q 15 521 15 376 q 74 754 15 665 q 251 879 134 844 q 347 899 300 894 l 347 1042 l 485 1056 l 485 899 q 582 879 534 894 q 760 754 699 844 q 820 521 820 665 q 760 287 820 376 q 583 163 700 198 q 485 142 536 148 l 485 0 l 347 0 l 347 142 m 485 251 q 642 332 589 265 q 696 521 696 399 q 643 710 696 644 q 485 791 590 776 l 485 251 m 347 791 q 191 710 244 777 q 138 521 138 644 q 191 332 138 399 q 347 251 244 265 l 347 791 z "},"Χ":{"ha":903,"x_min":49,"x_max":832,"o":"m 679 0 l 487 360 l 433 486 l 400 375 l 186 0 l 49 0 l 370 555 l 88 1042 l 235 1056 l 417 733 l 472 597 l 497 708 l 672 1042 l 810 1042 l 533 539 l 832 0 l 679 0 z "},"Ψ":{"ha":903,"x_min":35,"x_max":778,"o":"m 486 1056 l 486 420 q 557 431 528 423 q 603 459 586 440 q 628 511 621 478 q 635 593 635 543 l 635 1042 l 778 1042 l 778 606 q 758 468 778 524 q 701 377 739 412 q 610 325 664 342 q 486 303 556 308 l 486 1 l 347 1 l 347 303 q 217 331 272 309 q 127 394 163 353 q 73 496 91 435 q 56 641 56 557 l 56 896 l 35 1042 l 198 1056 l 198 628 q 207 536 198 574 q 233 475 215 499 q 280 439 251 451 q 347 422 308 427 l 347 1042 l 486 1056 z "},"Ω":{"ha":903,"x_min":69,"x_max":830,"o":"m 69 111 l 172 111 l 277 69 l 177 166 q 139 223 156 186 q 110 309 122 260 q 91 416 98 358 q 85 538 85 474 q 100 748 85 653 q 155 910 115 842 q 267 1016 196 978 q 450 1053 338 1053 q 630 1016 559 1053 q 742 910 701 978 q 799 748 783 842 q 815 538 815 653 q 808 417 815 475 q 790 309 801 358 q 762 224 778 260 q 727 168 746 188 l 623 69 l 727 111 l 830 111 l 830 0 l 519 0 l 519 139 q 598 211 567 173 q 644 295 628 249 q 665 395 660 340 q 671 517 671 449 q 661 676 671 600 q 627 809 652 751 q 558 901 602 867 q 446 935 515 935 q 339 905 381 935 q 273 823 297 874 q 239 704 249 772 q 229 563 229 637 q 234 423 229 485 q 255 310 239 360 q 301 217 271 259 q 381 139 331 176 l 381 0 l 69 0 l 69 111 z "},"α":{"ha":903,"x_min":69,"x_max":805,"o":"m 713 692 q 656 591 659 651 q 654 508 655 560 q 653 383 653 457 q 654 260 653 308 q 656 187 655 211 q 665 144 658 163 q 682 111 672 125 q 705 91 692 98 q 729 84 717 84 q 752 85 744 84 q 768 88 760 86 l 805 7 q 722 -12 766 -12 q 583 36 629 -12 l 549 136 l 514 58 q 477 23 495 37 q 441 2 459 10 q 402 -9 422 -6 q 360 -12 383 -12 q 228 18 283 -12 q 138 102 174 49 q 86 227 103 155 q 69 384 69 299 q 85 540 69 468 q 135 664 101 612 q 226 746 170 717 q 360 776 281 776 q 403 772 383 776 q 442 760 423 769 q 479 738 460 752 q 516 702 497 724 l 549 625 l 583 721 q 613 743 596 733 q 653 764 631 754 l 713 692 m 521 365 q 517 476 521 422 q 498 573 514 530 q 449 642 482 615 q 358 668 416 668 q 270 645 302 668 q 224 584 239 622 q 205 497 208 546 q 201 397 201 449 q 205 287 201 341 q 224 190 208 233 q 272 122 240 148 q 363 96 305 96 q 450 119 418 96 q 497 180 481 142 q 517 266 513 217 q 521 365 521 314 z "},"β":{"ha":903,"x_min":139,"x_max":783,"o":"m 432 -12 q 343 -5 384 -12 q 278 10 301 2 l 278 -359 l 139 -347 l 139 772 q 160 898 139 844 q 221 985 181 951 q 318 1037 261 1020 q 447 1053 376 1053 q 552 1038 503 1053 q 638 991 601 1022 q 695 915 674 960 q 717 812 717 869 q 682 681 717 736 q 590 597 647 626 l 489 567 l 586 557 q 668 521 631 541 q 730 472 704 501 q 769 403 756 443 q 783 308 783 363 q 755 167 783 227 q 678 67 726 107 q 566 8 630 28 q 432 -12 503 -12 m 271 139 q 296 125 281 132 q 331 112 312 118 q 371 103 350 106 q 413 99 392 99 q 508 110 465 99 q 584 145 552 122 q 633 208 615 169 q 651 301 651 246 q 630 392 651 353 q 572 456 608 431 q 487 494 535 481 q 385 507 438 507 l 326 615 q 376 616 349 615 q 428 623 402 618 q 478 636 454 628 q 521 656 503 644 q 571 713 552 678 q 590 797 590 747 q 578 857 590 829 q 547 906 567 885 q 500 939 526 926 q 445 951 474 951 q 381 942 413 951 q 325 916 350 934 q 286 871 301 899 q 271 806 271 844 l 271 139 z "},"γ":{"ha":903,"x_min":69,"x_max":801,"o":"m 69 776 q 124 774 95 776 q 178 760 152 772 q 228 724 205 749 q 269 653 252 699 l 415 253 l 451 92 l 488 253 l 674 764 l 801 778 l 516 -12 l 516 -347 l 383 -347 l 383 -33 l 151 603 q 126 651 140 635 q 99 675 112 667 q 69 685 85 684 l 69 776 z "},"δ":{"ha":903,"x_min":76,"x_max":764,"o":"m 417 88 q 497 109 460 88 q 560 168 534 131 q 601 256 586 205 q 615 365 615 306 q 610 427 615 395 q 594 490 605 459 q 567 547 583 520 q 530 595 551 574 q 480 627 508 615 q 419 640 452 640 q 267 569 318 640 q 217 365 217 499 q 231 256 217 306 q 270 168 244 205 q 334 109 297 131 q 417 88 371 88 m 667 1042 l 637 932 l 392 932 q 348 930 368 932 q 313 924 328 928 q 290 912 299 920 q 282 892 282 904 q 294 867 282 880 q 327 842 307 855 q 371 818 347 830 q 420 795 396 806 q 466 775 444 784 q 502 758 488 765 q 617 684 568 722 q 699 599 667 646 q 748 496 732 553 q 764 365 764 439 q 737 222 764 290 q 663 102 710 154 q 553 19 616 50 q 419 -12 490 -12 q 279 22 342 -12 q 171 110 216 56 q 101 234 126 165 q 76 374 76 303 q 86 470 76 422 q 119 564 96 519 q 181 645 142 608 q 276 705 219 682 l 417 705 l 347 735 q 266 766 301 750 q 207 800 231 781 q 170 841 183 818 q 158 895 158 865 q 169 955 158 930 q 199 995 180 979 q 243 1020 218 1011 q 295 1035 268 1030 q 351 1041 323 1040 q 405 1042 379 1042 l 667 1042 z "},"ε":{"ha":903,"x_min":188,"x_max":726,"o":"m 639 440 l 625 347 l 449 347 q 400 337 424 347 q 359 309 376 327 q 330 268 341 292 q 319 217 319 244 q 333 167 319 190 q 369 129 346 145 q 425 104 393 113 q 497 95 458 95 q 569 102 538 95 q 621 117 600 108 q 663 139 645 126 l 726 69 q 670 28 705 47 q 591 1 640 13 q 469 -12 542 -12 q 371 2 421 -12 q 280 44 321 16 q 214 116 240 73 q 188 217 188 159 q 212 320 188 277 q 277 392 236 364 q 212 460 236 418 q 188 563 188 503 q 214 661 188 621 q 280 727 240 701 q 371 764 321 753 q 469 776 421 776 q 543 770 508 776 q 605 757 578 764 q 663 739 636 749 l 624 656 q 586 662 606 659 q 546 667 569 665 q 497 669 523 669 q 425 659 458 669 q 369 634 393 650 q 333 595 346 617 q 319 549 319 574 q 330 507 319 527 q 358 472 340 487 q 399 448 376 457 q 449 440 423 440 l 639 440 z "},"ζ":{"ha":903,"x_min":149,"x_max":708,"o":"m 708 1042 l 694 932 q 606 856 653 897 q 515 768 560 815 q 428 672 469 722 q 355 569 386 622 q 305 464 324 517 q 286 359 286 411 q 291 291 286 323 q 312 230 297 259 q 355 172 327 200 q 428 114 383 143 q 492 76 460 93 q 554 43 524 60 q 608 10 583 27 q 652 -29 633 -8 q 681 -78 671 -51 q 692 -141 692 -105 q 677 -208 692 -176 q 639 -267 663 -240 q 581 -318 614 -295 q 510 -359 548 -342 l 447 -268 q 489 -244 469 -257 q 524 -216 509 -231 q 547 -186 538 -202 q 556 -154 556 -171 q 538 -100 556 -123 q 490 -58 519 -77 q 424 -20 461 -38 q 347 21 386 -1 q 261 82 299 49 q 199 154 224 115 q 162 240 174 193 q 149 342 149 286 q 172 496 149 421 q 229 638 194 572 q 303 759 263 704 q 378 850 343 813 l 561 951 l 444 932 l 194 932 l 208 1042 l 708 1042 z "},"η":{"ha":903,"x_min":139,"x_max":694,"o":"m 271 0 l 139 0 l 139 764 l 271 778 l 271 651 l 313 725 q 345 742 326 733 q 389 759 365 751 q 440 771 413 766 q 497 776 468 776 q 589 758 551 776 q 651 707 627 740 q 684 626 674 674 q 694 521 694 579 l 694 -347 l 563 -347 l 563 521 q 557 585 563 558 q 539 630 552 613 q 505 656 526 648 q 451 665 483 665 q 403 657 428 665 q 356 639 379 650 q 311 613 333 627 q 271 586 289 599 l 271 0 z "},"θ":{"ha":903,"x_min":69,"x_max":764,"o":"m 417 -12 q 301 11 352 -12 q 212 72 251 33 q 147 163 174 111 q 102 275 119 215 q 77 397 85 334 q 69 521 69 460 q 77 645 69 582 q 102 767 85 708 q 147 878 119 826 q 212 969 174 931 q 301 1031 251 1008 q 417 1053 352 1053 q 532 1031 481 1053 q 621 969 583 1008 q 687 878 660 931 q 731 767 714 826 q 756 645 748 708 q 764 521 764 582 q 756 397 764 460 q 731 275 748 334 q 687 164 714 216 q 621 72 660 111 q 532 11 583 33 q 417 -12 481 -12 m 196 569 l 638 569 q 629 654 635 610 q 611 739 622 697 q 582 816 599 780 q 541 881 565 853 q 486 924 517 908 q 417 940 455 940 q 347 924 378 940 q 293 881 317 908 q 251 816 269 853 q 223 739 234 780 q 205 654 211 697 q 196 569 198 610 m 196 465 q 205 382 199 425 q 224 299 212 340 q 253 223 235 258 q 294 160 270 187 q 348 117 317 133 q 417 101 378 101 q 508 131 469 101 q 573 211 547 161 q 614 327 599 261 q 637 465 630 393 l 196 465 z "},"ι":{"ha":903,"x_min":333,"x_max":638,"o":"m 347 626 l 333 764 l 479 778 l 479 270 q 480 231 479 252 q 483 185 481 210 q 505 114 486 138 q 556 90 524 90 q 578 91 571 90 q 590 93 586 92 l 638 6 q 604 -6 626 -1 q 556 -12 582 -12 q 443 10 485 -12 q 381 72 402 33 q 353 165 360 111 q 347 280 347 218 l 347 626 z "},"κ":{"ha":903,"x_min":194,"x_max":764,"o":"m 208 0 l 208 638 l 194 764 l 333 778 l 333 447 l 590 764 l 729 778 l 486 465 l 379 417 l 486 368 l 764 1 l 625 1 l 333 385 l 333 0 l 208 0 z "},"λ":{"ha":903,"x_min":93,"x_max":795,"o":"m 451 672 l 415 511 l 229 0 l 93 0 l 383 797 q 352 866 369 831 q 315 928 335 901 q 274 974 295 956 q 229 992 252 992 q 197 985 213 992 q 170 969 182 978 l 119 1044 q 182 1083 149 1069 q 251 1097 216 1097 q 338 1069 299 1097 q 409 995 377 1041 q 468 892 442 949 q 515 776 494 834 l 795 0 l 674 0 l 488 511 l 451 672 z "},"μ":{"ha":903,"x_min":139,"x_max":694,"o":"m 139 764 l 271 778 l 271 253 q 274 193 271 223 q 291 140 277 164 q 334 102 306 117 q 414 88 363 88 q 494 104 456 88 q 563 154 533 120 l 563 764 l 694 778 l 694 0 l 563 0 l 563 90 q 508 37 535 57 q 455 7 481 17 q 403 -7 428 -3 q 354 -10 378 -10 q 303 -6 328 -10 q 257 8 277 -1 l 271 -104 l 271 -347 l 139 -347 l 139 764 z "},"ν":{"ha":903,"x_min":86,"x_max":803,"o":"m 352 0 l 86 764 l 220 764 l 413 205 l 444 52 l 478 205 l 670 764 l 803 764 l 538 0 l 352 0 z "},"ξ":{"ha":903,"x_min":149,"x_max":709,"o":"m 347 21 q 280 66 315 39 q 216 128 245 93 q 169 208 188 164 q 150 303 150 251 q 160 392 150 354 q 188 459 170 431 q 228 508 206 488 q 278 540 251 527 l 371 549 l 278 588 q 246 623 261 603 q 220 664 231 642 q 202 710 208 685 q 195 762 195 735 q 200 815 195 789 q 214 864 204 841 q 239 908 224 888 q 278 944 255 928 l 347 972 q 266 980 303 972 q 204 1003 230 988 q 164 1044 178 1019 q 149 1102 149 1068 l 285 1102 q 289 1087 285 1097 q 304 1067 294 1077 q 332 1049 315 1057 q 374 1042 349 1042 l 709 1042 l 694 932 l 512 932 q 476 927 496 932 q 435 914 456 923 q 394 890 414 904 q 359 858 374 876 q 334 815 343 839 q 324 762 324 791 q 343 696 324 724 q 387 650 361 668 q 441 623 413 632 q 487 615 468 615 l 646 615 l 628 513 q 555 511 593 513 q 478 503 516 510 q 407 483 441 496 q 348 447 374 469 q 307 391 322 425 q 292 310 292 358 q 300 260 292 286 q 324 208 308 234 q 367 159 341 183 q 428 114 392 135 q 494 79 461 95 q 556 46 526 63 q 610 12 585 30 q 653 -28 635 -6 q 681 -77 671 -50 q 692 -141 692 -105 q 677 -208 692 -176 q 639 -267 663 -240 q 581 -318 614 -295 q 510 -359 548 -342 l 447 -268 q 489 -244 469 -257 q 524 -216 509 -231 q 547 -186 538 -202 q 556 -154 556 -171 q 538 -100 556 -123 q 490 -58 519 -77 q 424 -20 461 -38 q 347 21 386 -1 z "},"ο":{"ha":903,"x_min":100,"x_max":795,"o":"m 451 -12 q 309 18 374 -12 q 199 102 245 49 q 126 227 152 155 q 100 384 100 299 q 125 540 100 468 q 196 664 150 612 q 307 746 242 717 q 451 776 372 776 q 591 746 528 776 q 700 664 654 717 q 770 540 745 612 q 795 384 795 468 q 771 227 795 299 q 702 102 747 155 q 594 18 658 49 q 451 -12 530 -12 m 663 365 q 651 476 663 422 q 614 573 640 530 q 547 642 588 615 q 448 668 506 668 q 351 645 392 668 q 284 584 310 622 q 245 497 258 546 q 232 397 232 449 q 245 287 232 341 q 284 190 258 233 q 353 122 311 148 q 453 96 395 96 q 548 119 508 96 q 614 180 588 142 q 651 266 639 217 q 663 365 663 314 z "},"ς":{"ha":903,"x_min":150,"x_max":692,"o":"m 646 615 l 628 513 q 555 511 593 513 q 478 503 516 510 q 407 483 441 496 q 348 447 374 469 q 307 391 322 425 q 292 310 292 358 q 300 260 292 286 q 324 208 308 234 q 367 159 341 183 q 428 114 392 135 q 494 79 461 95 q 556 46 526 63 q 610 12 585 30 q 653 -28 635 -6 q 681 -77 671 -50 q 692 -141 692 -105 q 677 -208 692 -176 q 639 -267 663 -240 q 581 -318 614 -295 q 510 -359 548 -342 l 447 -268 q 489 -244 469 -257 q 524 -216 509 -231 q 547 -186 538 -202 q 556 -154 556 -171 q 538 -100 556 -123 q 490 -58 519 -77 q 424 -20 461 -38 q 347 21 386 -1 q 280 66 315 39 q 216 128 245 93 q 169 208 188 164 q 150 303 150 251 q 158 382 150 343 q 186 455 167 420 q 236 519 205 490 q 311 569 267 548 q 417 602 356 590 q 556 615 477 615 l 646 615 z "},"σ":{"ha":903,"x_min":69,"x_max":833,"o":"m 69 383 q 78 484 69 435 q 106 578 88 534 q 152 658 124 622 q 219 722 181 695 q 307 763 258 748 q 417 778 356 778 l 833 778 l 833 681 l 764 681 l 648 691 l 721 592 q 753 492 743 544 q 764 383 764 440 q 744 230 764 301 q 681 105 724 158 q 573 19 639 51 q 417 -12 508 -12 q 260 21 326 -12 q 152 108 194 53 q 90 234 110 163 q 69 383 69 306 m 188 383 q 201 276 188 329 q 243 181 215 223 q 315 112 272 138 q 417 85 358 85 q 518 112 475 85 q 590 181 562 138 q 632 276 618 223 q 646 383 646 329 q 632 490 646 437 q 590 586 618 544 q 518 655 562 628 q 417 681 475 681 q 315 655 358 681 q 243 585 272 628 q 201 489 215 542 q 188 383 188 435 z "},"τ":{"ha":903,"x_min":139,"x_max":764,"o":"m 527 654 l 527 184 q 530 136 527 158 q 541 94 533 115 q 562 50 549 73 q 596 0 575 28 l 449 0 q 405 77 415 24 q 394 210 394 131 l 394 654 l 139 654 l 153 764 l 764 764 l 750 654 l 527 654 z "},"υ":{"ha":903,"x_min":69,"x_max":812,"o":"m 416 345 q 419 235 416 283 q 435 155 422 187 q 475 106 449 122 q 548 90 501 90 q 619 104 593 90 q 659 144 646 119 q 676 205 673 170 q 680 278 680 239 l 680 508 q 664 601 680 564 q 627 659 649 638 q 581 690 605 681 q 541 699 557 699 l 541 776 q 648 759 599 776 q 734 710 697 742 q 791 632 770 678 q 812 527 812 585 q 811 403 812 449 q 811 331 811 357 q 811 293 811 305 q 810 272 810 281 q 808 209 810 242 q 797 145 806 176 q 770 85 788 113 q 724 35 753 56 q 652 1 695 13 q 548 -12 608 -12 q 443 2 486 -12 q 371 39 400 15 q 325 92 342 62 q 299 156 308 123 q 288 224 290 190 q 285 289 285 258 l 285 587 q 271 652 285 628 q 224 676 257 676 q 169 652 190 676 q 149 587 149 628 l 69 587 q 80 656 69 622 q 111 716 90 690 q 161 759 131 743 q 230 776 191 776 q 306 762 272 776 q 364 724 340 749 q 402 664 389 699 q 416 587 416 629 l 416 345 z "},"φ":{"ha":903,"x_min":69,"x_max":831,"o":"m 516 778 l 516 692 q 562 685 539 690 q 607 674 585 681 q 775 560 718 642 q 831 347 831 478 q 775 134 831 215 q 608 21 719 53 q 516 1 565 8 l 516 -347 l 383 -347 l 383 1 q 292 20 336 8 q 125 134 181 53 q 69 347 69 215 q 125 560 69 478 q 292 674 181 642 q 337 685 315 681 q 383 692 359 690 l 383 764 l 516 778 m 516 101 q 663 175 613 115 q 713 347 713 235 q 664 520 713 460 q 516 593 615 581 l 516 101 m 383 593 q 236 520 285 580 q 187 347 187 460 q 236 175 187 235 q 383 101 285 115 l 383 593 z "},"χ":{"ha":903,"x_min":72,"x_max":801,"o":"m 480 37 l 426 160 l 393 49 l 209 -347 l 72 -347 l 363 228 l 186 603 q 156 648 170 632 q 129 673 141 665 q 104 685 116 683 l 104 776 q 157 771 130 776 q 210 751 184 766 q 260 710 236 737 q 303 640 284 683 l 468 272 l 490 382 l 662 764 l 801 764 l 526 213 l 716 -184 q 747 -229 732 -213 q 773 -253 761 -245 q 799 -266 786 -263 l 799 -359 q 747 -355 772 -359 q 697 -339 722 -351 q 647 -301 672 -326 q 599 -233 623 -276 l 480 37 z "},"ψ":{"ha":903,"x_min":69,"x_max":833,"o":"m 69 556 l 201 569 l 201 345 q 207 249 201 295 q 227 167 212 203 q 272 111 243 132 q 347 90 300 90 q 353 89 349 89 l 381 89 l 381 764 l 514 778 l 514 89 l 556 89 q 631 110 603 89 q 675 167 660 132 q 696 249 691 203 q 701 345 701 295 l 701 467 q 699 566 701 522 q 688 639 697 609 q 664 684 680 668 q 620 699 647 699 l 620 776 q 718 752 678 776 q 784 689 759 728 q 822 597 810 649 q 833 485 833 544 l 833 344 q 832 279 833 316 q 822 203 830 242 q 796 125 813 163 q 748 56 778 86 q 670 7 717 26 q 556 -12 623 -12 l 514 -12 l 514 -347 l 381 -347 l 381 -12 l 347 -12 q 233 7 280 -12 q 155 56 186 26 q 107 125 124 86 q 81 203 90 163 q 71 279 73 242 q 69 344 69 316 l 69 556 z "},"ω":{"ha":903,"x_min":77,"x_max":896,"o":"m 551 503 l 551 335 q 553 241 551 285 q 565 163 556 197 q 595 109 575 129 q 653 90 616 90 q 717 110 694 90 q 750 168 740 131 q 762 256 760 205 q 764 368 764 307 q 756 482 764 432 q 734 568 747 531 q 704 630 721 605 q 670 670 688 655 q 638 693 653 686 q 612 699 622 699 l 612 776 q 721 744 669 776 q 811 660 772 713 q 873 537 850 608 q 896 389 896 467 l 896 317 q 894 240 896 279 q 883 164 892 201 q 859 96 875 128 q 817 40 844 64 q 750 2 790 16 q 653 -12 710 -12 q 591 -5 617 -12 q 544 15 565 2 q 510 45 524 28 q 486 83 497 63 q 462 45 476 63 q 428 15 448 28 q 382 -5 408 2 q 320 -12 355 -12 q 223 2 263 -12 q 156 40 183 16 q 114 96 129 64 q 90 165 98 128 q 79 240 81 201 q 77 317 77 279 l 77 389 q 99 537 77 467 q 158 660 121 608 q 246 744 196 713 q 354 776 297 776 l 354 699 q 314 684 338 699 q 266 630 289 668 q 226 528 242 592 q 209 368 209 465 q 211 256 209 307 q 223 168 213 205 q 256 110 233 131 q 320 90 278 90 q 377 109 357 90 q 408 163 398 129 q 419 241 417 197 q 422 335 422 285 l 422 517 l 551 503 z "},"ϑ":{"ha":903,"x_min":69,"x_max":849,"o":"m 215 336 q 236 247 225 289 q 266 172 248 204 q 312 120 285 140 q 382 101 340 101 q 466 129 432 101 q 522 204 500 156 q 556 315 544 251 q 572 451 567 378 l 313 451 q 214 460 258 451 q 137 493 169 468 q 87 563 105 518 q 69 681 69 608 q 78 768 69 724 q 104 855 87 813 q 148 932 122 896 q 208 995 174 968 q 286 1038 243 1022 q 382 1053 330 1053 q 489 1033 443 1053 q 569 977 535 1013 q 626 893 603 941 q 664 789 649 844 q 685 674 678 734 q 694 556 692 615 l 849 556 l 835 451 l 692 451 q 679 338 688 394 q 656 231 671 282 q 618 135 641 179 q 562 58 595 90 q 485 7 529 26 q 382 -12 440 -12 q 272 11 317 -12 q 195 73 227 34 q 141 164 163 112 q 102 276 119 217 l 215 336 m 382 940 q 293 917 330 940 q 233 857 256 894 q 199 772 210 819 q 188 675 188 724 q 199 606 188 630 q 233 570 210 582 q 293 557 256 559 q 382 556 330 556 l 573 556 q 560 701 569 631 q 528 824 550 771 q 472 909 507 877 q 382 940 436 940 z "},"ϒ":{"ha":903,"x_min":78,"x_max":820,"o":"m 820 1053 l 820 963 q 788 954 804 962 q 759 933 774 947 q 731 895 743 919 l 516 457 l 516 0 l 383 0 l 383 457 l 167 895 q 140 933 155 919 q 110 954 124 947 q 78 963 94 962 l 78 1053 q 127 1050 104 1053 q 173 1035 151 1047 q 218 998 196 1022 q 264 931 240 973 l 396 694 l 452 522 l 503 694 l 635 931 q 681 998 658 973 q 725 1035 703 1022 q 771 1050 748 1047 q 820 1053 794 1053 z "},"ϕ":{"ha":903,"x_min":104,"x_max":797,"o":"m 383 -2 q 174 99 244 14 q 104 344 104 185 q 118 458 104 408 q 153 545 132 508 q 198 608 174 583 q 243 651 222 634 l 310 555 q 280 526 295 542 q 251 485 265 509 q 230 426 238 460 q 222 344 222 392 q 230 246 222 288 q 256 173 238 203 q 306 123 275 142 q 383 97 337 104 l 383 551 q 396 614 383 589 q 431 654 410 639 q 479 675 452 669 q 533 681 506 681 q 647 655 597 681 q 729 583 696 628 q 780 475 763 537 q 797 344 797 414 q 725 99 797 184 q 516 -2 654 13 l 516 -347 l 383 -347 l 383 -2 m 560 580 q 528 572 541 580 q 515 538 515 563 l 515 96 q 593 123 562 104 q 643 172 624 142 q 670 245 663 203 q 678 344 678 288 q 673 435 678 392 q 655 510 668 478 q 618 561 641 542 q 560 580 595 580 z "},"ϖ":{"ha":903,"x_min":77,"x_max":901,"o":"m 887 654 l 775 654 l 836 615 q 858 573 847 595 q 877 519 869 550 q 891 445 885 488 q 896 344 896 403 l 896 308 q 894 243 896 278 q 884 172 892 208 q 861 103 876 136 q 819 44 846 70 q 751 3 792 19 q 653 -12 710 -12 q 588 -5 615 -12 q 542 15 561 2 q 509 45 522 28 q 486 83 497 63 q 463 45 476 63 q 431 15 450 28 q 384 -5 411 2 q 320 -12 358 -12 q 222 3 263 -12 q 154 44 181 19 q 112 103 127 70 q 89 172 97 136 q 79 243 81 208 q 77 308 77 278 l 77 344 q 82 445 77 403 q 96 519 88 488 q 115 573 104 550 q 137 615 126 595 l 198 654 l 81 654 l 95 764 l 901 764 l 887 654 m 551 503 l 551 322 q 553 233 551 275 q 564 158 555 190 q 594 108 574 126 q 653 90 615 90 q 711 111 690 90 q 745 167 733 132 q 760 249 757 203 q 764 345 764 295 q 757 473 764 420 q 740 561 751 525 q 715 618 729 597 q 687 654 701 640 l 285 654 q 257 618 271 640 q 233 561 243 597 q 216 473 222 525 q 209 345 209 420 q 213 249 209 295 q 228 167 216 203 q 261 111 240 132 q 320 90 283 90 q 379 108 358 90 q 409 158 399 126 q 420 233 418 190 q 422 322 422 275 l 422 517 l 551 503 z "},"‐":{"ha":903,"x_min":278,"x_max":625,"o":"m 278 417 l 625 417 l 625 309 l 278 309 l 278 417 z "},"―":{"ha":903,"x_min":0,"x_max":833,"o":"m 0 417 l 833 417 l 833 309 l 0 309 l 0 417 z "},"‖":{"ha":903,"x_min":278,"x_max":594,"o":"m 385 1042 l 385 0 l 278 0 l 278 1042 l 385 1042 m 594 1042 l 594 0 l 486 0 l 486 1042 l 594 1042 z "},"‣":{"ha":903,"x_min":278,"x_max":625,"o":"m 278 664 l 625 451 l 278 243 l 278 664 z "},"‱":{"ha":1806,"x_min":69,"x_max":1667,"o":"m 1071 -12 q 988 7 1022 -12 q 932 60 953 26 q 901 140 910 94 q 891 240 891 186 q 900 338 891 292 q 930 416 909 383 q 986 467 951 449 q 1071 486 1020 486 q 1153 467 1119 486 q 1209 416 1188 449 q 1240 338 1231 383 q 1250 240 1250 292 q 1241 140 1250 186 q 1210 60 1231 94 q 1155 7 1190 26 q 1071 -12 1121 -12 m 1147 273 q 1144 319 1147 297 q 1135 358 1142 342 q 1112 385 1127 375 q 1070 395 1097 395 q 1030 386 1044 395 q 1008 362 1015 377 q 999 326 1001 347 q 997 283 997 306 l 997 213 q 999 165 997 188 q 1008 125 1001 142 q 1032 98 1016 108 q 1074 88 1047 88 q 1113 97 1099 88 q 1135 122 1128 106 q 1144 157 1142 137 q 1147 200 1147 178 l 1147 273 m 1488 -12 q 1405 7 1439 -12 q 1349 60 1370 26 q 1317 140 1327 94 q 1308 240 1308 186 q 1317 338 1308 292 q 1347 416 1326 383 q 1402 467 1368 449 q 1488 486 1437 486 q 1570 467 1536 486 q 1626 416 1604 449 q 1657 338 1647 383 q 1667 240 1667 292 q 1657 140 1667 186 q 1627 60 1648 94 q 1572 7 1606 26 q 1488 -12 1538 -12 m 1563 273 q 1561 319 1563 297 q 1551 358 1559 342 q 1528 385 1544 375 q 1487 395 1513 395 q 1447 386 1461 395 q 1425 362 1432 377 q 1415 326 1417 347 q 1413 283 1413 306 l 1413 213 q 1415 165 1413 188 q 1425 125 1417 142 q 1448 98 1433 108 q 1490 88 1464 88 q 1530 97 1515 88 q 1552 122 1544 106 q 1561 157 1559 137 q 1563 200 1563 178 l 1563 273 m 274 0 l 159 0 l 628 1042 l 744 1042 l 274 0 m 249 556 q 166 575 201 556 q 110 627 132 594 q 79 707 89 661 q 69 807 69 753 q 78 905 69 860 q 109 983 88 951 q 164 1035 130 1016 q 249 1053 199 1053 q 332 1035 298 1053 q 388 983 366 1016 q 419 905 409 951 q 428 807 428 860 q 419 707 428 753 q 389 627 410 661 q 334 575 368 594 q 249 556 299 556 m 325 840 q 323 887 325 865 q 313 926 321 909 q 290 952 306 942 q 249 963 275 963 q 208 953 223 963 q 186 929 194 944 q 177 893 179 914 q 175 850 175 873 l 175 780 q 177 732 175 755 q 187 693 179 710 q 210 666 194 676 q 252 656 226 656 q 292 665 277 656 q 314 689 306 674 q 323 725 321 704 q 325 767 325 745 l 325 840 m 654 -12 q 571 7 606 -12 q 515 60 537 26 q 484 140 494 94 q 474 240 474 186 q 483 338 474 292 q 514 416 492 383 q 569 467 535 449 q 654 486 603 486 q 737 467 703 486 q 792 416 771 449 q 824 338 814 383 q 833 240 833 292 q 824 140 833 186 q 794 60 815 94 q 739 7 773 26 q 654 -12 704 -12 m 730 273 q 728 319 730 297 q 718 358 726 342 q 695 385 710 375 q 653 395 680 395 q 613 386 628 395 q 591 362 599 377 q 582 326 584 347 q 580 283 580 306 l 580 213 q 582 165 580 188 q 592 125 584 142 q 615 98 599 108 q 657 88 631 88 q 697 97 682 88 q 718 122 711 106 q 728 157 726 137 q 730 200 730 178 l 730 273 z "},"′":{"ha":903,"x_min":138,"x_max":311,"o":"m 311 865 l 197 615 l 138 615 l 187 865 l 187 1056 l 311 1042 l 311 865 z "},"″":{"ha":903,"x_min":138,"x_max":519,"o":"m 311 865 l 197 615 l 138 615 l 187 865 l 187 1056 l 311 1042 l 311 865 m 519 865 l 406 615 l 347 615 l 395 865 l 395 1056 l 519 1042 l 519 865 z "},"‴":{"ha":903,"x_min":138,"x_max":728,"o":"m 311 865 l 197 615 l 138 615 l 187 865 l 187 1056 l 311 1042 l 311 865 m 519 865 l 406 615 l 347 615 l 395 865 l 395 1056 l 519 1042 l 519 865 m 728 865 l 614 615 l 555 615 l 603 865 l 603 1056 l 728 1042 l 728 865 z "},"‵":{"ha":903,"x_min":175,"x_max":348,"o":"m 175 1042 l 299 1056 l 299 865 l 348 615 l 289 615 l 175 865 l 175 1042 z "},"⁂":{"ha":903,"x_min":114,"x_max":794,"o":"m 497 762 l 545 695 l 511 664 l 459 735 l 451 760 l 442 735 l 394 669 l 353 692 l 405 763 l 428 778 l 399 779 l 322 805 l 331 850 l 414 824 l 437 806 l 429 834 l 429 915 l 476 920 l 476 833 l 467 805 l 490 822 l 567 847 l 586 805 l 502 778 l 475 776 l 497 762 m 705 345 l 753 278 l 719 247 l 667 319 l 659 344 l 651 319 l 602 252 l 562 275 l 613 346 l 636 361 l 608 363 l 531 388 l 540 433 l 622 407 l 645 389 l 638 417 l 638 499 l 684 503 l 684 416 l 675 388 l 698 406 l 776 431 l 794 388 l 710 361 l 683 360 l 705 345 m 288 345 l 337 278 l 303 247 l 251 319 l 242 344 l 234 319 l 185 252 l 145 275 l 197 346 l 219 361 l 191 363 l 114 388 l 123 433 l 206 407 l 228 389 l 221 417 l 221 499 l 267 503 l 267 416 l 258 388 l 281 406 l 359 431 l 378 388 l 294 361 l 267 360 l 288 345 z "},"⁑":{"ha":903,"x_min":322,"x_max":586,"o":"m 497 762 l 545 695 l 511 664 l 459 735 l 451 760 l 442 735 l 394 669 l 353 692 l 405 763 l 428 778 l 399 779 l 322 805 l 331 850 l 414 824 l 437 806 l 429 834 l 429 915 l 476 920 l 476 833 l 467 805 l 490 822 l 567 847 l 586 805 l 502 778 l 475 776 l 497 762 m 497 345 l 545 278 l 511 247 l 459 319 l 451 344 l 442 319 l 394 252 l 353 275 l 405 346 l 428 361 l 399 363 l 322 388 l 331 433 l 414 407 l 437 389 l 429 417 l 429 499 l 476 503 l 476 416 l 467 388 l 490 406 l 567 431 l 586 388 l 502 361 l 475 360 l 497 345 z "},"⁰":{"ha":903,"x_min":250,"x_max":604,"o":"m 427 494 q 373 505 398 494 q 329 536 349 517 q 294 582 309 556 q 270 637 280 608 q 255 698 260 667 q 250 760 250 730 q 254 824 250 792 q 267 885 258 856 q 291 940 276 915 q 324 985 305 966 q 369 1015 344 1004 q 427 1026 395 1026 q 482 1015 457 1026 q 526 985 506 1004 q 560 939 545 965 q 585 883 575 913 q 599 822 594 853 q 604 760 604 790 q 600 697 604 729 q 587 636 596 665 q 564 580 578 606 q 530 535 550 554 q 485 505 510 516 q 427 494 459 494 m 322 775 q 324 731 322 755 q 329 682 325 707 q 341 635 333 658 q 360 594 348 612 q 389 566 372 576 q 430 555 406 555 q 467 563 451 555 q 494 585 483 571 q 513 618 506 599 q 525 657 520 636 q 531 701 529 678 q 533 745 533 724 q 531 790 533 765 q 526 838 530 814 q 514 885 522 863 q 494 926 506 908 q 465 955 483 944 q 424 965 448 965 q 388 957 403 965 q 360 935 372 949 q 341 903 349 922 q 330 863 334 884 q 324 819 326 842 q 322 775 322 797 z "},"ⁱ":{"ha":903,"x_min":138,"x_max":468,"o":"m 315 636 q 318 603 315 618 q 325 576 320 588 q 339 559 331 565 q 360 553 348 553 q 394 556 378 553 q 423 562 410 558 q 444 569 435 566 q 455 573 453 572 l 468 519 q 457 514 466 518 q 433 506 448 510 q 399 498 419 501 q 357 494 380 494 q 302 505 323 494 q 269 536 281 516 q 253 582 258 556 q 249 640 249 609 l 249 819 l 263 840 l 215 826 l 145 826 l 138 882 l 315 882 l 315 636 m 247 1021 l 317 1021 l 317 951 l 247 951 l 247 1021 z "},"⁴":{"ha":903,"x_min":121,"x_max":468,"o":"m 463 604 l 401 604 l 401 500 l 328 500 l 328 604 l 121 604 l 121 663 l 289 1028 l 355 1021 l 210 708 l 178 660 l 328 660 l 328 801 l 401 795 l 401 660 l 468 660 l 463 604 z "},"⁵":{"ha":903,"x_min":143,"x_max":438,"o":"m 215 841 q 224 845 217 842 q 239 852 230 849 q 259 857 248 855 q 285 859 271 859 q 350 848 322 859 q 398 817 378 837 q 427 771 417 797 q 438 715 438 744 q 425 650 438 680 q 391 597 413 620 q 340 555 369 573 q 278 524 311 537 q 211 506 246 512 q 143 500 176 500 l 143 556 q 195 562 169 556 q 247 577 222 567 q 294 600 272 587 q 332 631 315 614 q 357 667 348 647 q 367 708 367 686 q 361 742 367 725 q 344 772 355 758 q 316 793 333 785 q 276 801 299 801 q 244 798 258 801 q 219 792 230 796 q 199 785 208 789 q 186 778 191 781 l 143 778 l 143 1021 l 404 1021 l 404 965 l 215 965 l 215 841 z "},"⁶":{"ha":903,"x_min":122,"x_max":471,"o":"m 402 967 q 395 967 400 967 l 387 967 q 338 960 362 967 q 294 938 315 952 q 255 904 273 924 q 224 860 238 884 q 202 809 211 836 q 191 753 194 782 l 219 794 q 240 805 228 799 q 264 814 251 810 q 290 819 277 817 q 315 822 303 822 q 374 813 346 822 q 423 788 401 805 q 458 743 445 770 q 471 678 471 716 q 458 607 471 640 q 423 548 446 574 q 368 508 400 523 q 297 494 336 494 q 237 505 263 494 q 191 534 210 516 q 159 575 172 552 q 138 623 146 599 q 126 671 129 647 q 122 715 122 695 q 131 795 122 756 q 156 869 140 835 q 195 933 172 904 q 248 983 218 962 q 313 1015 278 1003 q 390 1026 349 1026 l 401 1026 q 411 1026 408 1026 l 402 967 m 194 707 q 194 689 194 697 q 195 674 194 681 q 197 658 196 666 q 201 641 199 651 q 214 605 206 622 q 235 577 223 589 q 263 559 247 566 q 298 553 278 553 q 345 563 326 553 q 376 591 364 574 q 394 630 388 608 q 400 674 400 652 q 393 713 400 697 q 375 741 387 730 q 347 757 363 751 q 310 763 331 763 q 274 758 292 763 q 241 746 256 753 q 213 728 225 738 q 194 707 201 718 z "},"⁷":{"ha":903,"x_min":131,"x_max":458,"o":"m 131 1021 l 458 1021 l 458 976 q 447 937 458 960 q 418 885 435 914 q 380 822 401 856 q 341 753 360 788 q 308 683 322 718 q 291 614 294 647 q 288 585 289 600 q 287 555 288 569 q 286 526 286 540 l 286 500 l 215 500 l 215 528 q 216 565 215 545 q 218 603 217 584 q 223 636 220 622 q 246 709 231 673 q 278 778 260 745 q 314 841 296 811 q 348 894 333 870 q 372 937 363 919 q 381 965 381 955 l 131 965 l 131 1021 z "},"⁸":{"ha":903,"x_min":121,"x_max":469,"o":"m 288 1026 q 347 1018 320 1026 q 394 993 374 1009 q 424 953 413 976 q 435 901 435 930 q 430 865 435 881 q 413 836 424 849 q 389 813 403 823 q 360 794 375 803 q 406 767 385 782 q 440 734 426 753 q 462 692 454 715 q 469 642 469 669 q 454 576 469 603 q 414 530 439 548 q 356 502 388 511 q 290 494 324 494 q 227 504 258 494 q 173 533 197 514 q 135 581 149 552 q 121 647 121 610 q 129 698 121 675 q 151 738 137 720 q 184 770 165 756 q 225 795 203 784 q 195 816 209 805 q 170 839 181 826 q 153 866 160 851 q 147 897 147 880 q 161 955 147 931 q 195 995 174 980 q 241 1019 216 1011 q 288 1026 265 1026 m 285 764 q 245 743 263 754 q 215 717 228 732 q 196 685 203 703 q 190 644 190 667 q 198 606 190 623 q 220 576 206 589 q 253 557 235 564 q 291 551 272 551 q 333 557 313 551 q 368 575 353 563 q 392 604 383 587 q 401 644 401 622 q 390 685 401 667 q 364 718 380 703 q 326 744 347 733 q 285 764 306 755 m 299 820 q 350 855 331 835 q 369 903 369 875 q 361 933 369 921 q 343 954 354 946 q 320 966 333 962 q 295 969 307 969 q 265 965 279 969 q 239 951 250 960 q 221 931 228 942 q 215 905 215 919 q 221 877 215 889 q 240 855 228 865 q 267 836 251 844 q 299 820 282 828 z "},"⁹":{"ha":903,"x_min":121,"x_max":465,"o":"m 370 730 q 329 706 350 714 q 283 699 308 699 q 219 710 249 699 q 168 742 190 722 q 133 792 146 763 q 121 858 121 822 q 133 926 121 895 q 167 980 144 957 q 220 1014 189 1002 q 290 1026 251 1026 q 352 1016 325 1026 q 398 987 378 1005 q 430 947 417 969 q 451 899 443 924 q 462 850 459 874 q 465 806 465 826 q 457 727 465 765 q 433 654 449 688 q 394 592 417 620 q 342 542 372 563 q 278 508 313 521 q 201 494 242 496 l 190 552 q 269 572 232 554 q 333 619 306 590 q 378 687 361 648 q 398 771 396 726 l 370 730 m 394 831 q 386 881 393 857 q 367 925 380 906 q 336 956 355 944 q 293 967 318 967 q 251 960 269 967 q 219 939 232 952 q 199 906 206 925 q 192 864 192 887 q 197 822 192 842 q 215 789 203 803 q 244 766 226 774 q 286 758 262 758 q 321 764 304 758 q 352 780 338 769 q 377 803 366 790 q 394 831 388 816 z "},"⁺":{"ha":903,"x_min":139,"x_max":451,"o":"m 139 743 l 268 743 l 268 889 l 322 889 l 322 743 l 451 743 l 451 689 l 322 689 l 322 542 l 268 542 l 268 689 l 139 689 l 139 743 z "},"⁻":{"ha":903,"x_min":139,"x_max":451,"o":"m 139 743 l 451 743 l 451 689 l 139 689 l 139 743 z "},"⁼":{"ha":903,"x_min":139,"x_max":417,"o":"m 139 743 l 417 743 l 417 694 l 139 694 l 139 743 m 139 639 l 417 639 l 417 590 l 139 590 l 139 639 z "},"⁽":{"ha":903,"x_min":174,"x_max":326,"o":"m 174 908 q 177 965 174 938 q 190 1011 180 992 q 222 1042 201 1031 q 278 1053 242 1053 q 291 1053 284 1053 q 305 1051 299 1052 q 317 1048 312 1050 q 326 1044 323 1047 l 302 1001 l 297 1001 q 291 1002 294 1002 q 285 1003 288 1003 q 261 995 269 1003 q 248 976 252 988 q 244 947 244 963 q 243 913 243 931 l 243 493 q 244 459 243 475 q 248 430 244 442 q 261 410 252 417 q 285 403 269 403 l 291 403 q 297 403 294 403 l 302 404 l 326 360 q 317 357 323 358 q 305 354 312 356 q 291 352 299 353 q 278 352 284 352 q 222 363 242 352 q 190 394 201 374 q 177 440 180 413 q 174 498 174 467 l 174 908 z "},"⁾":{"ha":903,"x_min":160,"x_max":312,"o":"m 312 498 q 309 440 312 467 q 295 394 306 413 q 264 363 285 374 q 208 352 243 352 q 194 352 201 352 q 180 354 187 353 q 168 357 174 356 q 160 360 163 358 l 183 404 l 188 403 q 194 403 191 403 l 201 403 q 225 410 216 403 q 237 430 233 417 q 242 459 241 442 q 242 493 242 475 l 242 913 q 242 947 242 931 q 237 976 241 963 q 225 995 233 988 q 201 1003 216 1003 q 194 1002 197 1003 q 188 1001 191 1002 l 183 1001 l 160 1044 q 168 1048 163 1047 q 180 1051 174 1050 q 194 1053 187 1052 q 208 1053 201 1053 q 264 1042 243 1053 q 295 1011 285 1031 q 309 965 306 992 q 312 908 312 938 l 312 498 z "},"ⁿ":{"ha":903,"x_min":142,"x_max":447,"o":"m 204 500 l 142 500 l 142 882 l 204 889 l 204 822 l 226 863 q 240 871 232 867 q 261 879 249 876 q 290 885 273 883 q 329 888 306 888 q 378 879 356 888 q 416 853 401 870 q 439 813 431 837 q 447 760 447 790 l 447 500 l 385 500 l 385 760 q 378 793 385 779 q 361 815 372 806 q 336 828 351 824 q 306 832 322 832 q 274 828 290 832 q 246 817 259 824 q 222 803 233 811 q 204 790 211 796 l 204 500 z "},"₀":{"ha":903,"x_min":111,"x_max":465,"o":"m 288 -353 q 234 -342 259 -353 q 190 -311 210 -331 q 156 -266 170 -292 q 131 -210 141 -240 q 116 -149 121 -181 q 111 -87 111 -117 q 115 -24 111 -56 q 128 38 119 8 q 152 93 138 67 q 185 138 166 119 q 231 168 205 157 q 288 179 256 179 q 343 168 318 179 q 387 138 367 157 q 421 92 406 118 q 446 36 436 66 q 460 -25 456 6 q 465 -87 465 -57 q 461 -150 465 -118 q 448 -211 457 -182 q 425 -267 439 -241 q 391 -312 411 -293 q 346 -342 372 -331 q 288 -353 320 -353 m 183 -72 q 185 -116 183 -92 q 190 -165 186 -140 q 202 -212 194 -190 q 221 -253 209 -235 q 250 -282 233 -271 q 291 -292 267 -292 q 328 -284 313 -292 q 355 -262 344 -276 q 374 -230 367 -248 q 386 -190 381 -211 q 392 -146 390 -169 q 394 -102 394 -124 q 392 -58 394 -82 q 387 -9 391 -33 q 375 38 383 15 q 356 79 367 61 q 326 107 344 97 q 285 118 309 118 q 249 110 265 118 q 221 88 233 102 q 202 56 210 74 q 191 16 195 37 q 185 -28 187 -6 q 183 -72 183 -51 z "},"₁":{"ha":903,"x_min":142,"x_max":473,"o":"m 160 -347 l 160 -292 l 280 -292 l 280 44 l 300 122 l 253 58 l 179 -8 l 142 35 l 301 181 l 353 174 l 353 -292 l 473 -292 l 473 -347 l 160 -347 z "},"₂":{"ha":903,"x_min":132,"x_max":456,"o":"m 132 -347 l 132 -289 q 167 -239 148 -264 q 205 -191 185 -215 q 243 -147 224 -168 q 276 -108 261 -126 q 311 -70 294 -87 q 341 -36 328 -53 q 362 0 354 -19 q 369 40 369 18 q 363 71 369 56 q 345 97 357 86 q 318 114 334 108 q 284 121 303 121 q 248 115 263 121 q 220 100 232 109 q 200 79 209 90 q 185 56 192 67 l 135 76 q 159 118 144 99 q 192 150 173 137 q 235 172 211 164 q 290 179 260 179 q 352 167 324 179 q 398 134 379 154 q 427 88 417 114 q 437 36 437 63 q 427 -15 437 9 q 402 -61 417 -39 q 370 -102 388 -83 q 340 -137 353 -121 q 303 -179 322 -158 q 269 -219 285 -199 q 238 -257 252 -239 q 213 -292 224 -275 l 456 -292 l 456 -347 l 132 -347 z "},"₃":{"ha":903,"x_min":147,"x_max":458,"o":"m 147 118 l 153 174 l 424 174 l 424 125 q 409 96 419 111 q 386 65 399 81 q 357 35 373 50 q 325 6 341 20 l 279 -19 q 288 -18 283 -19 q 299 -18 294 -18 q 361 -26 332 -18 q 411 -52 390 -35 q 445 -94 433 -69 q 458 -156 458 -120 q 445 -216 458 -189 q 411 -265 433 -244 q 360 -302 389 -287 q 298 -327 331 -317 q 229 -342 265 -337 q 160 -347 194 -347 l 160 -292 q 216 -287 188 -291 q 269 -275 244 -283 q 315 -257 294 -267 q 352 -232 336 -246 q 376 -199 367 -217 q 385 -159 385 -181 q 374 -117 385 -134 q 345 -91 363 -101 q 302 -77 326 -81 q 249 -73 277 -73 q 224 -74 238 -73 q 201 -75 211 -74 l 201 -21 q 232 3 215 -10 q 266 30 249 16 q 299 59 283 44 q 328 88 315 74 q 350 113 341 101 q 362 132 359 124 l 309 118 l 147 118 z "},"₄":{"ha":903,"x_min":121,"x_max":468,"o":"m 463 -243 l 401 -243 l 401 -347 l 328 -347 l 328 -243 l 121 -243 l 121 -184 l 289 181 l 355 174 l 210 -139 l 178 -187 l 328 -187 l 328 -47 l 401 -52 l 401 -187 l 468 -187 l 463 -243 z "},"₅":{"ha":903,"x_min":143,"x_max":438,"o":"m 215 -6 q 224 -2 217 -5 q 239 5 230 1 q 259 10 248 8 q 285 12 271 12 q 350 1 322 12 q 398 -30 378 -10 q 427 -76 417 -50 q 438 -133 438 -103 q 425 -197 438 -167 q 391 -251 413 -227 q 340 -292 369 -274 q 278 -323 311 -310 q 211 -341 246 -335 q 143 -347 176 -347 l 143 -292 q 195 -285 169 -291 q 247 -270 222 -280 q 294 -247 272 -260 q 332 -217 315 -233 q 357 -181 348 -200 q 367 -140 367 -161 q 361 -106 367 -122 q 344 -76 355 -89 q 316 -55 333 -62 q 276 -47 299 -47 q 244 -49 258 -47 q 219 -55 230 -51 q 199 -62 208 -58 q 186 -69 191 -66 l 143 -69 l 143 174 l 404 174 l 404 118 l 215 118 l 215 -6 z "},"₆":{"ha":903,"x_min":122,"x_max":471,"o":"m 402 119 q 395 120 400 120 l 387 120 q 338 113 362 120 q 294 91 315 105 q 255 57 273 76 q 224 13 238 37 q 202 -38 211 -11 q 191 -94 194 -65 l 219 -53 q 240 -43 228 -48 q 264 -34 251 -37 q 290 -28 277 -30 q 315 -26 303 -26 q 374 -34 346 -26 q 423 -60 401 -42 q 458 -104 445 -77 q 471 -169 471 -131 q 458 -240 471 -207 q 423 -299 446 -274 q 368 -339 400 -324 q 297 -353 336 -353 q 237 -342 263 -353 q 191 -313 210 -331 q 159 -272 172 -295 q 138 -224 146 -249 q 126 -176 129 -200 q 122 -132 122 -152 q 131 -52 122 -91 q 156 22 140 -12 q 195 86 172 57 q 248 135 218 115 q 313 168 278 156 q 390 179 349 179 l 401 179 q 411 178 408 179 l 402 119 m 194 -140 q 194 -158 194 -150 q 195 -174 194 -166 q 197 -189 196 -181 q 201 -206 199 -197 q 214 -242 206 -226 q 235 -270 223 -258 q 263 -288 247 -281 q 298 -294 278 -294 q 345 -284 326 -294 q 376 -256 364 -274 q 394 -217 388 -239 q 400 -173 400 -195 q 393 -134 400 -151 q 375 -107 387 -117 q 347 -90 363 -96 q 310 -85 331 -85 q 274 -89 292 -85 q 241 -101 256 -94 q 213 -119 225 -109 q 194 -140 201 -129 z "},"₇":{"ha":903,"x_min":131,"x_max":458,"o":"m 131 174 l 458 174 l 458 128 q 447 90 458 113 q 418 38 435 67 q 380 -25 401 8 q 341 -94 360 -59 q 308 -165 322 -129 q 291 -233 294 -200 q 288 -262 289 -247 q 287 -293 288 -278 q 286 -322 286 -308 l 286 -347 l 215 -347 l 215 -319 q 216 -283 215 -302 q 218 -244 217 -263 q 223 -211 220 -225 q 246 -138 231 -174 q 278 -69 260 -102 q 314 -7 296 -36 q 348 47 333 23 q 372 90 363 72 q 381 118 381 108 l 131 118 l 131 174 z "},"₈":{"ha":903,"x_min":121,"x_max":469,"o":"m 288 179 q 347 170 320 179 q 394 145 374 162 q 424 106 413 129 q 435 53 435 83 q 430 17 435 33 q 413 -11 424 1 q 389 -34 403 -24 q 360 -53 375 -44 q 406 -80 385 -65 q 440 -113 426 -94 q 462 -155 454 -132 q 469 -205 469 -178 q 454 -272 469 -244 q 414 -318 439 -299 q 356 -345 388 -336 q 290 -353 324 -353 q 227 -343 258 -353 q 173 -314 197 -333 q 135 -266 149 -295 q 121 -200 121 -237 q 129 -150 121 -172 q 151 -109 137 -127 q 184 -77 165 -91 q 225 -52 203 -63 q 195 -32 209 -42 q 170 -8 181 -21 q 153 18 160 4 q 147 50 147 33 q 161 108 147 83 q 195 148 174 133 q 241 172 216 164 q 288 179 265 179 m 285 -83 q 245 -104 263 -93 q 215 -130 228 -115 q 196 -162 203 -144 q 190 -203 190 -181 q 198 -241 190 -224 q 220 -271 206 -258 q 253 -290 235 -283 q 291 -297 272 -297 q 333 -290 313 -297 q 368 -272 353 -284 q 392 -243 383 -260 q 401 -203 401 -226 q 390 -162 401 -180 q 364 -129 380 -144 q 326 -103 347 -115 q 285 -83 306 -92 m 299 -27 q 350 8 331 -12 q 369 56 369 28 q 361 86 369 74 q 343 107 354 99 q 320 118 333 115 q 295 122 307 122 q 265 117 279 122 q 239 104 250 113 q 221 83 228 95 q 215 58 215 72 q 221 30 215 42 q 240 7 228 17 q 267 -11 251 -3 q 299 -27 282 -19 z "},"₉":{"ha":903,"x_min":121,"x_max":465,"o":"m 370 -117 q 329 -141 350 -133 q 283 -149 308 -149 q 219 -137 249 -149 q 168 -105 190 -126 q 133 -55 146 -84 q 121 10 121 -26 q 133 79 121 48 q 167 132 144 110 q 220 167 189 155 q 290 179 251 179 q 352 168 325 179 q 398 140 378 158 q 430 99 417 122 q 451 52 443 76 q 462 3 459 27 q 465 -42 465 -22 q 457 -120 465 -82 q 433 -193 449 -159 q 394 -256 417 -227 q 342 -305 372 -284 q 278 -339 313 -326 q 201 -353 242 -351 l 190 -295 q 269 -275 232 -293 q 333 -228 306 -258 q 378 -160 361 -199 q 398 -76 396 -121 l 370 -117 m 394 -17 q 386 34 393 10 q 367 78 380 58 q 336 109 355 97 q 293 120 318 120 q 251 113 269 120 q 219 91 232 105 q 199 59 206 78 q 192 17 192 40 q 197 -25 192 -6 q 215 -59 203 -44 q 244 -81 226 -73 q 286 -90 262 -90 q 321 -84 304 -90 q 352 -68 338 -78 q 377 -44 366 -58 q 394 -17 388 -31 z "},"₊":{"ha":903,"x_min":139,"x_max":451,"o":"m 139 -104 l 268 -104 l 268 42 l 322 42 l 322 -104 l 451 -104 l 451 -158 l 322 -158 l 322 -305 l 268 -305 l 268 -158 l 139 -158 l 139 -104 z "},"₋":{"ha":903,"x_min":139,"x_max":451,"o":"m 139 -104 l 451 -104 l 451 -158 l 139 -158 l 139 -104 z "},"₌":{"ha":903,"x_min":139,"x_max":417,"o":"m 139 -104 l 417 -104 l 417 -153 l 139 -153 l 139 -104 m 139 -208 l 417 -208 l 417 -257 l 139 -257 l 139 -208 z "},"₍":{"ha":903,"x_min":174,"x_max":326,"o":"m 174 63 q 177 120 174 93 q 190 166 180 147 q 222 197 201 186 q 278 208 242 208 q 291 208 284 208 q 305 206 299 207 q 317 203 312 205 q 326 199 323 201 l 302 156 l 297 156 q 291 157 294 157 q 285 158 288 158 q 261 150 269 158 q 248 131 252 143 q 244 102 244 118 q 243 67 243 85 l 243 -352 q 244 -386 243 -370 q 248 -415 244 -403 q 261 -435 252 -428 q 285 -442 269 -442 l 291 -442 q 297 -442 294 -442 l 302 -441 l 326 -485 q 317 -488 323 -487 q 305 -491 312 -490 q 291 -493 299 -492 q 278 -493 284 -493 q 222 -482 242 -493 q 190 -451 201 -471 q 177 -405 180 -432 q 174 -347 174 -378 l 174 63 z "},"₎":{"ha":903,"x_min":160,"x_max":312,"o":"m 312 -347 q 309 -405 312 -378 q 295 -451 306 -432 q 264 -482 285 -471 q 208 -493 243 -493 q 194 -493 201 -493 q 180 -491 187 -492 q 168 -488 174 -490 q 160 -485 163 -487 l 183 -441 l 188 -442 q 194 -442 191 -442 l 201 -442 q 225 -435 216 -442 q 237 -415 233 -428 q 242 -386 241 -403 q 242 -352 242 -370 l 242 67 q 242 102 242 85 q 237 131 241 118 q 225 150 233 143 q 201 158 216 158 q 194 157 197 158 q 188 156 191 157 l 183 156 l 160 199 q 168 203 163 201 q 180 206 174 205 q 194 208 187 207 q 208 208 201 208 q 264 197 243 208 q 295 166 285 186 q 309 120 306 147 q 312 63 312 93 l 312 -347 z "},"₹":{"ha":903,"x_min":118,"x_max":749,"o":"m 118 938 l 146 1042 l 749 1042 l 694 938 l 549 938 l 476 955 l 528 909 q 558 858 549 886 q 568 799 567 831 l 749 799 l 694 694 l 588 694 l 518 706 l 560 663 q 514 572 542 610 q 447 507 485 533 q 362 465 408 481 q 263 440 315 449 l 361 412 l 669 0 l 514 0 l 206 413 q 189 425 199 423 q 174 426 179 426 l 139 426 l 139 531 l 193 531 q 287 544 246 531 q 358 578 328 556 q 407 630 388 600 q 434 694 426 660 l 118 694 l 146 799 l 436 799 q 409 867 428 839 q 361 913 389 894 q 347 921 355 917 q 326 929 339 925 q 296 935 314 933 q 251 938 278 938 l 118 938 z "},"℃":{"ha":903,"x_min":-97,"x_max":998,"o":"m 998 72 q 940 33 969 49 q 879 7 911 17 q 812 -7 847 -3 q 735 -12 776 -12 q 608 8 669 -12 q 496 64 548 28 q 403 149 444 99 q 332 260 361 199 q 287 390 303 321 q 271 535 271 460 q 301 734 271 640 q 390 899 331 828 q 536 1012 449 970 q 738 1053 623 1053 q 882 1028 817 1053 q 996 955 946 1003 l 933 881 q 898 902 917 892 q 857 919 879 912 q 807 932 834 927 q 749 936 781 936 q 601 904 664 936 q 497 818 538 872 q 434 691 455 763 q 414 537 414 618 q 424 435 414 486 q 455 335 435 383 q 503 246 474 288 q 570 173 533 204 q 654 124 608 142 q 753 106 700 106 q 808 109 785 106 q 853 118 832 112 q 896 134 874 124 q 944 160 917 144 l 998 72 m 90 1053 q 163 1039 129 1053 q 223 999 197 1024 q 263 939 248 973 q 277 866 277 905 q 263 793 277 827 q 223 734 248 759 q 163 693 197 708 q 90 678 129 678 q 17 693 51 678 q -42 734 -17 708 q -82 793 -67 759 q -97 866 -97 827 q -82 939 -97 905 q -42 999 -67 973 q 17 1039 -17 1024 q 90 1053 51 1053 m 90 756 q 133 764 113 756 q 168 788 153 773 q 192 823 183 803 q 201 866 201 843 q 192 909 201 889 q 168 944 183 929 q 133 968 153 959 q 90 976 113 976 q 47 968 67 976 q 12 944 27 959 q -11 909 -3 929 q -20 866 -20 889 q -11 823 -20 843 q 12 788 -3 803 q 47 764 27 773 q 90 756 67 756 z "},"℉":{"ha":903,"x_min":-86,"x_max":983,"o":"m 479 0 l 347 0 l 347 896 l 326 1042 l 983 1042 l 969 931 l 465 931 l 479 799 l 479 615 l 910 615 l 910 514 l 479 514 l 479 0 m 101 1053 q 174 1039 140 1053 q 233 999 208 1024 q 273 939 258 973 q 288 866 288 905 q 273 793 288 827 q 233 734 258 759 q 174 693 208 708 q 101 678 140 678 q 28 693 62 678 q -32 734 -6 708 q -72 793 -57 759 q -86 866 -86 827 q -72 939 -86 905 q -32 999 -57 973 q 28 1039 -6 1024 q 101 1053 62 1053 m 101 756 q 144 764 124 756 q 179 788 164 773 q 202 823 194 803 q 211 866 211 843 q 202 909 211 889 q 179 944 194 929 q 144 968 164 959 q 101 976 124 976 q 58 968 78 976 q 23 944 38 959 q -1 909 8 929 q -10 866 -10 889 q -1 823 -10 843 q 23 788 8 803 q 58 764 38 773 q 101 756 78 756 z "},"ℑ":{"ha":903,"x_min":147,"x_max":750,"o":"m 290 972 l 721 972 l 703 844 q 649 805 676 828 q 602 753 623 781 q 568 697 581 725 q 556 643 556 668 q 570 579 556 613 q 606 509 584 545 q 653 433 628 472 q 700 352 678 394 q 736 265 722 310 q 750 174 750 221 q 699 36 750 83 q 550 -12 648 -12 q 492 -4 522 -12 q 436 16 463 4 q 386 42 409 28 q 346 71 363 57 l 333 139 l 229 46 l 147 108 l 306 245 q 362 196 333 219 q 422 154 392 172 q 482 125 452 135 q 540 114 512 114 q 569 117 556 114 q 594 128 583 121 q 611 147 605 135 q 618 175 618 158 q 604 234 618 201 q 568 307 590 268 q 521 387 546 345 q 474 470 496 428 q 438 551 452 511 q 424 625 424 590 q 428 669 424 643 q 448 724 433 694 q 489 784 463 753 q 558 844 515 815 l 326 844 q 305 809 310 828 q 299 769 299 790 q 302 744 299 757 q 309 722 306 732 q 319 699 313 710 l 246 658 q 205 778 205 715 q 290 972 205 869 z "},"ℓ":{"ha":903,"x_min":208,"x_max":694,"o":"m 208 375 l 278 375 l 278 694 q 289 838 278 772 q 326 952 299 904 q 399 1027 353 1000 q 514 1053 444 1053 q 586 1038 553 1053 q 643 987 619 1022 q 681 897 667 952 q 694 764 694 842 q 693 656 694 712 q 687 545 692 599 q 668 443 681 491 q 633 358 656 394 q 574 299 610 321 q 486 278 538 278 l 417 278 l 417 266 q 420 197 417 228 q 435 144 424 166 q 466 108 447 121 q 512 90 488 93 q 533 88 525 89 q 543 88 540 88 q 583 93 560 88 q 619 106 606 99 l 676 21 q 645 8 662 14 q 608 -2 628 2 q 563 -9 588 -7 q 507 -12 538 -12 q 396 9 440 -12 q 326 68 352 31 q 289 156 299 106 q 278 266 278 207 l 278 278 l 208 278 l 208 375 m 451 375 l 486 375 q 520 388 506 375 q 544 424 535 401 q 559 477 553 447 q 566 542 564 507 q 569 613 569 576 q 569 685 569 650 q 568 784 569 736 q 561 870 567 833 q 542 930 555 907 q 506 952 529 952 q 475 941 491 952 q 447 902 460 929 q 425 831 433 875 q 417 722 417 787 l 417 306 l 451 375 z "},"℘":{"ha":903,"x_min":15,"x_max":895,"o":"m 173 -249 q 203 -236 190 -249 q 224 -204 216 -224 q 236 -160 233 -185 q 240 -112 240 -136 q 236 -52 240 -87 q 226 17 233 -18 q 212 84 220 52 q 196 139 204 117 l 196 199 q 157 116 174 161 q 128 23 140 71 q 110 -73 116 -25 q 103 -164 103 -121 q 120 -227 103 -205 q 173 -249 138 -249 m 431 716 q 344 690 388 708 q 267 641 301 672 q 210 566 232 610 q 188 460 188 522 q 196 396 188 431 l 196 311 q 299 451 245 388 q 411 557 353 513 q 532 625 469 601 q 660 649 594 649 q 769 626 724 649 q 842 566 814 604 q 883 478 870 528 q 895 372 895 428 q 887 276 895 324 q 875 231 884 259 q 851 172 867 203 q 811 107 835 140 q 753 48 787 74 q 677 5 720 22 q 579 -12 634 -12 q 506 1 542 -12 q 443 37 471 13 q 398 96 415 61 q 381 174 381 131 q 404 288 381 242 q 464 363 428 334 q 543 404 500 392 q 625 417 586 417 l 611 361 q 557 352 585 361 q 506 322 529 343 q 468 267 483 301 q 453 181 453 233 q 463 138 453 159 q 492 102 474 117 q 534 77 510 86 q 585 67 558 67 q 638 81 613 67 q 684 119 663 95 q 723 174 706 143 q 753 240 741 206 q 772 310 765 274 q 779 379 779 347 q 768 450 779 417 q 738 506 758 482 q 689 542 717 529 q 625 556 660 556 q 505 532 559 556 q 404 468 450 508 q 318 378 358 428 q 240 274 278 327 q 281 181 261 229 q 315 84 300 133 q 339 -14 330 35 q 347 -107 347 -62 q 339 -194 347 -149 q 308 -274 330 -238 q 249 -334 286 -310 q 156 -357 213 -357 q 88 -343 115 -357 q 44 -305 60 -328 q 21 -250 28 -281 q 15 -185 15 -219 q 25 -69 15 -127 q 55 42 36 -12 q 97 144 73 96 q 148 230 121 192 q 126 277 138 253 q 106 327 115 301 q 91 381 97 353 q 85 442 85 410 q 100 543 85 497 q 141 626 115 589 q 199 691 166 663 q 269 738 232 719 q 344 766 306 757 q 417 776 382 776 l 431 716 z "},"ℜ":{"ha":903,"x_min":48,"x_max":868,"o":"m 410 436 l 466 500 l 517 520 q 587 565 563 538 q 623 622 611 592 q 636 685 634 653 q 638 747 638 718 q 632 789 638 769 q 621 824 627 809 q 604 856 613 841 q 523 847 556 856 q 468 824 490 838 q 435 790 447 809 q 418 749 423 771 q 411 705 413 728 q 410 662 410 683 l 410 436 m 625 972 q 677 929 652 954 q 722 872 702 903 q 752 803 741 840 q 764 727 764 767 q 763 646 764 685 q 752 573 761 607 q 723 514 742 540 q 666 474 703 488 q 687 448 679 461 q 699 420 694 435 q 704 389 703 406 q 706 352 706 372 l 706 201 q 707 177 706 190 q 713 153 709 165 q 724 132 717 142 q 739 117 730 123 l 831 153 l 868 87 l 708 -12 q 660 4 683 -6 q 618 31 636 14 q 588 73 599 47 q 576 139 576 99 l 576 258 q 574 359 576 315 q 553 428 571 403 l 410 384 l 410 208 q 406 131 410 170 q 386 60 401 92 q 342 8 372 28 q 264 -12 313 -12 l 248 -12 l 158 81 l 105 37 l 48 87 l 158 208 l 249 117 q 278 148 272 131 q 283 185 283 165 l 283 682 q 286 722 283 701 q 303 766 290 744 q 342 808 316 788 q 415 844 369 828 l 209 844 q 187 812 193 831 q 181 772 181 793 q 184 745 181 758 q 191 722 188 733 q 201 699 195 710 l 128 658 q 95 720 103 690 q 87 785 87 750 q 94 836 87 810 q 113 885 101 861 q 140 931 124 909 q 172 972 156 953 l 625 972 z "},"Å":{"ha":903,"x_min":22,"x_max":878,"o":"m 444 1304 q 508 1291 478 1304 q 561 1256 538 1278 q 596 1203 583 1233 q 609 1140 609 1174 q 596 1075 609 1106 q 561 1022 583 1044 q 521 991 544 1003 l 878 0 l 740 0 l 637 313 l 265 313 l 150 0 l 22 0 l 350 903 l 366 993 q 328 1022 345 1005 q 292 1075 306 1044 q 279 1140 279 1106 q 292 1203 279 1174 q 328 1256 306 1233 q 380 1291 350 1278 q 444 1304 410 1304 m 448 972 l 417 750 l 299 417 l 603 417 l 479 750 l 448 972 m 445 1053 q 478 1060 463 1053 q 504 1079 493 1067 q 522 1106 515 1090 q 528 1139 528 1122 q 522 1172 528 1156 q 504 1198 515 1187 q 477 1216 492 1210 q 444 1223 462 1223 q 412 1216 427 1223 q 385 1198 397 1210 q 367 1172 374 1187 q 360 1139 360 1156 q 367 1106 360 1122 q 385 1079 374 1090 q 412 1060 397 1067 q 445 1053 428 1053 z "},"ℴ":{"ha":903,"x_min":124,"x_max":707,"o":"m 324 -12 q 238 3 276 -12 q 175 46 201 19 q 137 112 150 74 q 124 197 124 151 q 136 300 124 249 q 172 397 149 351 q 230 483 196 443 q 306 552 263 523 q 398 598 348 581 q 504 615 448 615 q 590 600 552 615 q 654 558 628 585 q 693 493 680 531 q 707 410 707 456 q 694 307 707 358 q 658 210 681 256 q 600 123 634 163 q 523 52 566 82 q 431 5 481 22 q 324 -12 381 -12 m 589 388 q 584 439 589 415 q 566 480 578 463 q 533 508 553 498 q 481 518 513 518 q 411 505 444 518 q 352 469 379 492 q 305 416 326 447 q 270 352 284 386 q 248 283 256 319 q 240 215 240 248 q 245 164 240 188 q 263 123 251 140 q 297 95 276 106 q 348 85 317 85 q 449 113 404 85 q 524 183 493 140 q 572 280 556 226 q 589 388 589 334 z "},"ℵ":{"ha":903,"x_min":138,"x_max":759,"o":"m 547 764 q 566 701 550 725 q 603 661 581 678 q 651 631 626 644 q 697 601 676 618 q 732 558 718 583 q 746 491 746 532 q 726 394 746 447 l 667 394 q 661 441 667 422 q 648 477 656 461 q 627 505 639 492 q 600 527 615 517 q 577 476 592 498 q 540 432 563 454 q 650 350 608 392 q 717 267 693 308 q 750 188 741 226 q 759 117 759 150 q 751 47 759 78 q 738 0 744 15 l 665 0 q 650 80 665 44 q 611 144 636 115 q 552 201 586 174 q 478 255 518 227 q 395 315 439 283 q 308 388 351 347 l 308 463 q 275 426 288 441 q 257 401 263 412 q 248 382 250 390 q 246 367 246 374 q 259 316 246 340 q 292 268 272 292 q 335 223 313 245 q 378 176 358 200 q 412 126 399 152 q 425 72 425 101 q 403 0 425 37 l 138 0 l 166 97 l 288 97 l 181 158 q 151 218 163 185 q 138 292 138 251 q 144 343 138 317 q 161 392 151 368 q 188 438 172 416 q 222 478 203 460 q 159 561 179 521 q 140 650 140 602 q 145 703 140 675 q 160 764 150 731 l 222 764 q 241 687 222 724 q 291 618 260 651 q 360 556 322 585 q 437 501 398 526 l 437 433 q 481 476 464 458 q 507 508 498 494 q 519 536 516 523 q 522 563 522 549 l 522 572 q 477 619 491 596 q 463 673 463 642 q 482 764 463 708 l 547 764 z "},"⅓":{"ha":903,"x_min":72,"x_max":903,"o":"m 350 0 l 263 0 l 663 1042 l 743 1042 l 350 0 m 592 465 l 598 521 l 869 521 l 869 472 q 855 443 865 458 q 831 413 844 428 q 802 382 818 397 q 770 353 786 367 l 724 328 q 733 329 728 328 q 744 329 739 329 q 806 321 777 329 q 857 295 835 313 q 890 253 878 278 q 903 192 903 227 q 890 131 903 158 q 856 82 878 103 q 805 45 834 60 q 743 20 776 30 q 674 5 710 10 q 605 0 639 0 l 605 56 q 661 60 633 56 q 714 72 689 65 q 760 91 739 80 q 797 116 781 101 q 821 148 813 130 q 830 188 830 167 q 819 230 830 213 q 790 256 808 247 q 747 270 772 266 q 694 274 722 274 q 669 274 683 274 q 646 272 656 273 l 646 326 q 677 350 660 337 q 711 377 694 363 q 744 407 728 392 q 773 435 760 422 q 795 460 786 448 q 807 479 804 472 l 754 465 l 592 465 m 91 500 l 91 556 l 210 556 l 210 891 l 231 969 l 183 905 l 110 840 l 72 882 l 231 1028 l 283 1021 l 283 556 l 403 556 l 403 500 l 91 500 z "},"⅔":{"ha":903,"x_min":63,"x_max":903,"o":"m 350 0 l 263 0 l 663 1042 l 743 1042 l 350 0 m 63 500 l 63 558 q 97 608 78 583 q 135 656 116 633 q 173 700 155 679 q 207 739 192 721 q 242 777 225 760 q 272 811 259 794 q 292 847 285 828 q 300 887 300 865 q 294 918 300 903 q 276 944 288 933 q 249 961 265 955 q 215 968 233 968 q 178 962 194 968 q 151 947 163 956 q 131 926 140 938 q 115 903 122 915 l 66 924 q 89 965 75 946 q 123 998 103 984 q 166 1019 142 1011 q 220 1026 190 1026 q 282 1014 255 1026 q 329 981 310 1001 q 358 935 348 961 q 367 883 367 910 q 358 832 367 856 q 333 786 348 808 q 301 745 318 765 q 270 710 284 726 q 234 668 252 689 q 199 628 216 648 q 168 590 183 608 q 144 556 154 572 l 387 556 l 387 500 l 63 500 m 593 465 l 599 521 l 869 521 l 869 472 q 855 443 865 458 q 832 413 845 428 q 803 382 819 397 q 771 353 787 367 l 725 328 q 734 329 728 328 q 744 329 740 329 q 807 321 778 329 q 857 295 836 313 q 891 253 878 278 q 903 192 903 227 q 891 131 903 158 q 857 82 878 103 q 806 45 835 60 q 743 20 776 30 q 675 5 710 10 q 606 0 640 0 l 606 56 q 662 60 634 56 q 715 72 690 65 q 761 91 740 80 q 798 116 782 101 q 822 148 813 130 q 831 188 831 167 q 820 230 831 213 q 791 256 809 247 q 748 270 772 266 q 694 274 723 274 q 670 274 683 274 q 647 272 657 273 l 647 326 q 678 350 661 337 q 711 377 694 363 q 744 407 728 392 q 774 435 760 422 q 796 460 787 448 q 808 479 805 472 l 755 465 l 593 465 z "},"⅕":{"ha":903,"x_min":72,"x_max":891,"o":"m 350 0 l 263 0 l 663 1042 l 743 1042 l 350 0 m 669 341 q 677 345 671 342 q 692 352 683 349 q 713 357 701 355 q 739 359 724 359 q 803 348 775 359 q 851 317 831 337 q 881 271 871 297 q 891 215 891 244 q 878 150 891 180 q 844 97 866 120 q 794 55 823 73 q 732 24 765 37 q 665 6 699 12 q 597 0 630 0 l 597 56 q 649 62 622 56 q 701 77 676 67 q 747 100 726 87 q 785 131 769 114 q 811 167 801 147 q 820 208 820 186 q 814 242 820 225 q 797 272 808 258 q 769 293 786 285 q 729 301 752 301 q 698 298 712 301 q 672 292 683 296 q 653 285 661 289 q 640 278 644 281 l 597 278 l 597 521 l 858 521 l 858 465 l 669 465 l 669 341 m 91 500 l 91 556 l 210 556 l 210 891 l 231 969 l 183 905 l 110 840 l 72 882 l 231 1028 l 283 1021 l 283 556 l 403 556 l 403 500 l 91 500 z "},"⅖":{"ha":903,"x_min":63,"x_max":891,"o":"m 350 0 l 263 0 l 663 1042 l 743 1042 l 350 0 m 63 500 l 63 558 q 97 608 78 583 q 135 656 116 633 q 173 700 155 679 q 207 739 192 721 q 242 777 225 760 q 272 811 259 794 q 292 847 285 828 q 300 887 300 865 q 294 918 300 903 q 276 944 288 933 q 249 961 265 955 q 215 968 233 968 q 178 962 194 968 q 151 947 163 956 q 131 926 140 938 q 115 903 122 915 l 66 924 q 89 965 75 946 q 123 998 103 984 q 166 1019 142 1011 q 220 1026 190 1026 q 282 1014 255 1026 q 329 981 310 1001 q 358 935 348 961 q 367 883 367 910 q 358 832 367 856 q 333 786 348 808 q 301 745 318 765 q 270 710 284 726 q 234 668 252 689 q 199 628 216 648 q 168 590 183 608 q 144 556 154 572 l 387 556 l 387 500 l 63 500 m 669 341 q 677 345 671 342 q 692 352 683 349 q 713 357 701 355 q 739 359 724 359 q 803 348 775 359 q 851 317 831 337 q 881 271 871 297 q 891 215 891 244 q 878 150 891 180 q 844 97 866 120 q 794 55 823 73 q 732 24 765 37 q 665 6 699 12 q 597 0 630 0 l 597 56 q 649 62 622 56 q 701 77 676 67 q 747 100 726 87 q 785 131 769 114 q 811 167 801 147 q 820 208 820 186 q 814 242 820 225 q 797 272 808 258 q 769 293 786 285 q 729 301 752 301 q 698 298 712 301 q 672 292 683 296 q 653 285 661 289 q 640 278 644 281 l 597 278 l 597 521 l 858 521 l 858 465 l 669 465 l 669 341 z "},"⅗":{"ha":903,"x_min":113,"x_max":891,"o":"m 350 0 l 263 0 l 663 1042 l 743 1042 l 350 0 m 669 341 q 677 345 671 342 q 692 352 683 349 q 713 357 701 355 q 739 359 724 359 q 803 348 775 359 q 851 317 831 337 q 881 271 871 297 q 891 215 891 244 q 878 150 891 180 q 844 97 866 120 q 794 55 823 73 q 732 24 765 37 q 665 6 699 12 q 597 0 630 0 l 597 56 q 649 62 622 56 q 701 77 676 67 q 747 100 726 87 q 785 131 769 114 q 811 167 801 147 q 820 208 820 186 q 814 242 820 225 q 797 272 808 258 q 769 293 786 285 q 729 301 752 301 q 698 298 712 301 q 672 292 683 296 q 653 285 661 289 q 640 278 644 281 l 597 278 l 597 521 l 858 521 l 858 465 l 669 465 l 669 341 m 113 965 l 118 1021 l 389 1021 l 389 972 q 375 943 385 958 q 351 913 365 928 q 322 882 338 897 q 290 853 306 867 l 244 828 q 253 829 248 828 q 264 829 259 829 q 326 821 297 829 q 377 795 356 813 q 410 753 398 778 q 423 692 423 727 q 410 631 423 658 q 376 582 398 603 q 325 545 354 560 q 263 520 296 530 q 194 505 230 510 q 125 500 159 500 l 125 556 q 181 560 153 556 q 234 572 209 565 q 280 591 259 580 q 317 616 301 601 q 341 648 333 630 q 350 688 350 667 q 339 730 350 713 q 310 756 328 747 q 267 770 292 766 q 214 774 242 774 q 190 774 203 774 q 166 772 176 773 l 166 826 q 197 850 181 837 q 231 877 214 863 q 264 907 248 892 q 293 935 280 922 q 315 960 306 948 q 327 979 324 972 l 274 965 l 113 965 z "},"⅘":{"ha":903,"x_min":86,"x_max":891,"o":"m 350 0 l 263 0 l 663 1042 l 743 1042 l 350 0 m 669 341 q 677 345 671 342 q 692 352 683 349 q 713 357 701 355 q 739 359 724 359 q 803 348 775 359 q 851 317 831 337 q 881 271 871 297 q 891 215 891 244 q 878 150 891 180 q 844 97 866 120 q 794 55 823 73 q 732 24 765 37 q 665 6 699 12 q 597 0 630 0 l 597 56 q 649 62 622 56 q 701 77 676 67 q 747 100 726 87 q 785 131 769 114 q 811 167 801 147 q 820 208 820 186 q 814 242 820 225 q 797 272 808 258 q 769 293 786 285 q 729 301 752 301 q 698 298 712 301 q 672 292 683 296 q 653 285 661 289 q 640 278 644 281 l 597 278 l 597 521 l 858 521 l 858 465 l 669 465 l 669 341 m 428 604 l 366 604 l 366 500 l 293 500 l 293 604 l 86 604 l 86 663 l 254 1028 l 320 1021 l 176 708 l 144 660 l 293 660 l 293 801 l 366 795 l 366 660 l 433 660 l 428 604 z "},"⅙":{"ha":903,"x_min":72,"x_max":903,"o":"m 834 467 q 827 467 832 467 l 819 467 q 770 460 794 467 q 726 438 747 452 q 687 404 705 424 q 656 360 669 384 q 634 309 643 336 q 623 253 626 282 l 651 294 q 672 305 660 299 q 696 314 683 310 q 722 319 709 317 q 747 322 735 322 q 806 313 778 322 q 855 288 833 305 q 890 243 877 270 q 903 178 903 216 q 890 107 903 140 q 855 48 878 74 q 800 8 832 23 q 729 -6 768 -6 q 669 5 695 -6 q 623 34 642 16 q 591 75 603 52 q 569 123 578 99 q 558 171 561 147 q 554 215 554 195 q 563 295 554 256 q 588 369 572 335 q 627 433 603 404 q 680 483 650 462 q 745 515 710 503 q 822 526 781 526 l 833 526 q 843 526 840 526 l 834 467 m 350 0 l 263 0 l 663 1042 l 743 1042 l 350 0 m 91 500 l 91 556 l 210 556 l 210 891 l 231 969 l 183 905 l 110 840 l 72 882 l 231 1028 l 283 1021 l 283 556 l 403 556 l 403 500 l 91 500 m 626 207 q 626 189 626 197 q 627 174 626 181 q 629 158 628 166 q 633 141 631 151 q 646 105 638 122 q 667 77 655 89 q 694 59 678 66 q 730 53 710 53 q 777 63 758 53 q 808 91 796 74 q 826 130 820 108 q 832 174 832 152 q 825 213 832 197 q 807 241 819 230 q 779 257 795 251 q 742 263 763 263 q 706 258 724 263 q 673 246 688 253 q 645 228 657 238 q 626 207 633 218 z "},"⅚":{"ha":903,"x_min":122,"x_max":903,"o":"m 834 467 q 827 467 832 467 l 819 467 q 770 460 794 467 q 726 438 747 452 q 687 404 705 424 q 656 360 669 384 q 634 309 643 336 q 623 253 626 282 l 651 294 q 672 305 660 299 q 696 314 683 310 q 722 319 709 317 q 747 322 735 322 q 806 313 778 322 q 855 288 833 305 q 890 243 877 270 q 903 178 903 216 q 890 107 903 140 q 855 48 878 74 q 800 8 832 23 q 729 -6 768 -6 q 669 5 695 -6 q 623 34 642 16 q 591 75 603 52 q 569 123 578 99 q 558 171 561 147 q 554 215 554 195 q 563 295 554 256 q 588 369 572 335 q 627 433 603 404 q 680 483 650 462 q 745 515 710 503 q 822 526 781 526 l 833 526 q 843 526 840 526 l 834 467 m 350 0 l 263 0 l 663 1042 l 743 1042 l 350 0 m 194 841 q 203 845 197 842 q 218 852 209 849 q 239 857 227 855 q 265 859 250 859 q 329 848 301 859 q 377 817 357 837 q 407 771 397 797 q 417 715 417 744 q 404 650 417 680 q 370 597 392 620 q 319 555 349 573 q 258 524 290 537 q 190 506 225 512 q 122 500 156 500 l 122 556 q 175 562 148 556 q 226 577 201 567 q 273 600 251 587 q 311 631 294 614 q 336 667 327 647 q 346 708 346 686 q 340 742 346 725 q 323 772 334 758 q 295 793 312 785 q 255 801 278 801 q 223 798 238 801 q 198 792 209 796 q 178 785 187 789 q 165 778 170 781 l 122 778 l 122 1021 l 383 1021 l 383 965 l 194 965 l 194 841 m 626 207 q 626 189 626 197 q 627 174 626 181 q 629 158 628 166 q 633 141 631 151 q 646 105 638 122 q 667 77 655 89 q 694 59 678 66 q 730 53 710 53 q 777 63 758 53 q 808 91 796 74 q 826 130 820 108 q 832 174 832 152 q 825 213 832 197 q 807 241 819 230 q 779 257 795 251 q 742 263 763 263 q 706 258 724 263 q 673 246 688 253 q 645 228 657 238 q 626 207 633 218 z "},"⅛":{"ha":903,"x_min":72,"x_max":902,"o":"m 350 0 l 263 0 l 663 1042 l 743 1042 l 350 0 m 721 526 q 780 518 753 526 q 826 493 807 509 q 857 453 846 476 q 868 401 868 430 q 862 365 868 381 q 846 336 856 349 q 822 313 835 323 q 792 294 808 303 q 839 267 818 282 q 873 234 859 253 q 894 192 887 215 q 902 142 902 169 q 887 76 902 103 q 846 30 872 48 q 789 2 821 11 q 723 -6 757 -6 q 660 4 690 -6 q 606 33 629 14 q 568 81 582 52 q 553 147 553 110 q 561 198 553 175 q 583 238 569 220 q 616 270 597 256 q 658 295 635 284 q 627 316 642 305 q 603 339 613 326 q 586 366 592 351 q 580 397 580 380 q 593 455 580 431 q 628 495 607 480 q 673 519 649 511 q 721 526 698 526 m 717 264 q 678 243 695 254 q 648 217 660 232 q 629 185 635 203 q 622 144 622 167 q 631 106 622 123 q 653 76 639 89 q 686 57 667 64 q 724 51 704 51 q 766 57 746 51 q 801 75 785 63 q 825 104 816 87 q 833 144 833 122 q 823 185 833 167 q 796 218 813 203 q 759 244 780 233 q 717 264 738 255 m 731 320 q 782 355 763 335 q 801 403 801 375 q 794 433 801 421 q 776 454 787 446 q 752 466 765 462 q 728 469 740 469 q 697 465 712 469 q 672 451 683 460 q 654 431 660 442 q 647 405 647 419 q 654 377 647 389 q 672 355 660 365 q 699 336 684 344 q 731 320 715 328 m 91 500 l 91 556 l 210 556 l 210 891 l 231 969 l 183 905 l 110 840 l 72 882 l 231 1028 l 283 1021 l 283 556 l 403 556 l 403 500 l 91 500 z "}}}
